<svg xmlns="http://www.w3.org/2000/svg" width="386" height="733" viewBox="0 0 386 733">
<g>
<path d="M 49.75 550.42 C49.34,550.01 49.00,548.15 49.00,546.30 C49.00,541.03 46.48,536.22 42.50,533.87 L 38.90 531.74 L 42.18 529.74 C46.65,527.03 47.80,525.26 48.54,520.00 C49.68,511.88 50.38,511.15 51.09,517.35 C51.85,524.00 54.14,527.73 58.95,530.18 L 62.25 531.87 L 58.70 533.35 C54.06,535.29 52.13,538.42 51.23,545.44 C50.83,548.59 50.16,550.84 49.75,550.42 Z" fill="rgba(33,198,120,1)"/>
<path d="M 219.59 150.35 C216.79,152.19 211.62,152.41 208.38,150.84 C207.21,150.27 205.26,147.68 204.04,145.09 C201.85,140.40 201.84,140.35 203.74,136.94 C204.79,135.05 207.50,132.47 209.77,131.20 L 213.90 128.91 L 217.93 130.96 C226.35,135.26 227.22,145.35 219.59,150.35 ZM 156.36 164.62 C154.41,165.44 153.61,165.87 152.81,165.85 C151.97,165.83 151.15,165.32 149.01,164.25 C146.95,163.22 144.59,160.82 143.27,158.41 C141.03,154.32 141.03,154.32 142.94,150.35 C145.10,145.89 148.35,143.99 153.80,144.02 C165.66,144.09 167.63,159.91 156.36,164.62 ZM 190.29 163.74 C181.29,167.55 180.00,167.56 180.00,163.83 C180.00,162.82 180.64,162.00 181.42,162.00 C184.70,162.00 193.00,156.86 193.60,154.45 C194.50,150.86 198.00,151.12 198.00,154.78 C198.00,158.80 195.73,161.44 190.29,163.74 ZM 153.60 154.69 C155.96,156.42 156.36,156.36 158.55,153.94 C161.00,151.23 159.41,148.50 155.39,148.50 C153.09,148.50 152.43,149.00 152.16,150.94 C151.94,152.45 152.50,153.89 153.60,154.69 ZM 214.50 141.63 C216.56,143.13 218.70,142.44 220.10,139.82 C221.51,137.17 219.46,134.81 216.09,135.20 C212.91,135.57 211.89,139.71 214.50,141.63 Z" fill="rgba(36,36,33,1)"/>
<path d="M 9.05 284.52 C10.60,287.52 13.30,290.67 15.89,292.49 L 20.17 295.50 L 161.47 295.76 L 302.77 296.02 L 304.00 300.76 C306.20,309.21 306.45,327.61 304.53,339.12 C300.07,365.83 287.65,391.57 270.38,409.94 C261.33,419.56 253.12,425.73 238.29,434.04 C217.65,445.62 211.59,452.16 205.97,468.92 C198.53,491.14 202.29,515.68 215.03,528.00 C217.59,530.47 224.59,535.41 230.59,538.97 C261.17,557.10 268.35,564.33 284.84,593.62 C301.50,623.19 305.91,650.53 297.93,674.71 L 296.84 678.00 L 272.12 678.00 L 268.81 673.37 C263.51,665.97 253.27,658.73 237.19,651.03 C217.24,641.49 215.68,640.65 215.73,639.53 C215.75,638.99 219.29,636.74 223.60,634.53 C233.70,629.33 243.02,620.70 245.99,613.80 C251.60,600.77 244.53,588.50 219.24,567.35 C200.56,551.72 192.37,544.16 188.04,538.55 L 184.00 533.32 L 184.00 514.91 C184.00,489.40 185.37,475.92 188.62,469.20 C193.48,459.19 209.13,444.85 226.50,434.48 C248.34,421.44 264.14,408.81 274.98,395.72 C280.21,389.40 287.00,378.56 287.00,376.52 C287.00,376.13 280.73,376.14 273.07,376.53 C257.71,377.32 246.00,376.52 246.00,374.67 C246.00,374.03 247.58,370.90 249.49,367.71 C254.74,359.02 256.50,352.78 256.49,343.00 C256.47,335.63 256.09,333.77 253.63,329.00 C245.28,312.86 234.06,309.44 181.11,306.88 C157.36,305.73 115.15,306.28 103.50,307.89 C97.85,308.67 97.27,308.55 93.55,305.86 C89.15,302.67 88.21,302.49 84.55,304.16 C82.92,304.90 82.00,306.13 82.00,307.55 C82.00,310.28 81.48,310.51 66.50,314.41 L 54.50 317.53 L 54.57 327.02 C54.57,327.16 54.58,327.31 54.58,327.45 C54.06,317.21 54.02,306.22 54.75,301.81 L 55.68 296.12 L 37.92 295.81 L 20.17 295.50 L 20.16 295.50 L 15.89 292.49 C13.30,290.67 10.60,287.52 9.05,284.52 ZM 48.59 646.74 C52.37,648.21 84.53,653.41 95.73,654.29 L 110.96 655.50 L 88.92 678.00 L 52.93 678.00 C52.00,678.00 51.10,678.00 50.22,678.00 C26.76,678.01 17.87,678.12 12.97,679.66 C16.87,678.28 22.46,678.00 33.58,678.00 L 50.22 678.00 L 49.59 674.25 C48.26,666.30 47.94,656.28 48.59,646.74 ZM 176.31 486.08 C176.48,486.31 176.35,491.23 176.02,497.00 C175.52,505.92 175.30,506.92 174.59,503.65 C173.33,497.94 174.71,483.92 176.31,486.08 ZM 55.68 341.38 C56.59,347.21 58.14,353.20 60.54,360.58 C67.36,381.60 79.02,400.02 94.67,414.85 C103.83,423.52 114.35,430.97 126.07,436.99 C114.32,430.95 103.83,423.55 94.67,414.85 C83.68,404.41 74.59,392.08 67.48,377.96 C63.44,369.93 58.76,356.51 56.48,346.40 C56.19,345.13 55.92,343.41 55.68,341.38 ZM 120.48 537.34 C83.64,556.18 59.13,588.92 50.88,630.14 C50.60,631.56 50.33,633.00 50.08,634.44 C49.90,635.52 49.72,636.58 49.56,637.58 C49.69,636.71 49.82,635.85 49.97,635.00 C50.25,633.37 50.55,631.75 50.88,630.14 C59.37,588.55 83.60,556.20 120.48,537.34 Z" fill="rgba(78,119,244,1)"/>
<path d="M 77.61 166.72 C76.02,168.31 45.38,167.40 35.00,165.45 L 31.50 164.80 L 36.00 160.78 C43.43,154.13 76.33,133.00 77.47,134.14 C78.21,134.88 78.34,165.99 77.61,166.72 ZM 306.67 106.88 C297.14,111.90 289.02,116.00 288.64,116.00 C288.25,116.00 287.66,115.21 287.33,114.25 C284.98,107.48 280.45,97.53 277.90,93.50 L 274.86 88.72 L 284.57 89.43 C303.14,90.79 324.00,94.75 324.00,96.91 C324.00,97.38 316.20,101.87 306.67,106.88 Z" fill="rgba(78,39,88,1)"/>
<path d="M 81.90 308.71 C81.63,310.17 81.38,312.14 81.06,314.87 C80.43,320.16 79.82,328.33 79.71,333.00 L 79.50 341.50 L 72.57 342.27 C68.76,342.69 65.44,343.22 65.21,343.46 C64.20,344.47 69.21,363.81 72.38,371.14 C77.95,384.03 81.92,389.82 92.00,399.81 C107.82,415.50 117.80,423.77 133.00,433.79 C142.39,439.99 150.14,446.03 155.00,450.93 C164.77,460.79 174.44,475.15 175.90,481.96 C176.05,482.67 176.19,484.09 176.31,486.08 C174.70,483.94 173.33,497.95 174.59,503.65 C175.30,506.92 175.52,505.92 176.02,497.00 C176.25,492.99 176.38,489.39 176.38,487.49 C177.31,505.82 177.19,560.40 175.96,575.60 C174.55,593.10 171.60,607.00 167.46,615.62 C162.45,626.07 155.60,631.95 137.86,641.06 C120.76,649.84 110.44,656.63 101.39,665.27 L 110.96 655.50 L 95.73 654.29 C84.06,653.37 49.67,647.78 48.28,646.58 C48.15,646.47 48.97,641.01 50.08,634.44 C57.45,591.19 82.38,556.81 120.50,537.33 C133.07,530.91 139.49,526.17 144.92,519.31 C152.72,509.47 155.96,499.39 155.99,484.93 C156.00,475.02 154.30,468.35 149.31,458.81 C144.06,448.76 138.10,443.17 126.07,436.99 C94.32,420.68 71.34,393.89 60.54,360.58 C56.22,347.27 54.66,338.53 54.57,327.02 L 54.50 317.53 L 66.50 314.41 C79.05,311.14 81.45,310.45 81.90,308.71 ZM 247.58 375.72 C240.39,374.24 233.36,371.01 220.50,364.61 C183.16,346.01 172.60,343.19 132.19,341.02 C122.11,340.48 113.45,339.78 112.94,339.46 C112.42,339.14 112.00,338.36 112.00,337.72 C112.00,337.08 109.05,330.59 105.45,323.29 C99.93,312.09 98.18,309.47 94.31,306.51 C90.40,303.52 88.94,302.72 86.74,303.31 C88.83,302.74 90.18,303.41 93.55,305.86 C97.27,308.55 97.85,308.67 103.50,307.89 C115.15,306.28 157.36,305.73 181.11,306.88 C234.06,309.44 245.28,312.86 253.63,329.00 C256.09,333.77 256.47,335.63 256.49,343.00 C256.50,352.78 254.74,359.02 249.49,367.71 C247.58,370.90 246.00,374.03 246.00,374.67 C246.00,375.07 246.56,375.43 247.58,375.72 ZM 218.95 642.12 C214.16,639.66 210.02,637.37 208.09,636.06 C189.08,623.15 185.28,607.40 184.30,537.50 C184.28,536.19 184.26,534.90 184.25,533.64 L 188.04 538.55 C192.37,544.16 200.56,551.72 219.24,567.35 C244.53,588.50 251.60,600.77 245.99,613.80 C243.02,620.70 233.70,629.33 223.60,634.53 C219.29,636.74 215.75,638.99 215.73,639.53 C215.70,640.09 216.08,640.58 218.95,642.12 ZM 79.92 624.75 C81.60,627.41 82.61,628.00 85.47,628.00 C90.97,628.00 98.13,624.77 106.37,618.56 C118.61,609.35 125.69,600.26 133.58,583.59 C137.78,574.74 141.95,561.14 141.98,556.22 C142.01,552.61 139.87,552.66 131.95,556.46 C127.88,558.41 123.73,560.00 122.72,560.00 C120.04,560.00 109.28,565.55 103.48,569.93 C94.80,576.48 87.04,588.03 81.95,601.99 C77.87,613.15 77.22,620.47 79.92,624.75 ZM 336.66 451.33 C335.84,444.51 333.63,440.89 328.72,438.35 L 325.61 436.75 L 329.12 434.94 C334.18,432.35 335.03,430.94 336.43,422.79 L 337.69 415.50 L 338.46 421.00 C339.61,429.28 341.34,432.61 345.62,434.81 L 349.39 436.75 L 346.44 438.27 C341.65,440.75 340.05,443.29 338.69,450.59 L 337.39 457.50 ZM 270.35 675.52 L 268.64 673.19 C266.73,670.59 263.60,667.49 259.99,664.50 C263.77,667.46 266.69,670.40 268.81,673.37 L 270.35 675.52 ZM 184.92 486.83 C185.61,478.09 186.80,472.93 188.62,469.20 C190.44,465.45 193.78,461.08 198.16,456.55 C193.78,461.08 190.44,465.45 188.62,469.20 C186.86,472.83 185.66,478.43 184.92,486.83 ZM 84.61 304.13 C83.16,304.80 82.53,305.48 81.96,308.38 C81.99,308.13 82.00,307.86 82.00,307.55 C82.00,306.13 82.92,304.90 84.55,304.16 C84.57,304.15 84.59,304.14 84.61,304.13 ZM 95.13 671.66 L 89.10 678.00 L 88.92 678.00 L 95.13 671.66 ZM 287.00 376.56 C286.93,376.29 282.80,376.22 276.97,376.36 C282.75,376.15 287.00,376.20 287.00,376.52 C287.00,376.53 287.00,376.54 287.00,376.56 ZM 259.36 376.81 C257.53,376.80 255.83,376.74 254.22,376.62 C255.76,376.72 257.48,376.78 259.36,376.81 Z" fill="rgba(106,141,254,1)"/>
<path d="M 77.61 166.72 C77.95,166.39 78.10,159.55 78.10,152.23 C78.53,164.13 80.47,174.92 84.03,184.91 C83.05,182.51 82.29,180.38 81.85,178.76 C80.41,173.35 80.84,173.51 65.50,172.50 C55.34,171.83 37.39,169.39 31.75,167.91 C30.52,167.58 29.53,167.15 28.88,166.67 C29.62,166.09 31.08,164.77 32.66,163.25 C38.88,157.27 74.25,134.00 77.13,134.00 C77.16,134.00 77.20,134.03 77.23,134.10 C74.05,134.47 43.17,154.37 36.00,160.78 L 31.50 164.80 L 35.00 165.45 C45.38,167.40 76.02,168.31 77.61,166.72 ZM 306.67 106.88 C316.20,101.87 324.00,97.38 324.00,96.91 C324.00,95.59 316.21,93.60 305.91,91.94 C309.70,92.50 313.04,93.06 315.27,93.54 C319.25,94.39 323.31,95.26 324.31,95.46 C324.65,95.54 324.92,95.57 325.10,95.56 C325.31,96.15 325.21,96.61 324.95,97.09 C323.57,99.67 309.65,109.98 298.01,117.04 C290.65,121.51 289.10,122.86 289.50,124.50 C289.75,125.53 290.00,126.94 290.24,128.76 C288.76,120.41 286.45,112.07 283.61,104.91 C285.03,108.14 286.36,111.47 287.33,114.25 C287.66,115.21 288.25,116.00 288.64,116.00 C289.02,116.00 297.14,111.90 306.67,106.88 ZM 293.59 181.15 C293.40,177.70 293.22,174.55 293.06,172.00 C292.59,164.60 292.19,155.87 292.05,150.48 C292.52,158.19 293.00,167.63 293.50,179.00 C293.53,179.73 293.56,180.44 293.59,181.15 ZM 315.51 85.87 C314.05,84.61 312.41,83.19 310.57,81.60 C297.56,70.39 285.60,60.95 273.80,52.76 C286.57,61.58 299.40,71.77 313.27,83.90 C314.06,84.60 314.81,85.25 315.51,85.87 ZM 94.12 205.09 C96.93,209.36 100.12,213.50 103.71,217.55 C100.50,213.97 97.54,210.37 96.03,208.12 C95.42,207.21 94.78,206.19 94.12,205.09 ZM 99.08 49.00 C89.38,60.58 79.70,74.04 69.27,90.59 C79.74,73.89 89.02,61.00 99.08,49.00 ZM 278.73 89.00 C280.78,89.00 284.77,89.34 289.46,89.84 C287.82,89.69 286.19,89.55 284.57,89.43 L 278.73 89.00 ZM 30.11 160.43 C28.95,162.91 28.28,164.61 28.04,165.66 C28.01,165.56 28.00,165.47 28.00,165.37 C28.00,164.96 28.78,163.18 30.11,160.43 ZM 276.65 91.53 L 274.86 89.00 L 275.04 89.00 L 276.65 91.53 ZM 296.39 229.72 C296.38,229.71 296.37,229.70 296.35,229.69 C296.33,229.66 296.31,229.61 296.28,229.52 C296.32,229.60 296.36,229.67 296.39,229.72 Z" fill="rgba(111,79,119,1)"/>
<path d="M 11.88 730.21 C8.55,728.47 5.40,725.80 3.52,723.12 C0.62,719.00 0.49,718.36 0.17,706.53 C-0.19,692.93 0.84,689.33 6.66,683.80 C12.63,678.14 13.73,678.00 53.02,678.00 L 89.10 678.00 L 92.64 674.28 C92.30,674.67 92.04,675.00 91.86,675.25 L 89.86 678.00 L 272.12 678.00 L 270.35 675.52 L 272.17 678.00 L 296.84 678.00 L 297.93 674.71 C305.91,650.53 301.50,623.19 284.84,593.62 C268.35,564.33 261.17,557.10 230.59,538.97 C224.59,535.41 217.59,530.47 215.03,528.00 C202.29,515.68 198.53,491.14 205.97,468.92 C211.59,452.16 217.65,445.62 238.29,434.04 C253.12,425.73 261.33,419.56 270.38,409.94 C287.65,391.57 300.07,365.83 304.53,339.12 C306.45,327.61 306.20,309.21 304.00,300.76 L 302.77 296.02 L 161.47 295.76 L 20.17 295.50 L 15.89 292.49 C13.30,290.67 10.60,287.52 9.05,284.52 C6.79,280.12 6.50,278.36 6.50,269.00 C6.50,259.64 6.79,257.88 9.05,253.48 C10.60,250.48 13.30,247.33 15.89,245.51 L 20.17 242.50 L 42.12 242.20 L 64.07 241.89 L 64.08 241.94 L 51.29 242.22 L 38.50 242.50 L 52.00 249.28 C65.81,256.21 83.08,262.39 97.75,265.65 L 106.00 267.48 L 107.50 271.99 C109.31,277.40 115.60,285.99 119.03,287.72 C120.39,288.41 122.40,288.97 123.50,288.96 C126.74,288.95 133.11,285.61 138.89,280.90 C141.86,278.48 145.34,275.68 146.64,274.67 C148.74,273.04 151.00,272.85 167.74,272.95 C214.37,273.22 269.09,263.96 315.51,247.95 C331.01,242.61 331.87,242.07 324.86,242.03 C323.93,242.03 323.15,242.02 322.49,242.00 L 334.65 242.00 C348.10,242.00 350.58,242.26 354.00,244.00 C362.18,248.17 366.89,257.31 366.89,269.00 C366.89,280.69 362.18,289.83 354.00,294.00 C350.53,295.77 348.10,296.00 332.79,296.00 L 315.50 296.00 L 315.85 315.24 C316.24,336.87 315.34,344.65 310.79,359.00 C304.49,378.89 293.87,396.77 279.77,411.25 C268.51,422.80 256.97,431.04 241.44,438.62 C227.06,445.63 221.37,450.33 215.53,460.00 C209.85,469.40 208.65,474.15 208.57,487.50 C208.51,497.24 208.92,500.82 210.71,506.54 C214.81,519.55 223.25,528.50 239.31,536.86 C243.61,539.10 250.36,543.05 254.31,545.64 C263.76,551.84 282.33,570.46 288.99,580.41 C305.76,605.48 313.79,636.51 311.04,665.56 C310.47,671.58 310.00,676.81 310.00,677.19 C310.00,677.56 317.80,678.01 327.33,678.19 C344.33,678.49 344.73,678.55 348.82,681.26 C351.11,682.78 354.22,685.89 355.74,688.18 C358.23,691.94 358.53,693.36 358.85,702.88 C359.05,709.02 358.71,715.02 358.04,717.27 C356.50,722.41 350.53,728.84 345.17,731.14 C341.00,732.93 334.57,733.00 179.03,733.00 L 17.23 733.00 ZM 78.20 154.54 C78.07,152.05 78.00,149.51 78.00,146.93 C78.00,139.82 77.61,134.00 77.13,134.00 C74.25,134.00 38.88,157.27 32.66,163.25 C30.52,165.31 28.59,167.00 28.38,167.00 C26.86,167.00 29.20,161.57 37.09,146.78 C61.47,101.08 80.22,71.51 99.08,49.00 C114.89,30.14 146.32,1.00 150.85,1.00 C151.88,1.00 155.87,1.93 161.19,3.32 C160.73,3.24 160.45,3.22 160.40,3.27 C160.27,3.39 164.71,7.10 170.27,11.50 C182.68,21.33 201.73,39.50 207.53,47.04 C209.90,50.12 213.26,55.05 215.00,57.99 C218.05,63.17 224.84,78.64 225.49,81.90 C225.67,82.78 226.13,84.74 226.51,86.25 C226.95,87.96 226.82,89.00 226.16,89.00 C222.88,89.00 199.59,92.41 188.00,94.58 C150.21,101.67 121.39,110.65 93.43,124.03 L 83.00 129.03 L 83.01 133.26 C83.02,142.25 89.55,163.26 96.77,177.54 C108.37,200.48 131.77,219.14 157.53,225.97 C191.08,234.88 231.21,221.75 253.00,194.75 C271.35,172.00 277.50,134.24 268.50,99.61 C266.42,91.59 265.82,89.60 266.42,89.12 C266.68,88.92 267.16,89.00 267.85,89.00 C271.08,89.00 274.63,104.99 275.61,124.00 C277.23,155.35 270.35,178.11 252.97,198.86 C239.31,215.17 218.18,227.04 196.93,230.36 C174.63,233.85 166.96,234.32 159.37,232.69 C137.01,227.88 113.61,211.54 99.18,190.67 C91.44,179.47 85.43,166.13 81.75,152.00 L 78.50 139.50 L 78.21 149.42 C78.16,151.13 78.16,152.84 78.20,154.54 ZM 132.50 419.16 C134.15,420.17 135.95,420.85 136.50,420.67 C139.37,419.74 137.52,407.71 131.58,388.75 C129.97,383.61 130.44,383.14 134.88,385.44 C140.51,388.35 161.56,395.08 171.16,397.03 C185.63,399.98 201.29,399.80 217.63,396.50 C242.73,391.43 268.50,383.89 278.58,378.66 L 283.15 376.29 C285.55,376.31 287.00,376.40 287.00,376.56 C287.00,378.56 280.16,389.47 274.98,395.72 C264.14,408.81 248.34,421.44 226.50,434.48 C209.14,444.84 193.49,459.18 188.62,469.20 C184.62,477.40 183.67,492.54 184.30,537.50 C185.28,607.40 189.08,623.15 208.09,636.06 C210.82,637.91 217.97,641.73 225.15,645.20 C218.47,642.28 218.18,643.23 217.56,646.51 C215.91,655.34 203.48,663.32 185.24,667.27 C170.70,670.42 145.72,670.18 126.00,666.70 C118.03,665.29 110.21,663.65 108.64,663.05 C106.14,662.10 105.95,661.75 107.08,660.23 C107.09,660.23 107.09,660.22 107.10,660.21 C114.91,653.80 124.23,648.06 137.86,641.06 C155.60,631.95 162.45,626.07 167.46,615.62 C171.60,607.00 174.55,593.10 175.96,575.60 C177.37,558.12 177.32,488.61 175.90,481.96 C174.44,475.15 164.77,460.79 155.00,450.93 C150.14,446.03 142.39,439.99 133.00,433.79 C117.80,423.77 107.82,415.50 92.00,399.81 C81.92,389.82 77.95,384.03 72.38,371.14 C69.94,365.50 66.41,352.75 65.37,346.71 C65.49,346.69 65.64,346.54 65.82,346.25 C66.40,345.34 68.57,346.38 73.80,350.06 C77.75,352.85 81.40,354.87 81.91,354.56 C82.42,354.24 83.56,356.17 84.45,358.85 C86.80,365.92 90.59,371.43 105.65,389.66 C122.39,409.93 128.66,416.82 132.50,419.16 ZM 364.66 195.81 C363.45,181.97 360.58,176.67 352.50,173.35 C350.03,172.33 348.01,171.27 348.01,171.00 C348.01,170.73 350.03,169.67 352.50,168.65 C360.58,165.33 363.45,160.03 364.66,146.19 C365.33,138.55 366.96,138.09 366.98,145.54 C367.01,151.97 369.84,161.23 372.71,164.21 C374.14,165.71 377.26,167.73 379.65,168.71 C384.76,170.82 385.06,171.61 381.05,172.49 C379.43,172.84 376.28,174.79 374.06,176.82 C370.87,179.72 369.69,181.76 368.50,186.46 C367.68,189.74 366.99,194.24 366.98,196.46 C366.96,203.91 365.33,203.45 364.66,195.81 ZM 234.31 649.52 C240.95,652.66 247.02,655.66 249.00,656.80 C252.88,659.02 256.98,661.95 260.55,664.97 C254.88,660.42 247.21,655.79 237.50,651.07 C236.37,650.52 235.31,650.00 234.31,649.52 ZM 109.16 223.30 C97.27,211.47 88.99,198.91 83.97,184.74 C89.11,198.73 97.59,211.79 109.16,223.30 ZM 246.78 375.55 C253.32,377.02 259.80,376.99 270.75,376.56 C273.01,376.47 275.17,376.40 277.14,376.35 L 269.00 376.66 C259.17,377.03 253.06,376.99 246.78,375.55 ZM 65.09 344.48 C65.05,343.93 65.09,343.58 65.21,343.46 C65.44,343.22 68.76,342.69 72.57,342.27 L 78.14 341.65 C78.09,341.66 78.05,341.67 78.00,341.68 C77.18,341.79 73.91,342.16 70.75,342.51 C66.55,342.97 65.36,343.29 65.09,344.48 ZM 190.64 11.86 C192.91,12.59 194.91,13.25 196.50,13.83 C201.64,15.68 206.57,17.55 211.35,19.46 C206.57,17.55 201.63,15.69 196.50,13.84 C194.87,13.26 192.87,12.58 190.64,11.86 ZM 63.45 238.60 C63.06,236.50 63.37,233.50 64.07,230.91 C63.37,233.49 63.06,236.49 63.45,238.60 Z" fill="rgba(246,169,247,1)"/>
<path d="M 127.30 340.74 C119.68,340.33 113.61,340.03 112.87,340.02 C111.57,340.00 112.62,343.52 118.14,357.57 C129.82,387.33 138.46,418.00 135.15,418.00 C134.56,418.00 132.40,416.54 130.37,414.75 C125.87,410.80 94.33,373.09 90.85,367.50 C87.35,361.88 82.85,350.19 82.53,345.86 C82.18,341.21 81.16,339.44 79.69,340.91 C79.09,341.51 77.23,342.00 75.55,342.01 C75.42,342.01 75.28,342.01 75.14,342.02 C76.51,341.86 77.58,341.73 78.00,341.68 C79.18,341.52 79.54,339.67 79.71,332.99 C79.82,328.32 80.43,320.16 81.06,314.87 C82.09,306.15 82.43,305.13 84.64,304.12 C88.32,302.44 89.30,302.69 94.31,306.51 C98.18,309.47 99.93,312.09 105.45,323.29 C109.05,330.59 112.00,337.08 112.00,337.72 C112.00,338.36 112.42,339.14 112.94,339.46 C113.36,339.72 119.45,340.26 127.30,340.74 ZM 79.92 624.75 C77.22,620.47 77.87,613.15 81.95,601.99 C87.04,588.03 94.80,576.48 103.48,569.93 C109.28,565.55 120.04,560.00 122.72,560.00 C123.73,560.00 127.88,558.41 131.95,556.46 C139.87,552.66 142.01,552.61 141.98,556.22 C141.95,561.14 137.78,574.74 133.58,583.59 C125.69,600.26 118.61,609.35 106.37,618.56 C98.13,624.77 90.97,628.00 85.47,628.00 C82.61,628.00 81.60,627.41 79.92,624.75 ZM 153.60 154.69 C152.50,153.89 151.94,152.45 152.16,150.94 C152.38,149.33 152.87,148.71 154.35,148.55 C154.13,148.76 154.00,149.05 154.00,149.43 C154.00,150.29 154.45,151.00 155.00,151.00 C155.55,151.00 155.95,151.34 155.88,151.75 C155.82,152.16 155.82,153.39 155.88,154.47 C155.93,155.35 155.98,155.82 156.24,155.85 C155.53,156.01 154.83,155.60 153.60,154.69 ZM 223.93 145.40 C225.66,141.52 224.83,136.97 221.60,133.64 C222.44,134.45 223.13,135.29 223.51,136.01 C224.36,137.65 225.49,139.00 226.03,139.00 C226.56,139.00 227.00,139.43 227.00,139.96 C227.00,140.76 225.60,143.11 223.93,145.40 ZM 158.98 153.41 C158.86,153.59 158.71,153.76 158.55,153.94 C157.70,154.88 157.12,155.47 156.59,155.73 C156.93,155.51 157.44,155.00 158.24,154.21 C158.52,153.92 158.77,153.66 158.98,153.41 ZM 66.20 343.31 C65.32,343.73 65.02,344.33 65.02,345.31 C65.01,344.28 65.21,343.71 66.20,343.31 ZM 158.73 149.45 C159.12,149.75 159.40,150.12 159.56,150.54 C159.51,150.44 159.45,150.34 159.38,150.24 C159.20,149.95 158.98,149.68 158.73,149.45 ZM 216.62 151.54 C217.35,151.38 218.05,151.15 218.67,150.86 C218.07,151.15 217.37,151.38 216.62,151.54 Z" fill="rgba(254,254,254,1)"/>
<path d="M 289.00 83.94 C296.88,85.10 300.00,85.13 300.00,84.06 C300.00,82.96 279.53,64.63 271.86,58.87 C259.50,49.59 228.16,31.26 200.50,17.12 C194.19,13.90 189.39,11.70 184.48,9.90 C189.11,11.34 193.46,12.76 196.50,13.84 C241.32,29.93 271.18,47.66 310.57,81.60 C314.68,85.14 317.77,87.83 320.04,89.85 C318.86,88.95 317.81,88.35 317.26,88.31 C316.29,88.25 313.14,87.87 310.25,87.46 C307.30,87.04 305.01,87.11 305.03,87.61 C305.12,89.96 307.49,91.61 313.23,93.13 C303.91,91.40 284.14,89.00 278.69,89.00 L 274.86 89.00 L 276.80 91.75 C277.12,92.20 277.44,92.68 277.76,93.17 C275.98,90.66 274.20,89.08 272.52,88.76 C271.49,88.56 270.82,88.42 270.47,88.70 C269.99,89.07 270.11,90.19 270.76,92.95 C269.81,90.43 268.82,89.00 267.85,89.00 C267.16,89.00 266.68,88.92 266.42,89.12 C265.82,89.60 266.42,91.59 268.50,99.61 C271.05,109.40 272.38,119.43 272.57,129.30 C272.50,126.60 272.34,123.89 272.10,121.18 C270.95,108.61 267.69,93.99 265.19,90.17 L 263.65 87.81 L 244.57 88.47 C229.93,88.97 218.14,89.90 205.82,91.63 C215.23,90.20 224.21,89.00 226.16,89.00 C226.82,89.00 226.95,87.96 226.51,86.25 C226.13,84.74 225.67,82.78 225.49,81.90 C225.00,79.45 221.03,70.07 217.80,63.38 C219.40,66.55 220.94,69.95 222.47,73.69 C224.54,78.74 226.74,83.04 227.37,83.25 C227.99,83.45 234.80,83.24 242.50,82.78 C256.74,81.93 279.05,82.48 289.00,83.94 ZM 162.04 233.17 C156.75,232.48 151.52,230.86 144.84,228.08 C131.81,222.65 120.10,214.43 110.23,204.05 C124.14,218.34 142.07,228.97 159.37,232.69 C160.25,232.88 161.13,233.04 162.04,233.17 ZM 274.07 107.77 C276.22,120.60 276.52,134.38 274.93,148.79 C274.11,156.32 272.28,163.74 269.59,170.83 C274.66,157.22 276.54,142.03 275.61,124.00 C275.31,118.18 274.77,112.65 274.07,107.77 ZM 253.00 194.75 C242.19,208.14 226.87,218.12 210.08,223.69 C226.91,218.03 242.32,207.97 253.00,194.75 ZM 292.00 147.37 C292.00,136.45 289.66,123.51 286.31,112.58 C289.79,123.71 292.00,136.44 292.00,147.37 ZM 161.31 226.88 C160.04,226.61 158.78,226.30 157.53,225.97 C151.56,224.39 145.72,222.17 140.12,219.41 C146.87,222.72 154.00,225.25 161.31,226.88 ZM 222.90 222.05 C218.76,224.12 214.81,225.75 210.45,227.11 C214.69,225.73 218.86,224.03 222.90,222.05 ZM 160.40 3.27 C160.58,3.09 163.61,3.82 167.93,5.02 C163.57,3.90 160.49,3.17 160.40,3.27 ZM 241.97 209.75 C237.94,213.13 233.62,216.15 229.06,218.76 C233.62,216.10 237.96,213.08 241.97,209.75 ZM 260.79 188.30 C258.61,191.70 256.22,194.96 253.63,198.06 C256.26,194.86 258.64,191.62 260.79,188.30 ZM 323.36 92.89 C324.33,93.82 324.91,94.45 325.19,94.87 C324.73,94.35 324.10,93.66 323.36,92.89 ZM 211.71 52.87 C210.30,50.80 208.80,48.69 207.55,47.07 C209.02,48.98 210.40,50.90 211.71,52.87 Z" fill="rgba(218,181,231,1)"/>
<path d="M 289.00 83.94 C279.05,82.48 256.74,81.93 242.50,82.78 C234.80,83.24 227.99,83.45 227.37,83.25 C226.74,83.04 224.54,78.74 222.47,73.69 C218.04,62.88 213.54,54.85 207.55,47.07 C201.73,39.50 182.70,21.35 170.27,11.50 C164.71,7.10 160.27,3.39 160.40,3.27 C160.53,3.14 166.45,4.59 173.57,6.50 C183.44,9.15 189.81,11.66 200.50,17.12 C228.16,31.26 259.50,49.59 271.86,58.87 C279.53,64.63 300.00,82.96 300.00,84.06 C300.00,85.13 296.88,85.10 289.00,83.94 ZM 282.00 236.47 C282.00,233.43 282.70,221.91 283.56,210.88 C283.61,210.25 283.66,209.62 283.70,209.00 C283.65,209.73 283.60,210.47 283.54,211.21 C282.60,224.02 281.98,236.30 282.16,238.50 C282.46,242.06 282.88,242.63 286.00,243.69 C289.78,244.98 311.85,245.27 316.00,244.09 C318.09,243.49 318.48,242.79 318.40,239.82 C318.36,238.50 318.08,237.22 317.59,236.02 C318.09,236.94 318.44,237.85 318.60,238.68 C319.22,241.97 319.27,242.00 324.86,242.03 C331.87,242.07 331.01,242.61 315.51,247.95 C269.09,263.96 214.37,273.22 167.74,272.95 C152.07,272.86 149.08,273.02 147.04,274.38 C161.21,262.94 167.55,260.83 195.00,254.99 C214.03,250.94 220.38,248.98 230.64,243.99 C239.73,239.58 248.11,233.98 255.53,227.46 C251.57,231.01 247.38,234.25 243.05,237.10 L 235.59 242.00 L 282.00 242.00 ZM 106.88 270.11 L 106.00 267.48 L 97.75 265.65 C83.08,262.39 65.81,256.21 52.00,249.28 L 38.50 242.50 L 51.29 242.22 L 64.06 241.94 C65.22,246.87 67.72,251.59 71.05,254.39 C75.99,258.55 82.37,257.84 96.00,251.60 C112.12,244.23 116.73,242.99 127.84,243.05 C136.38,243.09 138.12,243.41 142.83,245.86 L 148.16 248.62 L 141.65 252.83 C138.06,255.15 133.36,259.05 131.20,261.51 L 127.27 265.98 L 123.62 260.07 C116.59,248.67 110.29,246.04 106.69,253.00 C104.77,256.69 104.87,263.28 106.88,270.11 ZM 194.34 230.72 C209.24,228.30 217.42,225.28 228.50,219.07 C253.83,204.88 271.75,177.75 274.93,148.79 C276.94,130.56 275.94,113.34 271.97,97.78 C270.33,91.36 269.78,89.24 270.47,88.70 C270.82,88.42 271.49,88.56 272.52,88.76 C272.74,88.80 272.97,88.87 273.19,88.95 C272.57,89.03 272.38,89.78 273.01,91.25 C273.53,92.49 274.85,98.00 275.92,103.50 C281.13,130.18 278.71,158.38 269.56,177.69 C258.19,201.69 236.51,220.95 212.00,228.80 C204.13,231.33 201.88,231.69 200.27,230.68 C199.67,230.30 197.12,230.33 194.34,230.72 ZM 81.75 152.00 C87.00,172.19 96.94,190.07 110.23,204.05 C106.17,199.88 102.44,195.39 99.18,190.67 C91.44,179.47 85.43,166.13 81.75,152.00 ZM 170.86 233.52 C172.79,233.45 174.82,233.28 177.00,233.03 C183.09,232.34 188.29,231.67 192.87,230.96 C183.72,232.51 176.61,233.35 170.86,233.52 ZM 277.76 93.17 C280.80,97.46 283.83,104.47 286.31,112.58 C283.95,105.02 281.00,98.20 277.76,93.17 ZM 281.72 192.34 C283.26,189.29 284.53,187.20 284.76,187.42 C284.81,187.48 284.83,187.98 284.83,188.85 C284.82,188.77 284.82,188.71 284.81,188.66 C284.63,187.38 283.71,188.45 281.72,192.34 ZM 134.81 283.93 C131.26,286.34 127.81,288.08 125.29,288.71 C127.70,288.05 131.22,286.26 134.81,283.93 ZM 308.85 228.30 C309.06,228.32 309.24,228.35 309.40,228.39 C310.40,228.64 311.53,229.28 312.65,230.17 C312.23,229.89 311.79,229.62 311.34,229.37 C310.36,228.84 309.62,228.48 308.85,228.30 ZM 64.71 228.92 C65.23,227.60 65.84,226.55 66.49,226.00 C66.99,225.59 67.52,225.32 68.07,225.19 C66.74,225.55 65.60,226.79 64.71,228.92 ZM 63.53 239.03 L 63.46 238.63 C63.23,237.42 63.23,235.91 63.41,234.36 C63.29,235.86 63.34,237.44 63.53,239.03 ZM 294.89 208.75 C295.32,219.81 295.97,229.17 296.35,229.68 C296.34,229.67 296.33,229.67 296.33,229.66 C295.97,229.30 295.32,219.89 294.89,208.75 ZM 119.03 287.72 C116.73,286.56 113.15,282.32 110.49,278.02 C113.17,282.33 116.75,286.57 119.03,287.72 ZM 301.30 229.27 C301.54,229.21 301.80,229.15 302.05,229.08 C302.58,228.95 303.13,228.83 303.69,228.72 C303.34,228.80 302.98,228.89 302.58,228.98 C302.15,229.08 301.72,229.18 301.30,229.27 Z" fill="rgba(191,145,211,1)"/>
<path d="M 91.11 164.67 C86.46,152.65 83.02,139.79 83.01,133.26 L 83.00 129.03 L 93.43 124.03 C121.38,110.65 150.18,101.68 188.00,94.58 C207.81,90.86 223.14,89.20 244.57,88.47 L 263.65 87.81 L 265.19 90.17 C267.68,93.97 270.91,108.45 272.08,120.98 C271.66,118.32 271.01,116.55 270.13,116.09 C266.89,114.40 251.23,111.05 238.99,109.43 C222.26,107.22 193.84,107.95 179.80,110.95 C153.51,116.57 130.09,128.79 101.72,151.70 C94.70,157.37 91.52,159.53 90.98,162.21 C90.83,162.96 90.88,163.75 91.11,164.67 ZM 93.24 181.04 C92.25,179.30 91.30,177.54 90.40,175.75 C87.97,170.94 85.63,167.00 85.21,167.00 C84.79,167.00 83.47,167.68 82.29,168.51 C80.87,169.50 80.32,171.07 80.69,173.84 C78.81,165.89 77.97,157.72 78.21,149.42 L 78.50 139.50 L 81.75 152.00 C84.42,162.27 88.33,172.12 93.24,181.04 ZM 316.62 93.94 C308.40,92.17 305.13,90.38 305.03,87.61 C305.01,87.11 307.30,87.04 310.25,87.46 C313.14,87.87 316.29,88.25 317.26,88.31 C318.22,88.38 320.68,90.13 322.71,92.21 C324.74,94.30 326.20,95.97 325.95,95.93 C325.70,95.88 321.50,94.99 316.62,93.94 ZM 273.86 89.06 C273.73,89.02 273.61,89.00 273.49,89.00 C272.47,89.00 272.87,90.84 275.06,96.14 C277.58,102.26 283.00,118.22 283.00,119.54 C283.00,119.78 281.99,119.87 280.76,119.74 C278.63,119.51 278.53,119.79 278.84,125.59 C279.00,128.52 278.85,132.79 278.50,137.49 C278.97,126.42 278.13,114.82 275.92,103.50 C274.85,98.00 273.53,92.49 273.01,91.25 C272.19,89.34 272.76,88.65 273.86,89.06 ZM 118.13 204.76 C109.30,197.01 101.94,187.76 96.77,177.54 C95.57,175.17 94.39,172.61 93.26,169.95 C93.79,171.09 94.41,172.37 95.09,173.84 C100.59,185.71 108.51,196.20 118.13,204.76 ZM 159.37 232.69 C143.88,229.36 128.97,221.29 116.24,209.78 C129.10,221.16 144.47,229.49 159.37,232.69 ZM 292.00 147.37 C292.00,140.88 290.67,130.69 288.86,121.98 C290.83,130.52 292.00,139.42 292.00,147.37 ZM 265.25 173.18 C262.10,181.26 257.98,188.57 253.00,194.75 C257.37,189.33 261.94,181.15 265.25,173.18 ZM 275.64 159.64 C275.40,160.84 275.15,161.94 274.90,162.91 C272.40,172.73 268.00,182.20 261.88,191.01 C264.79,186.78 267.37,182.32 269.56,177.69 C272.12,172.29 274.15,166.20 275.64,159.64 ZM 272.59 134.67 C272.46,141.18 271.82,147.58 270.70,153.75 C271.74,147.45 272.38,140.70 272.59,134.67 ZM 237.72 215.70 C229.75,221.51 221.22,225.85 212.00,228.80 C221.09,225.89 229.79,221.41 237.72,215.70 ZM 281.03 99.04 C278.60,94.19 276.15,90.50 274.45,89.37 C275.17,89.82 276.00,90.62 276.80,91.75 C278.27,93.83 279.69,96.29 281.03,99.04 ZM 84.11 185.12 C85.39,188.44 86.75,191.58 88.22,194.59 C86.67,191.48 85.30,188.33 84.11,185.12 Z" fill="rgba(220,209,229,1)"/>
<path d="M 134.15 397.44 C127.98,376.66 115.13,342.18 112.59,340.10 C112.66,340.04 112.76,340.02 112.87,340.02 C113.77,340.03 122.60,340.48 132.50,341.02 C172.64,343.21 183.25,346.06 220.50,364.61 C244.13,376.37 248.43,377.44 269.00,376.66 L 283.50 376.11 L 278.58 378.66 C268.50,383.89 242.73,391.43 217.63,396.50 C201.29,399.80 185.63,399.98 171.16,397.03 C161.56,395.08 140.51,388.35 134.88,385.44 C130.44,383.14 129.97,383.61 131.58,388.75 C132.55,391.84 133.41,394.74 134.15,397.44 ZM 91.86 675.25 C92.95,673.74 97.12,669.35 101.12,665.50 C105.11,661.65 107.80,659.28 107.08,660.23 C105.95,661.75 106.14,662.10 108.64,663.05 C110.21,663.65 118.03,665.29 126.00,666.70 C145.72,670.18 170.70,670.42 185.24,667.27 C203.48,663.32 215.91,655.34 217.56,646.51 C218.44,641.85 218.66,641.90 237.50,651.07 C253.24,658.73 263.63,666.13 268.81,673.37 L 272.12 678.00 L 89.86 678.00 ZM 87.89 366.35 C86.28,363.63 85.28,361.33 84.45,358.85 C83.56,356.17 82.42,354.24 81.91,354.56 C81.40,354.87 77.75,352.85 73.80,350.06 C68.57,346.38 66.40,345.34 65.82,346.25 C65.29,347.09 65.03,346.81 65.02,345.38 C65.00,343.70 65.78,343.13 68.75,342.64 C70.81,342.30 73.87,342.02 75.55,342.01 C77.23,342.00 79.09,341.51 79.69,340.91 C79.86,340.74 80.02,340.61 80.18,340.53 C79.18,342.46 83.92,358.54 87.89,366.35 ZM 205.77 230.65 C196.83,232.98 187.30,234.15 177.17,234.17 C172.70,234.18 168.52,233.94 164.51,233.41 C171.27,233.92 180.21,233.12 193.27,230.89 C196.44,230.35 199.59,230.25 200.27,230.68 C201.34,231.35 202.69,231.41 205.77,230.65 ZM 123.27 215.62 C109.87,205.73 98.70,192.20 90.40,175.75 C98.49,191.78 109.96,205.49 123.27,215.62 ZM 112.37 340.92 C112.84,343.25 115.09,349.80 118.14,357.57 C114.11,347.31 112.46,342.67 112.37,340.92 ZM 108.10 392.63 C107.31,391.67 106.49,390.69 105.65,389.66 C99.58,382.31 95.34,377.03 92.28,372.87 C95.98,377.73 102.04,385.27 108.10,392.63 ZM 136.50 420.67 C137.50,420.34 137.89,417.88 137.71,414.40 C138.05,418.11 137.66,420.29 136.50,420.67 ZM 80.68 340.41 C81.57,340.47 82.20,342.15 82.48,345.33 C82.28,343.32 81.64,341.27 81.01,340.66 C80.89,340.55 80.78,340.46 80.68,340.41 ZM 132.50 419.16 C131.20,418.37 129.63,417.06 127.46,414.88 C129.48,416.83 131.42,418.50 132.50,419.16 ZM 212.14 228.76 C210.78,229.21 209.42,229.64 208.03,230.03 C209.17,229.70 210.48,229.29 212.00,228.80 C212.05,228.79 212.09,228.77 212.14,228.76 ZM 85.91 357.25 C87.44,361.08 89.25,364.93 90.85,367.50 C89.23,364.90 87.43,361.07 85.91,357.25 Z" fill="rgba(222,153,225,1)"/>
<path d="M 164.50 227.53 C134.19,221.93 107.99,201.67 95.09,173.84 C92.16,167.52 90.49,164.65 90.98,162.21 C91.52,159.53 94.70,157.37 101.72,151.70 C130.09,128.79 153.51,116.57 179.80,110.95 C193.84,107.95 222.26,107.22 238.99,109.43 C251.23,111.05 266.89,114.40 270.13,116.09 C273.99,118.11 273.31,145.01 268.95,162.32 C266.31,172.79 259.43,186.77 253.00,194.75 C232.90,219.66 195.96,233.34 164.50,227.53 ZM 119.03 287.72 C115.64,286.00 109.34,277.44 107.48,272.00 C104.91,264.52 104.60,257.03 106.69,253.00 C110.29,246.04 116.59,248.67 123.62,260.07 L 127.27 265.98 L 131.20 261.51 C133.36,259.05 138.06,255.15 141.65,252.83 L 148.16 248.62 L 142.83 245.86 C138.12,243.41 136.38,243.09 127.84,243.05 C116.73,242.99 112.12,244.23 96.00,251.60 C82.37,257.84 75.99,258.55 71.05,254.39 C65.23,249.49 61.92,238.72 63.94,231.23 C66.19,222.85 71.00,223.05 76.76,231.76 C82.35,240.22 83.79,240.63 94.59,236.83 C100.08,234.91 106.29,233.52 110.75,233.22 C114.74,232.96 118.00,232.59 118.00,232.42 C118.00,232.25 114.02,228.14 109.16,223.30 C97.01,211.21 89.38,199.38 83.50,183.51 C80.01,174.07 79.70,170.32 82.29,168.51 C83.47,167.68 84.79,167.00 85.21,167.00 C85.63,167.00 87.97,170.94 90.40,175.75 C99.69,194.17 112.59,208.93 128.18,219.01 C145.18,230.00 158.76,234.20 177.17,234.17 C206.43,234.12 230.73,224.42 250.08,205.08 C262.49,192.66 271.01,178.20 274.90,162.91 C277.21,153.87 279.29,134.09 278.84,125.59 C278.53,119.79 278.63,119.51 280.76,119.74 C281.99,119.87 283.00,119.78 283.00,119.54 C283.00,118.22 277.58,102.26 275.06,96.14 C272.87,90.84 272.47,89.00 273.49,89.00 C276.10,89.00 282.21,99.76 286.04,111.09 C289.10,120.14 292.00,137.79 292.00,147.37 C292.01,151.84 292.48,162.93 293.06,172.00 C293.64,181.07 294.46,197.61 294.89,208.75 C295.32,219.89 295.97,229.30 296.33,229.66 C296.69,230.03 299.51,229.72 302.58,228.98 C307.59,227.78 308.50,227.82 311.34,229.37 C315.68,231.75 318.28,235.59 318.40,239.82 C318.48,242.79 318.09,243.49 316.00,244.09 C311.85,245.27 289.78,244.98 286.00,243.69 C282.88,242.63 282.46,242.06 282.16,238.50 C281.98,236.30 282.60,224.02 283.54,211.21 C284.48,198.40 285.03,187.70 284.76,187.42 C284.48,187.15 282.61,190.39 280.60,194.62 C270.67,215.53 252.71,233.28 230.64,243.99 C220.38,248.98 214.03,250.94 195.00,254.99 C164.04,261.58 159.94,263.42 141.15,279.26 C134.95,284.48 126.76,289.01 123.55,288.99 C122.42,288.98 120.39,288.41 119.03,287.72 ZM 219.70 150.23 C222.12,148.32 227.00,141.46 227.00,139.96 C227.00,139.43 226.56,139.00 226.03,139.00 C225.49,139.00 224.36,137.65 223.51,136.01 C222.65,134.37 220.14,132.09 217.93,130.96 L 213.90 128.91 L 209.77 131.20 C207.50,132.47 204.79,135.05 203.74,136.94 C201.84,140.35 201.85,140.40 204.04,145.09 C205.26,147.68 207.21,150.27 208.38,150.84 C211.68,152.43 217.27,152.13 219.70,150.23 ZM 132.50 419.16 C130.85,418.15 127.16,414.77 124.31,411.65 C115.50,402.01 92.36,373.64 89.06,368.43 C84.38,361.06 77.50,337.30 81.01,340.66 C81.68,341.30 82.36,343.55 82.51,345.66 C82.85,350.16 87.29,361.78 90.85,367.50 C94.33,373.09 125.87,410.80 130.37,414.75 C132.40,416.54 134.56,418.00 135.15,418.00 C138.46,418.00 129.82,387.33 118.14,357.57 C114.31,347.82 111.75,340.00 112.38,340.00 C114.55,340.00 131.14,385.05 136.09,404.37 C138.13,412.34 138.33,420.08 136.50,420.67 C135.95,420.85 134.15,420.17 132.50,419.16 ZM 156.36 164.62 C167.63,159.91 165.66,144.09 153.80,144.02 C148.35,143.99 145.10,145.89 142.94,150.35 C141.03,154.32 141.03,154.32 143.27,158.41 C144.59,160.82 146.95,163.22 149.01,164.25 C151.15,165.32 151.97,165.83 152.81,165.85 C153.61,165.87 154.41,165.44 156.36,164.62 ZM 190.29 163.74 C195.73,161.44 198.00,158.80 198.00,154.78 C198.00,151.12 194.50,150.86 193.60,154.45 C193.00,156.86 184.70,162.00 181.42,162.00 C180.64,162.00 180.00,162.82 180.00,163.83 C180.00,167.56 181.29,167.55 190.29,163.74 ZM 214.50 141.63 C211.89,139.71 212.91,135.57 216.09,135.20 C219.46,134.81 221.51,137.17 220.10,139.82 C218.70,142.44 216.56,143.13 214.50,141.63 ZM 155.88 154.47 C155.82,153.39 155.82,152.16 155.88,151.75 C155.95,151.34 155.55,151.00 155.00,151.00 C154.45,151.00 154.00,150.29 154.00,149.43 C154.00,147.34 157.94,147.93 159.38,150.24 C160.25,151.61 160.01,152.44 158.24,154.21 C156.09,156.35 156.00,156.37 155.88,154.47 Z" fill="rgba(253,250,251,1)"/>
<path d="M 19.75 405.42 C19.34,405.01 19.00,402.96 19.00,400.88 C19.00,395.27 17.04,386.92 14.88,383.37 C13.80,381.59 10.64,379.01 7.55,377.39 L 2.12 374.55 L 7.57 371.62 C10.58,370.00 13.87,367.31 14.90,365.60 C17.06,362.05 19.00,353.70 19.00,348.01 C19.00,345.87 19.45,343.84 20.00,343.50 C20.60,343.13 21.00,344.44 21.00,346.80 C21.00,352.56 22.77,360.94 24.83,364.91 C26.03,367.21 28.54,369.43 32.33,371.53 L 38.03 374.68 L 34.10 376.45 C29.11,378.71 24.55,383.50 23.11,388.03 C22.50,389.97 21.65,394.85 21.24,398.87 C20.84,402.89 20.16,405.84 19.75,405.42 Z" fill="rgba(254,232,91,1)"/>
</g>
</svg>