<svg width="56" height="56" viewBox="0 0 56 56" fill="none" xmlns="http://www.w3.org/2000/svg">
<rect width="56" height="56" rx="28" fill="#1E1E1E"/>
<path d="M29.1666 21C29.1666 20.3557 28.6443 19.8334 28 19.8334C27.3556 19.8334 26.8333 20.3557 26.8333 21V26.8334H21C20.3556 26.8334 19.8333 27.3557 19.8333 28C19.8333 28.6444 20.3556 29.1667 21 29.1667H26.8333V35C26.8333 35.6444 27.3556 36.1667 28 36.1667C28.6443 36.1667 29.1666 35.6444 29.1666 35V29.1667H35C35.6443 29.1667 36.1666 28.6444 36.1666 28C36.1666 27.3557 35.6443 26.8334 35 26.8334H29.1666V21Z" fill="#155EEF"/>
</svg>
