<svg width="79" height="78" viewBox="0 0 79 78" fill="none" xmlns="http://www.w3.org/2000/svg">
<g filter="url(#filter0_bd_133_145)">
<path d="M15.3333 24.6C15.3333 19.2981 19.6314 15 24.9333 15H53.7333C59.0352 15 63.3333 19.2981 63.3333 24.6V53.4C63.3333 58.7019 59.0352 63 53.7333 63H24.9333C19.6314 63 15.3333 58.7019 15.3333 53.4V24.6Z" fill="url(#paint0_linear_133_145)" fill-opacity="0.9" shape-rendering="crispEdges"/>
<path d="M15.3333 24.6C15.3333 19.2981 19.6314 15 24.9333 15H53.7333C59.0352 15 63.3333 19.2981 63.3333 24.6V53.4C63.3333 58.7019 59.0352 63 53.7333 63H24.9333C19.6314 63 15.3333 58.7019 15.3333 53.4V24.6Z" stroke="url(#paint1_linear_133_145)" stroke-opacity="0.4" stroke-width="1.2" shape-rendering="crispEdges"/>
<path fill-rule="evenodd" clip-rule="evenodd" d="M30.7331 44.6624C31.049 44.1008 31.7604 43.9016 32.322 44.2175L39.3333 48.1614L46.3447 44.2175C46.9063 43.9016 47.6176 44.1008 47.9335 44.6624C48.2494 45.2239 48.0502 45.9353 47.4886 46.2512L39.9053 50.5168C39.5501 50.7166 39.1165 50.7166 38.7613 50.5168L31.178 46.2512C30.6164 45.9353 30.4173 45.2239 30.7331 44.6624Z" fill="#C2D5DF"/>
<path fill-rule="evenodd" clip-rule="evenodd" d="M40.3581 29.0764C40.674 28.5148 41.3854 28.3157 41.9469 28.6316L49.2386 32.7331C49.606 32.9398 49.8333 33.3285 49.8333 33.75V42.5C49.8333 43.1443 49.311 43.6666 48.6666 43.6666C48.0223 43.6666 47.5 43.1443 47.5 42.5V34.4323L40.803 30.6652C40.2414 30.3493 40.0423 29.638 40.3581 29.0764Z" fill="#C2D5DF"/>
<path fill-rule="evenodd" clip-rule="evenodd" d="M38.3085 29.0764C38.6244 29.638 38.4252 30.3493 37.8636 30.6652L31.1666 34.4323V42.5C31.1666 43.1443 30.6443 43.6666 30 43.6666C29.3556 43.6666 28.8333 43.1443 28.8333 42.5V33.75C28.8333 33.3285 29.0607 32.9398 29.428 32.7331L36.7197 28.6316C37.2813 28.3157 37.9926 28.5148 38.3085 29.0764Z" fill="#C2D5DF"/>
<path fill-rule="evenodd" clip-rule="evenodd" d="M38.7455 33.9089C39.1087 33.697 39.5579 33.697 39.9212 33.9089L43.4212 35.9506C43.7796 36.1596 44 36.5433 44 36.9583V41.0416C44 41.4566 43.7796 41.8403 43.4212 42.0494L39.9212 44.091C39.5579 44.3029 39.1087 44.3029 38.7455 44.091L35.2455 42.0494C34.887 41.8403 34.6666 41.4566 34.6666 41.0416V36.9583C34.6666 36.5433 34.887 36.1596 35.2455 35.9506L38.7455 33.9089ZM39.3333 36.2673L37 37.6284V40.3715L39.3333 41.7326L41.6666 40.3715V37.6284L39.3333 36.2673Z" fill="#C2D5DF"/>
<path fill-rule="evenodd" clip-rule="evenodd" d="M39.3333 29.6666C39.9776 29.6666 40.5 30.189 40.5 30.8333V34.9166C40.5 35.561 39.9776 36.0833 39.3333 36.0833C38.689 36.0833 38.1666 35.561 38.1666 34.9166V30.8333C38.1666 30.189 38.689 29.6666 39.3333 29.6666Z" fill="#C2D5DF"/>
<path fill-rule="evenodd" clip-rule="evenodd" d="M41.8204 40.1711C42.14 39.6117 42.8527 39.4173 43.4121 39.737L47.4955 42.0703C48.0549 42.39 48.2493 43.1027 47.9296 43.6621C47.6099 44.2216 46.8973 44.4159 46.3378 44.0962L42.2545 41.7629C41.695 41.4432 41.5007 40.7306 41.8204 40.1711Z" fill="#C2D5DF"/>
<path fill-rule="evenodd" clip-rule="evenodd" d="M36.8463 40.1711C37.1659 40.7306 36.9716 41.4432 36.4121 41.7629L32.3288 44.0962C31.7694 44.4159 31.0567 44.2216 30.737 43.6621C30.4174 43.1027 30.6117 42.39 31.1712 42.0703L35.2545 39.737C35.8139 39.4173 36.5266 39.6117 36.8463 40.1711Z" fill="#C2D5DF"/>
<path fill-rule="evenodd" clip-rule="evenodd" d="M39.3333 28.5C39.0111 28.5 38.75 28.7611 38.75 29.0833C38.75 29.4055 39.0111 29.6666 39.3333 29.6666C39.6555 29.6666 39.9166 29.4055 39.9166 29.0833C39.9166 28.7611 39.6555 28.5 39.3333 28.5ZM36.4166 29.0833C36.4166 27.4725 37.7225 26.1666 39.3333 26.1666C40.9441 26.1666 42.25 27.4725 42.25 29.0833C42.25 30.6941 40.9441 32 39.3333 32C37.7225 32 36.4166 30.6941 36.4166 29.0833Z" fill="#C2D5DF"/>
<path fill-rule="evenodd" clip-rule="evenodd" d="M30 43.6666C29.6778 43.6666 29.4166 43.9278 29.4166 44.25C29.4166 44.5721 29.6778 44.8333 30 44.8333C30.3221 44.8333 30.5833 44.5721 30.5833 44.25C30.5833 43.9278 30.3221 43.6666 30 43.6666ZM27.0833 44.25C27.0833 42.6391 28.3891 41.3333 30 41.3333C31.6108 41.3333 32.9166 42.6391 32.9166 44.25C32.9166 45.8608 31.6108 47.1666 30 47.1666C28.3891 47.1666 27.0833 45.8608 27.0833 44.25Z" fill="#C2D5DF"/>
<path fill-rule="evenodd" clip-rule="evenodd" d="M48.6666 43.6666C48.3445 43.6666 48.0833 43.9278 48.0833 44.25C48.0833 44.5721 48.3445 44.8333 48.6666 44.8333C48.9888 44.8333 49.25 44.5721 49.25 44.25C49.25 43.9278 48.9888 43.6666 48.6666 43.6666ZM45.75 44.25C45.75 42.6391 47.0558 41.3333 48.6666 41.3333C50.2775 41.3333 51.5833 42.6391 51.5833 44.25C51.5833 45.8608 50.2775 47.1666 48.6666 47.1666C47.0558 47.1666 45.75 45.8608 45.75 44.25Z" fill="#C2D5DF"/>
</g>
<defs>
<filter id="filter0_bd_133_145" x="-23.6667" y="-24" width="126" height="126" filterUnits="userSpaceOnUse" color-interpolation-filters="sRGB">
<feFlood flood-opacity="0" result="BackgroundImageFix"/>
<feGaussianBlur in="BackgroundImageFix" stdDeviation="19.2"/>
<feComposite in2="SourceAlpha" operator="in" result="effect1_backgroundBlur_133_145"/>
<feColorMatrix in="SourceAlpha" type="matrix" values="0 0 0 0 0 0 0 0 0 0 0 0 0 0 0 0 0 0 127 0" result="hardAlpha"/>
<feOffset/>
<feGaussianBlur stdDeviation="7.2"/>
<feComposite in2="hardAlpha" operator="out"/>
<feColorMatrix type="matrix" values="0 0 0 0 0.317647 0 0 0 0 0.266667 0 0 0 0 0.639216 0 0 0 0.48 0"/>
<feBlend mode="normal" in2="effect1_backgroundBlur_133_145" result="effect2_dropShadow_133_145"/>
<feBlend mode="normal" in="SourceGraphic" in2="effect2_dropShadow_133_145" result="shape"/>
</filter>
<linearGradient id="paint0_linear_133_145" x1="-0.488241" y1="-60.5169" x2="74.0255" y2="-37.963" gradientUnits="userSpaceOnUse">
<stop stop-color="#E4EAF8"/>
<stop offset="1" stop-color="#153FA8"/>
</linearGradient>
<linearGradient id="paint1_linear_133_145" x1="12.5116" y1="11.8388" x2="21.6896" y2="76.2993" gradientUnits="userSpaceOnUse">
<stop stop-color="#F8E4F0"/>
<stop offset="1" stop-color="#153FA8"/>
</linearGradient>
</defs>
</svg>
