<svg width="78" height="78" viewBox="0 0 78 78" fill="none" xmlns="http://www.w3.org/2000/svg">
<g filter="url(#filter0_bd_133_67)">
<path d="M15 24.6C15 19.2981 19.2981 15 24.6 15H53.4C58.7019 15 63 19.2981 63 24.6V53.4C63 58.7019 58.7019 63 53.4 63H24.6C19.2981 63 15 58.7019 15 53.4V24.6Z" fill="url(#paint0_linear_133_67)" fill-opacity="0.9" shape-rendering="crispEdges"/>
<path d="M15 24.6C15 19.2981 19.2981 15 24.6 15H53.4C58.7019 15 63 19.2981 63 24.6V53.4C63 58.7019 58.7019 63 53.4 63H24.6C19.2981 63 15 58.7019 15 53.4V24.6Z" stroke="url(#paint1_linear_133_67)" stroke-opacity="0.4" stroke-width="1.2" shape-rendering="crispEdges"/>
<path fill-rule="evenodd" clip-rule="evenodd" d="M42.8417 31.1751C43.2973 30.7195 44.036 30.7195 44.4916 31.1751L51.4916 38.1751C51.9472 38.6307 51.9472 39.3694 51.4916 39.825L44.4916 46.825C44.036 47.2806 43.2973 47.2806 42.8417 46.825C42.3861 46.3694 42.3861 45.6307 42.8417 45.1751L49.0168 39L42.8417 32.825C42.3861 32.3694 42.3861 31.6307 42.8417 31.1751Z" fill="#C2D5DF"/>
<path fill-rule="evenodd" clip-rule="evenodd" d="M35.1583 31.1751C35.6139 31.6307 35.6139 32.3694 35.1583 32.825L28.9832 39L35.1583 45.1751C35.6139 45.6307 35.6139 46.3694 35.1583 46.825C34.7027 47.2806 33.964 47.2806 33.5084 46.825L26.5084 39.825C26.0528 39.3694 26.0528 38.6307 26.5084 38.1751L33.5084 31.1751C33.964 30.7195 34.7027 30.7195 35.1583 31.1751Z" fill="#C2D5DF"/>
</g>
<defs>
<filter id="filter0_bd_133_67" x="-24" y="-24" width="126" height="126" filterUnits="userSpaceOnUse" color-interpolation-filters="sRGB">
<feFlood flood-opacity="0" result="BackgroundImageFix"/>
<feGaussianBlur in="BackgroundImageFix" stdDeviation="19.2"/>
<feComposite in2="SourceAlpha" operator="in" result="effect1_backgroundBlur_133_67"/>
<feColorMatrix in="SourceAlpha" type="matrix" values="0 0 0 0 0 0 0 0 0 0 0 0 0 0 0 0 0 0 127 0" result="hardAlpha"/>
<feOffset/>
<feGaussianBlur stdDeviation="7.2"/>
<feComposite in2="hardAlpha" operator="out"/>
<feColorMatrix type="matrix" values="0 0 0 0 0.317647 0 0 0 0 0.266667 0 0 0 0 0.639216 0 0 0 0.48 0"/>
<feBlend mode="normal" in2="effect1_backgroundBlur_133_67" result="effect2_dropShadow_133_67"/>
<feBlend mode="normal" in="SourceGraphic" in2="effect2_dropShadow_133_67" result="shape"/>
</filter>
<linearGradient id="paint0_linear_133_67" x1="-0.821554" y1="-60.5169" x2="73.6922" y2="-37.963" gradientUnits="userSpaceOnUse">
<stop stop-color="#E4EAF8"/>
<stop offset="1" stop-color="#153FA8"/>
</linearGradient>
<linearGradient id="paint1_linear_133_67" x1="12.1783" y1="11.8388" x2="21.3563" y2="76.2993" gradientUnits="userSpaceOnUse">
<stop stop-color="#F8E4F0"/>
<stop offset="1" stop-color="#153FA8"/>
</linearGradient>
</defs>
</svg>
