<svg width="681" height="420" viewBox="0 0 681 420" fill="none" xmlns="http://www.w3.org/2000/svg">
<g opacity="0.3">
<mask id="path-1-inside-1_74_2509" fill="white">
<path d="M539.234 678.784C553.792 624.45 554.308 566.923 540.75 509.489C527.192 452.054 499.827 395.835 460.216 344.044C420.606 292.252 369.526 245.901 309.894 207.637C250.261 169.372 183.244 139.945 112.668 121.034C42.0914 102.123 -30.6613 94.0995 -101.437 97.4209C-172.212 100.742 -239.624 115.344 -299.823 140.392C-360.023 165.44 -411.831 200.443 -452.29 243.405C-492.749 286.366 -521.066 336.443 -535.624 390.777L-439.805 416.451C-427.842 371.805 -404.574 330.656 -371.328 295.355C-338.083 260.053 -295.512 231.29 -246.045 210.708C-196.579 190.126 -141.186 178.128 -83.0295 175.399C-24.8729 172.669 34.9086 179.263 92.9016 194.802C150.895 210.341 205.963 234.522 254.964 265.964C303.964 297.406 345.937 335.493 378.485 378.05C411.033 420.608 433.519 466.803 444.66 513.998C455.801 561.193 455.377 608.463 443.414 653.109L539.234 678.784Z"/>
</mask>
<path d="M539.234 678.784C553.792 624.45 554.308 566.923 540.75 509.489C527.192 452.054 499.827 395.835 460.216 344.044C420.606 292.252 369.526 245.901 309.894 207.637C250.261 169.372 183.244 139.945 112.668 121.034C42.0914 102.123 -30.6613 94.0995 -101.437 97.4209C-172.212 100.742 -239.624 115.344 -299.823 140.392C-360.023 165.44 -411.831 200.443 -452.29 243.405C-492.749 286.366 -521.066 336.443 -535.624 390.777L-439.805 416.451C-427.842 371.805 -404.574 330.656 -371.328 295.355C-338.083 260.053 -295.512 231.29 -246.045 210.708C-196.579 190.126 -141.186 178.128 -83.0295 175.399C-24.8729 172.669 34.9086 179.263 92.9016 194.802C150.895 210.341 205.963 234.522 254.964 265.964C303.964 297.406 345.937 335.493 378.485 378.05C411.033 420.608 433.519 466.803 444.66 513.998C455.801 561.193 455.377 608.463 443.414 653.109L539.234 678.784Z" fill="url(#paint0_linear_74_2509)" stroke="url(#paint1_linear_74_2509)" stroke-opacity="0.2" stroke-width="6.6187" mask="url(#path-1-inside-1_74_2509)"/>
<path d="M565.376 646.86C580.435 590.659 580.967 531.157 566.944 471.749C552.92 412.341 524.615 354.192 483.644 300.621C442.673 247.05 389.839 199.106 328.158 159.528C266.477 119.949 197.157 89.511 124.157 69.9506C51.1561 50.3901 -24.0956 42.0907 -97.3021 45.5262C-170.509 48.9617 -240.236 64.0647 -302.504 89.973C-364.771 115.881 -418.359 152.088 -460.207 196.525C-502.056 240.961 -531.346 292.759 -546.405 348.959L-470.262 369.361C-457.266 320.859 -431.988 276.157 -395.872 237.806C-359.755 199.456 -313.508 168.209 -259.769 145.85C-206.031 123.49 -145.854 110.456 -82.675 107.491C-19.4959 104.526 45.4483 111.689 108.45 128.57C171.451 145.451 231.276 171.72 284.508 205.877C337.74 240.035 383.338 281.411 418.697 327.644C454.056 373.877 478.484 424.062 490.587 475.332C502.689 526.603 502.229 577.955 489.233 626.457L565.376 646.86Z" fill="url(#paint2_linear_74_2509)"/>
</g>
<defs>
<linearGradient id="paint0_linear_74_2509" x1="130.196" y1="63.5494" x2="34.8785" y2="419.28" gradientUnits="userSpaceOnUse">
<stop stop-color="#240FAF" stop-opacity="0.8"/>
<stop offset="0.5" stop-color="#200AB5" stop-opacity="0"/>
<stop offset="1" stop-color="#13066B" stop-opacity="0"/>
</linearGradient>
<linearGradient id="paint1_linear_74_2509" x1="98.704" y1="173.147" x2="-71.8219" y2="809.558" gradientUnits="userSpaceOnUse">
<stop stop-color="#8E6CF1"/>
<stop offset="1" stop-color="#7863FA"/>
</linearGradient>
<linearGradient id="paint2_linear_74_2509" x1="142.287" y1="10.4912" x2="43.6955" y2="378.441" gradientUnits="userSpaceOnUse">
<stop stop-color="#C2B9F9"/>
<stop offset="0.5" stop-color="#200AB5"/>
<stop offset="1" stop-color="#13066B" stop-opacity="0"/>
</linearGradient>
</defs>
</svg>
