<?xml version="1.0" standalone="no"?>
<!DOCTYPE svg PUBLIC "-//W3C//DTD SVG 20010904//EN"
 "http://www.w3.org/TR/2001/REC-SVG-20010904/DTD/svg10.dtd">
<svg version="1.0" xmlns="http://www.w3.org/2000/svg"
 width="1229.000000pt" height="1229.000000pt" viewBox="0 0 1229.000000 1229.000000"
 preserveAspectRatio="xMidYMid meet">
<metadata>
Created by potrace 1.14, written by Peter Selinger 2001-2017
</metadata>
<g transform="translate(0.000000,1229.000000) scale(0.100000,-0.100000)"
fill="#000000" stroke="none">
<path d="M5498 12265 c-2 -1 -52 -6 -113 -10 -116 -7 -137 -9 -231 -19 -63 -7
-101 -12 -174 -22 -25 -4 -56 -8 -70 -9 -14 -2 -25 -4 -25 -5 0 -1 -9 -3 -20
-4 -75 -10 -150 -23 -150 -26 0 -1 -13 -3 -30 -6 -37 -5 -70 -12 -70 -14 0 -1
-9 -3 -20 -5 -35 -5 -89 -16 -107 -21 -16 -5 -40 -10 -88 -20 -13 -3 -29 -9
-36 -15 -6 -5 -13 -6 -17 -3 -3 3 -21 1 -40 -5 -19 -7 -44 -13 -56 -16 -11 -2
-25 -6 -29 -9 -5 -3 -24 -8 -42 -11 -18 -3 -38 -9 -44 -13 -6 -3 -15 -7 -21
-8 -41 -6 -399 -131 -472 -165 -24 -10 -45 -19 -48 -19 -4 0 -27 -9 -53 -21
-26 -11 -58 -25 -72 -31 -14 -6 -37 -17 -52 -24 -14 -8 -33 -14 -42 -14 -9 0
-16 -4 -16 -10 0 -5 -5 -10 -11 -10 -13 0 -223 -102 -291 -141 -25 -15 -49
-25 -52 -22 -3 4 -6 1 -6 -5 0 -6 -16 -16 -35 -23 -19 -7 -35 -17 -35 -21 0
-4 -7 -8 -15 -8 -8 0 -15 -5 -15 -11 0 -5 -4 -8 -9 -4 -5 3 -12 1 -15 -4 -3
-5 -31 -23 -63 -41 -80 -45 -227 -142 -231 -152 -2 -4 -7 -6 -12 -3 -4 3 -13
-2 -20 -10 -7 -8 -19 -15 -27 -15 -8 0 -11 -4 -8 -10 3 -5 2 -10 -4 -10 -14 0
-91 -52 -91 -62 0 -4 -6 -8 -13 -8 -8 0 -22 -9 -32 -20 -10 -11 -22 -20 -26
-20 -8 0 -43 -27 -75 -57 -7 -7 -15 -13 -19 -13 -4 0 -12 -6 -19 -12 -7 -7
-28 -24 -46 -38 -28 -21 -150 -123 -196 -163 -8 -7 -32 -28 -55 -47 -56 -48
-416 -405 -461 -459 -21 -24 -38 -48 -38 -54 0 -6 -3 -7 -6 -4 -4 4 -19 -8
-33 -27 -30 -38 -177 -220 -203 -251 -10 -11 -17 -23 -17 -28 0 -4 -11 -18
-23 -31 -13 -14 -34 -41 -48 -61 -14 -20 -33 -46 -42 -56 -10 -10 -18 -21 -18
-24 0 -5 -61 -97 -70 -105 -5 -5 -60 -89 -85 -131 -182 -303 -202 -338 -287
-509 -34 -69 -63 -127 -63 -130 -2 -5 -43 -98 -70 -155 -18 -39 -37 -85 -70
-170 -15 -38 -30 -74 -33 -80 -4 -5 -8 -18 -9 -28 -2 -10 -8 -28 -15 -40 -7
-12 -13 -27 -14 -34 -1 -6 -19 -63 -39 -125 -36 -110 -40 -122 -45 -143 -1 -5
-6 -20 -11 -33 -7 -17 -62 -220 -74 -267 -1 -5 -5 -21 -8 -35 -4 -14 -9 -36
-12 -50 -2 -14 -14 -65 -25 -115 -19 -88 -23 -107 -35 -190 -3 -22 -7 -47 -10
-55 -2 -8 -7 -35 -10 -60 -2 -25 -7 -61 -10 -80 -3 -19 -8 -53 -10 -75 -2 -22
-4 -40 -5 -40 -3 0 -18 -163 -28 -300 -3 -49 -6 -225 -6 -390 0 -273 4 -373
19 -520 15 -147 25 -233 30 -264 2 -13 7 -45 11 -70 7 -54 11 -75 39 -221 8
-41 16 -86 19 -100 2 -14 12 -56 21 -95 9 -38 18 -80 20 -92 2 -12 8 -37 14
-56 7 -19 14 -44 16 -56 3 -11 7 -31 10 -44 3 -12 9 -33 15 -47 5 -14 11 -34
13 -45 2 -11 9 -31 14 -45 6 -14 14 -41 18 -60 4 -19 11 -39 15 -45 5 -5 9
-14 9 -20 3 -21 25 -91 32 -100 4 -6 10 -22 13 -35 2 -14 11 -41 19 -60 24
-58 30 -75 33 -85 4 -18 96 -239 107 -260 6 -11 12 -26 13 -33 1 -7 12 -28 23
-48 12 -19 21 -42 21 -50 0 -8 5 -14 10 -14 6 0 9 -3 8 -7 -1 -5 19 -51 44
-103 25 -52 60 -129 78 -170 58 -134 72 -164 118 -260 25 -52 46 -97 47 -100
1 -7 74 -144 133 -250 14 -25 30 -54 36 -65 6 -11 38 -64 71 -118 33 -54 65
-105 70 -115 27 -45 131 -199 147 -216 10 -11 18 -25 18 -32 0 -7 3 -14 8 -16
4 -1 25 -28 47 -58 22 -30 45 -62 52 -70 92 -117 180 -228 199 -249 12 -14 32
-37 44 -51 76 -91 126 -144 295 -314 167 -168 253 -249 345 -326 14 -12 37
-32 51 -44 21 -19 132 -107 249 -199 8 -7 40 -30 70 -52 30 -22 57 -43 58 -47
2 -5 9 -8 15 -8 10 0 29 -13 84 -60 7 -5 14 -10 17 -10 2 0 33 -19 68 -42 35
-24 71 -47 80 -53 10 -5 73 -43 140 -84 68 -41 143 -86 168 -101 70 -42 539
-270 554 -270 3 0 25 -9 49 -19 60 -28 109 -47 217 -87 52 -20 102 -38 110
-41 8 -4 17 -7 20 -7 3 -1 25 -9 50 -18 46 -16 254 -81 300 -93 14 -3 75 -19
135 -35 123 -32 277 -67 333 -76 20 -3 44 -7 52 -9 27 -8 224 -41 305 -51 22
-3 54 -7 70 -9 243 -30 417 -40 740 -40 249 0 449 7 545 19 14 2 57 7 95 10
39 4 84 9 100 11 94 12 194 27 220 31 11 2 58 11 105 19 75 13 260 52 360 75
198 47 570 162 667 206 17 8 35 14 40 14 8 0 195 75 248 99 11 5 45 20 75 32
30 13 152 72 270 132 118 61 225 115 237 121 13 6 23 14 23 19 0 4 5 7 11 7
13 0 183 102 187 113 2 4 8 7 14 7 5 0 29 14 53 30 24 17 46 30 50 30 3 0 11
5 18 11 7 5 71 52 144 102 133 93 331 243 412 314 24 21 78 67 120 103 77 66
471 453 471 463 0 3 18 24 40 46 22 22 40 42 40 45 0 3 18 25 40 48 49 53 159
191 254 318 38 52 74 97 78 98 4 2 8 8 8 14 0 6 14 27 30 48 16 21 30 41 30
44 0 4 8 16 18 27 11 10 25 32 33 47 8 15 17 32 22 37 4 6 22 33 39 60 18 28
47 73 65 101 18 28 33 54 33 59 0 4 13 26 29 50 16 24 32 53 36 64 3 12 11 21
16 21 5 0 9 9 9 19 0 11 4 21 8 23 5 2 54 95 109 208 109 220 123 252 173 375
18 44 38 94 45 110 7 17 18 48 25 70 7 22 17 46 23 53 5 6 6 12 2 12 -4 0 -3
6 3 12 10 14 119 344 127 388 2 13 9 36 14 50 8 21 16 48 26 95 2 6 10 37 18
70 42 158 97 452 122 640 23 172 26 200 30 257 2 29 7 96 12 148 16 190 9 769
-12 950 -14 129 -17 159 -20 192 -2 21 -6 50 -9 65 -3 15 -8 53 -11 83 -3 30
-8 63 -11 73 -3 10 -7 30 -9 45 -4 32 -10 66 -30 162 -2 14 -7 41 -10 60 -13
82 -108 449 -145 560 -12 36 -23 70 -24 75 -8 35 -61 182 -70 194 -6 8 -10 17
-10 20 4 16 -93 262 -149 381 -12 25 -22 47 -22 50 0 3 -17 40 -38 83 -20 44
-37 83 -37 87 0 5 -3 10 -7 12 -5 2 -26 39 -47 83 -22 44 -64 122 -93 174 -29
51 -53 97 -53 102 0 5 -4 9 -10 9 -5 0 -10 5 -10 10 0 6 -27 53 -60 106 -33
52 -60 99 -60 104 0 4 -4 10 -9 12 -4 2 -26 30 -47 63 -21 33 -41 64 -46 70
-12 14 -111 154 -123 174 -5 9 -12 18 -15 21 -3 3 -28 34 -55 70 -28 36 -52
67 -55 70 -3 3 -21 25 -41 50 -20 25 -45 55 -55 67 -11 12 -35 41 -54 64 -41
50 -60 70 -193 213 -56 60 -110 117 -120 125 -10 9 -53 50 -96 91 -65 64 -140
132 -247 225 -12 11 -37 31 -55 45 -17 14 -45 37 -61 53 -16 15 -31 27 -34 27
-7 0 -108 83 -112 93 -2 4 -8 7 -14 7 -6 0 -32 18 -58 40 -26 22 -51 40 -56
40 -4 0 -17 8 -28 19 -12 10 -64 47 -116 82 -52 35 -96 67 -98 71 -2 4 -8 8
-12 8 -5 0 -52 27 -104 60 -53 33 -100 60 -106 60 -5 0 -10 5 -10 10 0 6 -4
10 -9 10 -5 0 -55 26 -112 59 -89 50 -400 206 -494 246 -16 8 -51 23 -77 34
-26 12 -50 21 -53 21 -3 0 -24 8 -48 19 -23 10 -58 24 -77 31 -19 7 -49 19
-67 26 -41 18 -391 135 -420 140 -23 4 -184 59 -218 74 -11 5 -38 14 -60 21
-22 6 -46 16 -52 22 -7 5 -13 7 -13 4 0 -3 -45 9 -100 28 -55 19 -100 32 -100
30 0 -3 -12 0 -27 6 -16 6 -35 12 -43 15 -8 2 -84 21 -168 43 -84 21 -155 39
-157 40 -3 1 -6 1 -7 2 -2 0 -12 2 -23 3 -18 3 -97 18 -152 30 -11 2 -43 8
-70 12 -26 3 -57 8 -68 11 -23 5 -64 11 -119 17 -22 3 -53 7 -70 10 -42 7
-165 20 -311 33 -57 5 -692 13 -697 8z"/>
</g>
</svg>
