<svg width="79" height="78" viewBox="0 0 79 78" fill="none" xmlns="http://www.w3.org/2000/svg">
<g filter="url(#filter0_bd_133_394)">
<path d="M15.6667 24.6C15.6667 19.2981 19.9648 15 25.2667 15H54.0667C59.3687 15 63.6667 19.2981 63.6667 24.6V53.4C63.6667 58.7019 59.3687 63 54.0667 63H25.2667C19.9648 63 15.6667 58.7019 15.6667 53.4V24.6Z" fill="url(#paint0_linear_133_394)" fill-opacity="0.9" shape-rendering="crispEdges"/>
<path d="M15.6667 24.6C15.6667 19.2981 19.9648 15 25.2667 15H54.0667C59.3687 15 63.6667 19.2981 63.6667 24.6V53.4C63.6667 58.7019 59.3687 63 54.0667 63H25.2667C19.9648 63 15.6667 58.7019 15.6667 53.4V24.6Z" stroke="url(#paint1_linear_133_394)" stroke-opacity="0.4" stroke-width="1.2" shape-rendering="crispEdges"/>
<g clip-path="url(#clip0_133_394)">
<path fill-rule="evenodd" clip-rule="evenodd" d="M28.1642 39C28.2918 39.2203 28.4608 39.5011 28.6702 39.8254C29.2081 40.6582 30.0046 41.7657 31.0387 42.8687C33.1282 45.0975 36.0495 47.1667 39.6667 47.1667C43.284 47.1667 46.2053 45.0975 48.2948 42.8687C49.3289 41.7657 50.1254 40.6582 50.6632 39.8254C50.8726 39.5011 51.0417 39.2203 51.1692 39C51.0417 38.7797 50.8726 38.4989 50.6632 38.1746C50.1254 37.3418 49.3289 36.2343 48.2948 35.1313C46.2053 32.9025 43.284 30.8333 39.6667 30.8333C36.0495 30.8333 33.1282 32.9025 31.0387 35.1313C30.0046 36.2343 29.2081 37.3418 28.6702 38.1746C28.4608 38.4989 28.2918 38.7797 28.1642 39ZM52.5001 39C53.5436 38.4783 53.5431 38.4774 53.5431 38.4774L53.5413 38.4737L53.5372 38.4657L53.524 38.4398C53.5129 38.4182 53.4971 38.3879 53.4768 38.3495C53.4363 38.2728 53.3774 38.1638 53.3004 38.027C53.1466 37.7536 52.9202 37.3684 52.6233 36.9087C52.031 35.9915 51.1504 34.7657 49.997 33.5354C47.7115 31.0975 44.2161 28.5 39.6667 28.5C35.1173 28.5 31.6219 31.0975 29.3364 33.5354C28.183 34.7657 27.3025 35.9915 26.7101 36.9087C26.4132 37.3684 26.1868 37.7536 26.033 38.027C25.9561 38.1638 25.8972 38.2728 25.8566 38.3495C25.8363 38.3879 25.8206 38.4182 25.8094 38.4398L25.7962 38.4657L25.7922 38.4737L25.7908 38.4764C25.7908 38.4764 25.7899 38.4783 26.8334 39L25.7899 38.4782C25.6257 38.8067 25.6257 39.1933 25.7899 39.5217L26.8334 39C25.7899 39.5217 25.7899 39.5217 25.7899 39.5217L25.7922 39.5263L25.7962 39.5343L25.8094 39.5602C25.8206 39.5818 25.8363 39.6121 25.8566 39.6505C25.8972 39.7272 25.9561 39.8362 26.033 39.973C26.1868 40.2464 26.4132 40.6316 26.7101 41.0913C27.3025 42.0085 28.183 43.2343 29.3364 44.4646C31.6219 46.9025 35.1173 49.5 39.6667 49.5C44.2161 49.5 47.7115 46.9025 49.997 44.4646C51.1504 43.2343 52.031 42.0085 52.6233 41.0913C52.9202 40.6316 53.1466 40.2464 53.3004 39.973C53.3774 39.8362 53.4363 39.7272 53.4768 39.6505C53.4971 39.6121 53.5129 39.5818 53.524 39.5602L53.5372 39.5343L53.5413 39.5263L53.5426 39.5236C53.5426 39.5236 53.5436 39.5217 52.5001 39ZM52.5001 39L53.5436 39.5217C53.7078 39.1933 53.7074 38.8059 53.5431 38.4774L52.5001 39Z" fill="#C2D5DF"/>
<path fill-rule="evenodd" clip-rule="evenodd" d="M39.6667 36.6667C38.3781 36.6667 37.3334 37.7113 37.3334 39C37.3334 40.2887 38.3781 41.3333 39.6667 41.3333C40.9554 41.3333 42.0001 40.2887 42.0001 39C42.0001 37.7113 40.9554 36.6667 39.6667 36.6667ZM35.0001 39C35.0001 36.4227 37.0894 34.3333 39.6667 34.3333C42.244 34.3333 44.3334 36.4227 44.3334 39C44.3334 41.5773 42.244 43.6667 39.6667 43.6667C37.0894 43.6667 35.0001 41.5773 35.0001 39Z" fill="#C2D5DF"/>
</g>
</g>
<defs>
<filter id="filter0_bd_133_394" x="-23.3333" y="-24" width="126" height="126" filterUnits="userSpaceOnUse" color-interpolation-filters="sRGB">
<feFlood flood-opacity="0" result="BackgroundImageFix"/>
<feGaussianBlur in="BackgroundImageFix" stdDeviation="19.2"/>
<feComposite in2="SourceAlpha" operator="in" result="effect1_backgroundBlur_133_394"/>
<feColorMatrix in="SourceAlpha" type="matrix" values="0 0 0 0 0 0 0 0 0 0 0 0 0 0 0 0 0 0 127 0" result="hardAlpha"/>
<feOffset/>
<feGaussianBlur stdDeviation="7.2"/>
<feComposite in2="hardAlpha" operator="out"/>
<feColorMatrix type="matrix" values="0 0 0 0 0.317647 0 0 0 0 0.266667 0 0 0 0 0.639216 0 0 0 0.48 0"/>
<feBlend mode="normal" in2="effect1_backgroundBlur_133_394" result="effect2_dropShadow_133_394"/>
<feBlend mode="normal" in="SourceGraphic" in2="effect2_dropShadow_133_394" result="shape"/>
</filter>
<linearGradient id="paint0_linear_133_394" x1="-0.154836" y1="-60.5169" x2="74.3589" y2="-37.963" gradientUnits="userSpaceOnUse">
<stop stop-color="#E4EAF8"/>
<stop offset="1" stop-color="#153FA8"/>
</linearGradient>
<linearGradient id="paint1_linear_133_394" x1="12.845" y1="11.8388" x2="22.023" y2="76.2993" gradientUnits="userSpaceOnUse">
<stop stop-color="#F8E4F0"/>
<stop offset="1" stop-color="#153FA8"/>
</linearGradient>
<clipPath id="clip0_133_394">
<rect width="28" height="28" fill="white" transform="translate(25.6667 25)"/>
</clipPath>
</defs>
</svg>
