<svg viewBox="0 0 20 20" fill="white" xmlns="http://www.w3.org/2000/svg">
<g id="Live area">
<path id="Vector" d="M2.29289 16.2929C1.90237 16.6834 1.90237 17.3166 2.29289 17.7071C2.68342 18.0976 3.31658 18.0976 3.70711 17.7071L10 11.4142L16.2929 17.7071C16.6834 18.0976 17.3166 18.0976 17.7071 17.7071C18.0976 17.3166 18.0976 16.6834 17.7071 16.2929L11.4142 10L17.7071 3.70711C18.0976 3.31658 18.0976 2.68342 17.7071 2.29289C17.3166 1.90237 16.6834 1.90237 16.2929 2.29289L10 8.58579L3.70711 2.2929C3.31658 1.90237 2.68342 1.90237 2.29289 2.2929C1.90237 2.68342 1.90237 3.31658 2.29289 3.70711L8.58579 10L2.29289 16.2929Z">
</path>
</g>
</svg>