<svg width="56" height="56" viewBox="0 0 56 56" fill="none" xmlns="http://www.w3.org/2000/svg">
<rect width="56" height="56" rx="28" fill="#155EEF"/>
<g clip-path="url(#clip0_2075_3188)">
<path d="M21.6207 25.4375C21.8641 25.6812 22.2609 25.6812 22.5043 25.4375L23.3125 24.6293C23.5563 24.3859 23.5563 23.9891 23.3125 23.7457L22.5043 22.9375H33.625C34.659 22.9375 35.5 23.7785 35.5 24.8125C35.5 25.3293 35.9207 25.75 36.4375 25.75H37.0625C37.5793 25.75 38 25.3293 38 24.8125C38 22.4 36.0375 20.4375 33.625 20.4375H22.5043L23.3125 19.6293C23.5563 19.3859 23.5563 18.9891 23.3125 18.7457L22.5043 17.9375C22.2609 17.6937 21.8641 17.6937 21.6207 17.9375L18.0914 21.4664C17.9695 21.5887 17.9695 21.7863 18.0914 21.9086L21.6207 25.4375Z" fill="white"/>
<path d="M34.3793 28.5625C34.1359 28.3188 33.7395 28.3188 33.4957 28.5625L32.6875 29.3707C32.4433 29.6149 32.4429 30.0097 32.6875 30.2543L33.4957 31.0625H22.375C21.341 31.0625 20.5 30.2215 20.5 29.1875C20.5 28.6707 20.0793 28.25 19.5625 28.25H18.9375C18.4207 28.25 18 28.6707 18 29.1875C18 31.6 19.9625 33.5625 22.375 33.5625H33.4957L32.6875 34.3707C32.4433 34.6149 32.4429 35.0097 32.6875 35.2543L33.4957 36.0625C33.7395 36.3063 34.1355 36.3062 34.3793 36.0625L37.9086 32.5336C38.0305 32.4113 38.0305 32.2137 37.9086 32.0914L34.3793 28.5625Z" fill="white"/>
</g>
<defs>
<clipPath id="clip0_2075_3188">
<rect width="20" height="20" fill="white" transform="translate(18 17)"/>
</clipPath>
</defs>
</svg>
