<svg xmlns="http://www.w3.org/2000/svg" xmlns:xlink="http://www.w3.org/1999/xlink" width="100" zoomAndPan="magnify" viewBox="0 0 75 74.999997" height="100" preserveAspectRatio="xMidYMid meet" version="1.0"><path fill="#535353" d="M 1.15625 34.757812 C -0.386719 36.253906 -0.386719 38.746094 1.15625 40.242188 L 16.617188 55.257812 C 28.28125 66.582031 46.71875 66.582031 58.382812 55.257812 L 73.84375 40.242188 C 75.382812 38.746094 75.382812 36.253906 73.84375 34.757812 L 58.382812 19.746094 C 46.71875 8.417969 28.28125 8.417969 16.617188 19.746094 Z M 37.5 48.75 C 43.714844 48.75 48.75 43.714844 48.75 37.5 C 48.75 31.285156 43.714844 26.25 37.5 26.25 C 31.285156 26.25 26.25 31.285156 26.25 37.5 C 26.25 43.714844 31.285156 48.75 37.5 48.75 Z M 37.5 48.75 " fill-opacity="1" fill-rule="evenodd"/></svg>