<svg xmlns="http://www.w3.org/2000/svg" xmlns:xlink="http://www.w3.org/1999/xlink" width="100" zoomAndPan="magnify" viewBox="0 0 75 74.999997" height="100" preserveAspectRatio="xMidYMid meet" version="1.0"><path fill="#535353" d="M 6.402344 1.097656 C 4.9375 -0.367188 2.5625 -0.367188 1.097656 1.097656 C -0.367188 2.5625 -0.367188 4.9375 1.097656 6.402344 L 15.511719 20.816406 L 1.15625 34.757812 C -0.386719 36.253906 -0.386719 38.746094 1.15625 40.242188 L 16.617188 55.257812 C 26.8125 65.15625 42.1875 66.402344 53.6875 58.992188 L 68.597656 73.902344 C 70.0625 75.367188 72.4375 75.367188 73.902344 73.902344 C 75.367188 72.4375 75.367188 70.0625 73.902344 68.597656 Z M 42.351562 47.652344 L 27.347656 32.648438 C 26.644531 34.117188 26.25 35.765625 26.25 37.5 C 26.25 43.714844 31.289062 48.75 37.5 48.75 C 39.238281 48.75 40.882812 48.355469 42.351562 47.652344 Z M 42.351562 47.652344 " fill-opacity="1" fill-rule="evenodd"/><path fill="#535353" d="M 44.9375 29.058594 C 45.292969 29.371094 45.628906 29.707031 45.945312 30.066406 L 64.851562 48.972656 L 73.84375 40.242188 C 75.386719 38.746094 75.386719 36.253906 73.84375 34.757812 L 58.382812 19.746094 C 50.199219 11.796875 38.683594 9.425781 28.507812 12.628906 Z M 44.9375 29.058594 " fill-opacity="1" fill-rule="nonzero"/></svg>