<svg width="135" height="40" viewBox="0 0 135 40" fill="none" xmlns="http://www.w3.org/2000/svg">
<rect x="0.5" y="0.5" width="134" height="39" rx="4.04545" fill="black"/>
<rect x="0.5" y="0.5" width="134" height="39" rx="4.04545" stroke="white"/>
<path d="M23.7816 6.66663H11.1063V19.3492H23.7816V6.66663Z" fill="#F25022"/>
<path d="M37.7728 6.66663H25.0975V19.3492H37.7728V6.66663Z" fill="#7FBA00"/>
<path d="M23.7816 20.651H11.1063V33.3334H23.7816V20.651Z" fill="#00A4EF"/>
<path d="M37.773 20.651H25.0977V33.3334H37.773V20.651Z" fill="#FFB900"/>
<path d="M54.5074 14.9242C54.0951 15.157 53.658 15.3327 53.1961 15.4511C52.7342 15.5694 52.2473 15.6286 51.7359 15.6286C50.5217 15.6286 49.5578 15.2679 48.8439 14.5463C48.13 13.8248 47.773 12.8074 47.773 11.494C47.773 10.1693 48.1682 9.11374 48.9584 8.3273C49.7525 7.53705 50.7756 7.14193 52.0279 7.14193C52.4936 7.14193 52.9212 7.18964 53.3106 7.28508C53.7038 7.3767 54.1008 7.52368 54.5017 7.72602L54.0836 8.56781C53.7478 8.3922 53.4175 8.26622 53.0929 8.18987C52.7685 8.11352 52.4115 8.07535 52.0222 8.07535C51.1021 8.07535 50.3461 8.36738 49.7544 8.95149C49.1666 9.53559 48.8725 10.3602 48.8725 11.4254C48.8725 12.5057 49.1321 13.3227 49.6514 13.8762C50.1744 14.426 50.9074 14.7008 51.8503 14.7008C52.1595 14.7008 52.4477 14.6703 52.715 14.6092C52.986 14.5482 53.2342 14.4566 53.4594 14.3343V12.1011H51.6728V11.1734H54.5074V14.9242ZM61.2417 12.7196H57.0156C57.0346 13.3838 57.2122 13.8954 57.5482 14.2541C57.8842 14.6092 58.3556 14.7867 58.9626 14.7867C59.226 14.7867 59.4951 14.7467 59.77 14.6665C60.0487 14.5825 60.3274 14.4471 60.6061 14.26L61.07 14.97C60.7226 15.1991 60.3733 15.3671 60.022 15.474C59.6708 15.5809 59.2852 15.6344 58.8652 15.6344C57.9567 15.6344 57.2485 15.3652 56.7407 14.8269C56.233 14.2848 55.9772 13.5289 55.9734 12.5592C55.9696 11.5932 56.2254 10.8164 56.7407 10.2285C57.26 9.63676 57.9318 9.3409 58.7564 9.3409C59.5429 9.3409 60.1538 9.59668 60.5889 10.1082C61.0242 10.616 61.2417 11.3242 61.2417 12.2327V12.7196ZM60.2167 11.9178C60.2129 11.3643 60.0793 10.9348 59.8159 10.6293C59.5563 10.3239 59.1974 10.1712 58.7393 10.1712C58.2888 10.1712 57.907 10.3297 57.5941 10.6465C57.2847 10.9596 57.0958 11.3833 57.027 11.9178H60.2167ZM65.6913 15.4167C65.5271 15.4854 65.3629 15.535 65.1988 15.5656C65.0385 15.5999 64.8571 15.6171 64.6548 15.6171C64.1622 15.6171 63.7767 15.4759 63.498 15.1934C63.2231 14.9109 63.0858 14.4928 63.0858 13.9393V10.3316H62.0606V9.48405H63.0858V8.10969L64.1108 7.78329V9.48405H65.6111V10.3316H64.1108V13.8305C64.1108 14.1703 64.1718 14.4145 64.294 14.5635C64.4161 14.7124 64.5994 14.7867 64.8438 14.7867C64.9583 14.7867 65.0689 14.7734 65.1758 14.7467C65.2827 14.72 65.3743 14.6875 65.4507 14.6494L65.6913 15.4167ZM70.7134 8.21278C70.5111 8.21278 70.3431 8.14596 70.2094 8.01235C70.0759 7.87873 70.009 7.71647 70.009 7.5256C70.009 7.32708 70.0759 7.16292 70.2094 7.03312C70.3431 6.8995 70.5111 6.83269 70.7134 6.83269C70.9157 6.83269 71.0837 6.8995 71.2173 7.03312C71.3548 7.16292 71.4234 7.32708 71.4234 7.5256C71.4234 7.71647 71.3548 7.87873 71.2173 8.01235C71.0837 8.14596 70.9157 8.21278 70.7134 8.21278ZM71.2116 15.4911H70.1923V9.48405H71.2116V15.4911ZM76.2051 15.4167C76.0409 15.4854 75.8767 15.535 75.7126 15.5656C75.5523 15.5999 75.371 15.6171 75.1685 15.6171C74.6761 15.6171 74.2906 15.4759 74.0119 15.1934C73.737 14.9109 73.5995 14.4928 73.5995 13.9393V10.3316H72.5745V9.48405H73.5995V8.10969L74.6245 7.78329V9.48405H76.1249V10.3316H74.6245V13.8305C74.6245 14.1703 74.6856 14.4145 74.8078 14.5635C74.93 14.7124 75.1133 14.7867 75.3575 14.7867C75.4721 14.7867 75.5828 14.7734 75.6897 14.7467C75.7966 14.72 75.8882 14.6875 75.9646 14.6494L76.2051 15.4167ZM83.5979 7.62294C83.491 7.58477 83.3937 7.55804 83.3059 7.54277C83.2181 7.52751 83.1265 7.51987 83.031 7.51987C82.7142 7.51987 82.4775 7.60386 82.3209 7.77184C82.1683 7.93981 82.0919 8.18606 82.0919 8.51055V9.48405H83.472V10.3316H82.0919V15.4911H81.0783V10.3316H80.0705V9.48405H81.0783V8.45901C81.0783 7.89782 81.2521 7.45878 81.5995 7.14193C81.9506 6.82505 82.4279 6.66663 83.031 6.66663C83.1838 6.66663 83.3231 6.67808 83.4491 6.70099C83.5751 6.72389 83.7049 6.75634 83.8385 6.79833L83.5979 7.62294ZM87.6294 10.3545C87.5531 10.3316 87.4825 10.3144 87.4175 10.3029C87.3526 10.2915 87.2745 10.2858 87.1827 10.2858C86.6979 10.2858 86.3161 10.4919 86.0375 10.9042C85.7588 11.3127 85.6194 11.83 85.6194 12.4561V15.4911H84.6001V9.48405H85.6194V10.6752H85.6424C85.7797 10.2514 85.9878 9.93072 86.2664 9.71311C86.5491 9.49169 86.8754 9.38098 87.2457 9.38098C87.364 9.38098 87.4653 9.38671 87.5492 9.39816C87.637 9.40961 87.7172 9.42679 87.7897 9.4497L87.6294 10.3545ZM91.4661 15.6344C90.569 15.6344 89.8533 15.3536 89.3188 14.7925C88.7881 14.2275 88.5227 13.4792 88.5227 12.5477C88.5227 11.5437 88.7976 10.7592 89.3474 10.1941C89.8971 9.62912 90.6472 9.34471 91.5979 9.3409C92.4989 9.33707 93.2032 9.61386 93.711 10.1712C94.2225 10.7248 94.4783 11.4864 94.4783 12.4561C94.4783 13.4219 94.2053 14.1932 93.6594 14.7696C93.1135 15.346 92.3824 15.6344 91.4661 15.6344ZM91.5349 14.7867C92.1458 14.7867 92.6134 14.5882 92.9378 14.1913C93.2662 13.7903 93.4304 13.2234 93.4304 12.4904C93.4304 11.7498 93.2662 11.181 92.9378 10.784C92.6096 10.3869 92.1419 10.1884 91.5349 10.1884C90.9278 10.1884 90.4468 10.3965 90.0918 10.8126C89.7405 11.2248 89.5649 11.7938 89.5649 12.5192C89.5649 13.2253 89.7424 13.7808 90.0975 14.1855C90.4526 14.5863 90.9316 14.7867 91.5349 14.7867ZM104.666 15.4911H103.641V12.038C103.641 11.3852 103.54 10.9138 103.337 10.6236C103.135 10.3335 102.797 10.1884 102.324 10.1884C101.919 10.1884 101.575 10.3717 101.293 10.7382C101.014 11.1046 100.875 11.5475 100.875 12.0668V15.4911H99.8555V11.9292C99.8555 11.349 99.7429 10.9138 99.5176 10.6236C99.2962 10.3335 98.9621 10.1884 98.5155 10.1884C98.0994 10.1884 97.7558 10.3621 97.4847 10.7095C97.2175 11.0569 97.0839 11.5113 97.0839 12.0725V15.4911H96.0645V9.48405H97.0839V10.4347H97.1068C97.3205 10.072 97.584 9.79902 97.897 9.61577C98.2101 9.43252 98.5709 9.3409 98.9793 9.3409C99.3917 9.3409 99.7486 9.45351 100.05 9.67876C100.356 9.90399 100.568 10.2037 100.686 10.5778C100.907 10.1655 101.184 9.85628 101.516 9.65012C101.852 9.44397 102.24 9.3409 102.679 9.3409C103.339 9.3409 103.835 9.54514 104.168 9.95363C104.5 10.3583 104.666 10.9691 104.666 11.7862V15.4911Z" fill="white"/>
<path d="M64.999 20.7869C64.999 20.411 65.1343 20.1103 65.405 19.8546C65.6757 19.5991 65.9913 19.4788 66.3673 19.4788C66.7581 19.4788 67.089 19.6141 67.3445 19.8697C67.6002 20.1253 67.7355 20.441 67.7355 20.7869C67.7355 21.1478 67.6002 21.4634 67.3296 21.7041C67.059 21.9596 66.7432 22.08 66.3522 22.08C65.9612 22.08 65.6456 21.9596 65.3748 21.7041C65.1343 21.4485 64.999 21.1478 64.999 20.7869ZM67.4798 33.0861H65.2395V23.5384H67.4798V33.0861Z" fill="white"/>
<path d="M74.3059 31.4539C74.6366 31.4539 75.0125 31.3787 75.4186 31.2284C75.8245 31.078 76.1853 30.8675 76.5311 30.612V32.7019C76.1703 32.9124 75.7644 33.0628 75.3133 33.1679C74.8622 33.2731 74.3509 33.3334 73.8097 33.3334C72.4114 33.3334 71.2687 32.8823 70.3815 31.9951C69.4944 31.108 69.0584 29.9653 69.0584 28.5971C69.0584 27.0634 69.5095 25.8005 70.4117 24.8081C71.3137 23.8158 72.5768 23.3196 74.2307 23.3196C74.6517 23.3196 75.0727 23.3797 75.5087 23.4849C75.9447 23.5902 76.2756 23.7255 76.5311 23.8608V26.011C76.1853 25.7553 75.8245 25.5599 75.4636 25.4246C75.1028 25.2893 74.7269 25.2141 74.3509 25.2141C73.4638 25.2141 72.7572 25.4998 72.2009 26.0711C71.6595 26.6425 71.3889 27.4243 71.3889 28.4017C71.3889 29.364 71.6445 30.1157 72.1708 30.657C72.697 31.1983 73.4037 31.4539 74.3059 31.4539Z" fill="white"/>
<path d="M82.9204 23.3928C83.1009 23.3928 83.2663 23.4079 83.4016 23.4229C83.5369 23.4529 83.6722 23.4831 83.7625 23.5132V25.7835C83.6421 25.6932 83.4768 25.6182 83.2513 25.543C83.0257 25.4678 82.7551 25.4226 82.4244 25.4226C81.868 25.4226 81.4018 25.6482 81.026 26.1143C80.6501 26.5805 80.4547 27.2871 80.4547 28.2644V33.0909H78.2144V23.5432H80.4547V25.0467H80.4847C80.6952 24.5205 80.9959 24.1145 81.4169 23.8288C81.838 23.5432 82.3341 23.3928 82.9204 23.3928Z" fill="white"/>
<path d="M83.8835 28.4618C83.8835 26.8831 84.3346 25.6351 85.2217 24.7029C86.1088 23.7856 87.3567 23.3196 88.9355 23.3196C90.424 23.3196 91.5968 23.7707 92.4389 24.6577C93.2808 25.5448 93.7018 26.7478 93.7018 28.2513C93.7018 29.7999 93.2507 31.0328 92.3637 31.9501C91.4764 32.8672 90.2587 33.3183 88.7249 33.3183C87.2515 33.3183 86.0636 32.8823 85.2066 32.0102C84.3195 31.1532 83.8835 29.9653 83.8835 28.4618ZM86.2291 28.3866C86.2291 29.3789 86.4546 30.1458 86.9057 30.6721C87.3567 31.1983 88.0032 31.4539 88.8453 31.4539C89.6572 31.4539 90.2887 31.1983 90.7097 30.6721C91.1306 30.1458 91.3562 29.364 91.3562 28.3265C91.3562 27.304 91.1306 26.5222 90.6946 25.9959C90.2587 25.4697 89.6271 25.2141 88.8302 25.2141C88.0032 25.2141 87.3717 25.4847 86.9057 26.041C86.4546 26.5974 86.2291 27.3642 86.2291 28.3866Z" fill="white"/>
<path d="M97.04 26.0564C97.04 26.3722 97.1453 26.6279 97.3407 26.8083C97.5512 26.9886 98.0023 27.2143 98.694 27.5C99.5961 27.8608 100.228 28.2667 100.588 28.7178C100.949 29.1689 101.13 29.7102 101.13 30.3416C101.13 31.2438 100.784 31.9655 100.092 32.5069C99.4006 33.0481 98.4683 33.3188 97.2956 33.3188C96.9047 33.3188 96.4686 33.2736 95.9875 33.1683C95.5063 33.0782 95.1004 32.9429 94.7695 32.8076V30.5973C95.1756 30.883 95.6116 31.1085 96.0927 31.2739C96.5589 31.4392 96.9949 31.5295 97.3708 31.5295C97.882 31.5295 98.2578 31.4543 98.4984 31.319C98.739 31.1837 98.8593 30.9431 98.8593 30.5973C98.8593 30.2815 98.739 30.0259 98.4834 29.8155C98.2278 29.605 97.7617 29.3493 97.055 29.0787C96.228 28.7329 95.6416 28.3419 95.2958 27.9059C94.95 27.4698 94.7695 26.9136 94.7695 26.252C94.7695 25.395 95.1154 24.6882 95.7921 24.1319C96.4686 23.5756 97.3557 23.3049 98.4534 23.3049C98.7841 23.3049 99.16 23.335 99.581 23.4102C100.002 23.4854 100.348 23.5756 100.618 23.6959V25.831C100.318 25.6355 99.972 25.47 99.581 25.3198C99.1901 25.1845 98.7841 25.1093 98.4082 25.1093C97.9872 25.1093 97.6414 25.1994 97.4159 25.3648C97.1603 25.5303 97.04 25.7709 97.04 26.0564Z" fill="white"/>
<path d="M102.122 28.4618C102.122 26.8831 102.573 25.6351 103.46 24.7029C104.347 23.7856 105.595 23.3196 107.174 23.3196C108.662 23.3196 109.835 23.7707 110.677 24.6577C111.519 25.5448 111.94 26.7478 111.94 28.2513C111.94 29.7999 111.489 31.0328 110.602 31.9501C109.715 32.8672 108.497 33.3183 106.963 33.3183C105.49 33.3183 104.302 32.8823 103.445 32.0102C102.558 31.1532 102.122 29.9653 102.122 28.4618ZM104.452 28.3866C104.452 29.3789 104.678 30.1458 105.129 30.6721C105.58 31.1983 106.227 31.4539 107.068 31.4539C107.88 31.4539 108.512 31.1983 108.933 30.6721C109.354 30.1458 109.579 29.364 109.579 28.3265C109.579 27.304 109.354 26.5222 108.918 25.9959C108.482 25.4697 107.85 25.2141 107.053 25.2141C106.227 25.2141 105.595 25.4847 105.129 26.041C104.678 26.5974 104.452 27.3642 104.452 28.3866Z" fill="white"/>
<path d="M119.353 25.3899V30.2916C119.353 31.314 119.594 32.0659 120.06 32.5771C120.526 33.0882 121.247 33.3288 122.195 33.3288C122.511 33.3288 122.841 33.2988 123.172 33.2236C123.503 33.1484 123.743 33.0882 123.879 32.9981V31.1337C123.743 31.2238 123.578 31.299 123.398 31.3591C123.217 31.4192 123.052 31.4494 122.931 31.4494C122.48 31.4494 122.134 31.3291 121.924 31.0885C121.714 30.8479 121.608 30.4269 121.608 29.8405V25.375H123.894V23.5406H121.623V20.7139L119.368 21.4056V23.5556H116.015V22.3979C116.015 21.8264 116.135 21.3905 116.391 21.0898C116.646 20.7891 117.007 20.6537 117.474 20.6537C117.714 20.6537 117.924 20.6839 118.12 20.744C118.301 20.8041 118.436 20.8642 118.511 20.9093V18.9697C118.346 18.9096 118.165 18.8795 117.955 18.8495C117.744 18.8194 117.504 18.8043 117.233 18.8043C116.21 18.8043 115.369 19.1201 114.722 19.7666C114.075 20.4131 113.745 21.2251 113.745 22.2325V23.5556H112.151V25.3899H113.745V33.1033H116.015V25.3899H119.353Z" fill="white"/>
<path d="M63.0741 19.7719V33.0935H60.7586V22.6587H60.7286L56.5938 33.0935H55.0601L50.82 22.6587H50.79V33.0935H48.6549V19.7719H51.9627L55.7969 29.6504H55.857L59.9016 19.7719H63.0741Z" fill="white"/>
</svg>
