<svg version="1.1" xmlns="http://www.w3.org/2000/svg" viewBox="0 0 2152.7833166291475 1605.4889451296951" width="2152.7833166291475" height="1605.4889451296951">
  <!-- svg-source:excalidraw -->
  
  <defs>
    <style class="style-fonts">
      @font-face {
        font-family: "Virgil";
        src: url("https://excalidraw.com/Virgil.woff2");
      }
      @font-face {
        font-family: "Cascadia";
        src: url("https://excalidraw.com/Cascadia.woff2");
      }
      @font-face {
        font-family: "Assistant";
        src: url("https://excalidraw.com/Assistant-Regular.woff2");
      }
    </style>
    
  </defs>
  <rect x="0" y="0" width="2152.7833166291475" height="1605.4889451296951" fill="#ffffff"></rect><g stroke-linecap="round" transform="translate(463.40791727517967 401.8881563454661) rotate(0 839.6876996769839 596.8003943921145)"><path d="M32 0 C577.6 4.59, 1124.71 4.16, 1647.38 0 M32 0 C546.94 2.93, 1061.67 2.76, 1647.38 0 M1647.38 0 C1669.1 1.43, 1678.55 9.07, 1679.38 32 M1647.38 0 C1667.24 -1.82, 1680.76 12.51, 1679.38 32 M1679.38 32 C1677.2 409.87, 1676.77 787.02, 1679.38 1161.6 M1679.38 32 C1675.18 322.72, 1674.75 613.01, 1679.38 1161.6 M1679.38 1161.6 C1680.7 1182.77, 1667.29 1194.92, 1647.38 1193.6 M1679.38 1161.6 C1680.73 1184.63, 1667.63 1192.23, 1647.38 1193.6 M1647.38 1193.6 C1106.05 1197, 564.6 1196.54, 32 1193.6 M1647.38 1193.6 C1232.8 1189.27, 817.7 1189.46, 32 1193.6 M32 1193.6 C11.17 1193.5, 0.15 1181.24, 0 1161.6 M32 1193.6 C10.43 1192.41, -2.24 1182.83, 0 1161.6 M0 1161.6 C-1.35 896.24, -1.74 631.17, 0 32 M0 1161.6 C-1.47 922.67, -1.22 684.13, 0 32 M0 32 C0.69 12.39, 12.5 -1.07, 32 0 M0 32 C1.57 8.73, 10.01 -1.65, 32 0" stroke="#1e1e1e" stroke-width="2" fill="none"></path></g><g transform="translate(489.32872484347945 429.50314042049195) rotate(0 50.63995361328125 12.5)"><text x="0" y="0" font-family="Virgil, Segoe UI Emoji" font-size="20px" fill="#1e1e1e" text-anchor="start" style="white-space: pre;" direction="ltr" dominant-baseline="text-before-edge">AppLayout</text></g><g stroke-linecap="round" transform="translate(504.84669414421137 485.75577913564484) rotate(0 798.2055459063948 522.7615908184043)"><path d="M32 0 C518.28 -3.53, 1005.32 -4.69, 1564.41 0 M32 0 C613.04 -3.57, 1194.25 -3.98, 1564.41 0 M1564.41 0 C1584.99 1.31, 1594.81 10.84, 1596.41 32 M1564.41 0 C1587.72 -1.82, 1594.35 12.64, 1596.41 32 M1596.41 32 C1598.49 228.72, 1599.06 425.05, 1596.41 1013.52 M1596.41 32 C1599.18 404.02, 1599.15 775.28, 1596.41 1013.52 M1596.41 1013.52 C1595.91 1035.66, 1586.46 1043.87, 1564.41 1045.52 M1596.41 1013.52 C1594.8 1033.8, 1585.41 1047.03, 1564.41 1045.52 M1564.41 1045.52 C1233.22 1046.52, 901.08 1046.78, 32 1045.52 M1564.41 1045.52 C1079.1 1043.89, 593.14 1043.31, 32 1045.52 M32 1045.52 C9.78 1044.44, 1.95 1036.13, 0 1013.52 M32 1045.52 C9.87 1044.75, 0.18 1036.2, 0 1013.52 M0 1013.52 C1.68 726.67, 2.53 438.98, 0 32 M0 1013.52 C3.88 767.96, 3.96 522.94, 0 32 M0 32 C-0.26 10.66, 9.37 -0.98, 32 0 M0 32 C1.17 9.93, 9.45 -0.03, 32 0" stroke="#1e1e1e" stroke-width="2" fill="none"></path></g><g transform="translate(532.0031404204922 516.7917177371085) rotate(0 55.40995788574219 12.5)"><text x="0" y="0" font-family="Virgil, Segoe UI Emoji" font-size="20px" fill="#1e1e1e" text-anchor="start" style="white-space: pre;" direction="ltr" dominant-baseline="text-before-edge">MainLayout</text></g><g stroke-linecap="round" transform="translate(553.3403482089984 565.2853718018955) rotate(0 758.4407495732696 466.50895210325143)"><path d="M32 0 C414.29 -4.09, 796.15 -3.26, 1484.88 0 M32 0 C455.33 -4.28, 879.39 -4.23, 1484.88 0 M1484.88 0 C1506.24 -1.95, 1518.63 9.93, 1516.88 32 M1484.88 0 C1506.53 -1.05, 1518.75 10.85, 1516.88 32 M1516.88 32 C1520.24 359.34, 1520.07 685.71, 1516.88 901.02 M1516.88 32 C1514.69 358, 1514.55 683.88, 1516.88 901.02 M1516.88 901.02 C1516.56 923.92, 1507.26 932.86, 1484.88 933.02 M1516.88 901.02 C1517.81 920.76, 1506.65 935.24, 1484.88 933.02 M1484.88 933.02 C1176.15 933.62, 868.72 932.88, 32 933.02 M1484.88 933.02 C938.1 928, 392.1 928.18, 32 933.02 M32 933.02 C11.34 933.65, -1.26 922.17, 0 901.02 M32 933.02 C10.38 934.57, 1.89 921.88, 0 901.02 M0 901.02 C2.53 691.66, 1.68 483.14, 0 32 M0 901.02 C-3.58 723.1, -3.02 545.46, 0 32 M0 32 C-0.7 11.14, 12.28 0.24, 32 0 M0 32 C-1.42 12.76, 8.75 -1.47, 32 0" stroke="#1e1e1e" stroke-width="2" fill="none"></path></g><g transform="translate(594.0750176234194 590.5020719155848) rotate(0 21.189987182617188 12.5)"><text x="0" y="0" font-family="Virgil, Segoe UI Emoji" font-size="20px" fill="#1e1e1e" text-anchor="start" style="white-space: pre;" direction="ltr" dominant-baseline="text-before-edge">Main</text></g><g stroke-linecap="round" transform="translate(578.5570483226877 615.7187720292741) rotate(0 97.95718121086986 435.4730135017877)"><path d="M32 0 C72.39 -0.84, 110.2 0.52, 163.91 0 M32 0 C62 0.54, 90.21 -0.7, 163.91 0 M163.91 0 C185.74 -1.34, 196.98 11.64, 195.91 32 M163.91 0 C184.22 0, 197.47 11.99, 195.91 32 M195.91 32 C197.77 325.56, 198.17 616.82, 195.91 838.95 M195.91 32 C194.17 284.55, 194.56 536.67, 195.91 838.95 M195.91 838.95 C196.57 858.97, 185.97 872.08, 163.91 870.95 M195.91 838.95 C194.47 862.31, 185.1 871.44, 163.91 870.95 M163.91 870.95 C127.88 872.2, 95.83 870.26, 32 870.95 M163.91 870.95 C118.86 870.64, 74.04 868.86, 32 870.95 M32 870.95 C9.98 869.68, 0.89 859.97, 0 838.95 M32 870.95 C11.68 870.13, -0.04 861.04, 0 838.95 M0 838.95 C-0.65 587.78, 0.51 335.82, 0 32 M0 838.95 C-0.3 635.84, -0.4 432.29, 0 32 M0 32 C-1.59 11.55, 11.69 -0.43, 32 0 M0 32 C-1.33 12.9, 12.04 -0.8, 32 0" stroke="#1e1e1e" stroke-width="2" fill="none"></path></g><g transform="translate(630.9301947126578 666.1521722566526) rotate(0 45.09996795654297 12.5)"><text x="0" y="0" font-family="Virgil, Segoe UI Emoji" font-size="20px" fill="#1e1e1e" text-anchor="start" style="white-space: pre;" direction="ltr" dominant-baseline="text-before-edge">MainSinar</text></g><g stroke-linecap="round" transform="translate(611.5327330867428 724.3445571343971) rotate(0 68.86098877199754 64.98149644681473)"><path d="M32 0 C46.64 0.23, 64.68 1.99, 105.72 0 M32 0 C47.26 -0.87, 62.12 -1.13, 105.72 0 M105.72 0 C128.21 0.12, 137.18 12.41, 137.72 32 M105.72 0 C126.93 -1.03, 135.89 12.08, 137.72 32 M137.72 32 C139.05 52.16, 137.34 73.81, 137.72 97.96 M137.72 32 C138.86 46.82, 137.87 62.13, 137.72 97.96 M137.72 97.96 C137.86 120.61, 125.43 130.81, 105.72 129.96 M137.72 97.96 C139.62 118.68, 126.8 131.23, 105.72 129.96 M105.72 129.96 C87.17 128.79, 68.62 131.54, 32 129.96 M105.72 129.96 C79.27 129.22, 52.49 130.46, 32 129.96 M32 129.96 C10.28 128.89, -1.38 118.01, 0 97.96 M32 129.96 C10.68 131.57, 0.72 117.8, 0 97.96 M0 97.96 C0.11 76.03, -0.07 48.6, 0 32 M0 97.96 C-0.78 74.45, -0.39 49.5, 0 32 M0 32 C1.81 11.7, 10.07 0.74, 32 0 M0 32 C-0.5 12.1, 9.83 -1.2, 32 0" stroke="#1e1e1e" stroke-width="2" fill="none"></path></g><g stroke-linecap="round" transform="translate(617.3519715745172 891.1627271172647) rotate(0 70.80073493458906 232.76953951097778)"><path d="M32 0 C61.74 2.23, 92.13 -1.28, 109.6 0 M32 0 C53.23 -0.63, 73.82 -0.45, 109.6 0 M109.6 0 C130.57 0.41, 140.12 9.38, 141.6 32 M109.6 0 C133.02 1.81, 140.62 8.47, 141.6 32 M141.6 32 C141.76 126.1, 140.8 221.33, 141.6 433.54 M141.6 32 C141.07 192.21, 141.07 353.04, 141.6 433.54 M141.6 433.54 C142.77 455.77, 132.63 464.4, 109.6 465.54 M141.6 433.54 C141.51 455.16, 129.21 465.5, 109.6 465.54 M109.6 465.54 C94.39 465.79, 79.32 466.82, 32 465.54 M109.6 465.54 C90.51 465.79, 69.57 465.65, 32 465.54 M32 465.54 C12.3 467.3, -1.07 453.61, 0 433.54 M32 465.54 C10.72 463.36, 2.06 456.52, 0 433.54 M0 433.54 C-0.61 347.34, -1.01 262.9, 0 32 M0 433.54 C1.5 300, 2.08 167.33, 0 32 M0 32 C-0.81 12.27, 10.15 -1.88, 32 0 M0 32 C-1.2 12.67, 12.57 1.79, 32 0" stroke="#1e1e1e" stroke-width="2" fill="none"></path></g><g stroke-linecap="round" transform="translate(822.9650648092143 638.9957259803718) rotate(0 599.3815642407681 410.25631338809853)"><path d="M32 0 C462.04 3.14, 891.14 4.37, 1166.76 0 M32 0 C367.19 1.31, 703.1 1.31, 1166.76 0 M1166.76 0 C1187.97 -0.14, 1197.74 11.65, 1198.76 32 M1166.76 0 C1189.76 -1.42, 1198.07 11.4, 1198.76 32 M1198.76 32 C1196.89 195.89, 1197.34 359.58, 1198.76 788.51 M1198.76 32 C1197.83 238.72, 1197.4 446.1, 1198.76 788.51 M1198.76 788.51 C1199.14 811.65, 1189.52 819.56, 1166.76 820.51 M1198.76 788.51 C1196.91 807.93, 1187.73 821.65, 1166.76 820.51 M1166.76 820.51 C728.68 822.67, 291.51 823.04, 32 820.51 M1166.76 820.51 C837.99 822.61, 510.32 822.97, 32 820.51 M32 820.51 C9.59 820.15, 1.16 811.16, 0 788.51 M32 820.51 C10.04 821.54, -0.7 808.36, 0 788.51 M0 788.51 C1.54 517.15, 1.75 246.39, 0 32 M0 788.51 C0.3 509.28, -0.35 230.49, 0 32 M0 32 C1.39 8.74, 10.42 1.51, 32 0 M0 32 C-0.52 12.43, 11.1 -1.59, 32 0" stroke="#1e1e1e" stroke-width="2" fill="none"></path></g><g stroke-linecap="round" transform="translate(623.1712100622917 920.2589195561368) rotate(0 60.132131040335935 64.01162336551897)"><path d="M30.07 0 C52.99 1.04, 79.21 -1.22, 90.2 0 M30.07 0 C49.52 0.08, 69.43 -0.06, 90.2 0 M90.2 0 C110.4 1.51, 120.95 10.98, 120.26 30.07 M90.2 0 C111.01 2.14, 120.54 10.61, 120.26 30.07 M120.26 30.07 C122.06 55.75, 121.54 80.91, 120.26 97.96 M120.26 30.07 C120.55 52.39, 120.49 74.37, 120.26 97.96 M120.26 97.96 C121.88 118.26, 111.73 127.92, 90.2 128.02 M120.26 97.96 C121.53 119.64, 111.96 129.24, 90.2 128.02 M90.2 128.02 C70.02 129.48, 47.45 126.41, 30.07 128.02 M90.2 128.02 C75.52 128.52, 62.4 127.49, 30.07 128.02 M30.07 128.02 C11.27 129.66, 1.75 116.84, 0 97.96 M30.07 128.02 C12.04 130.14, 0.36 117.59, 0 97.96 M0 97.96 C-0.6 73.43, 1.94 46.15, 0 30.07 M0 97.96 C1.36 74.76, -0.53 52.25, 0 30.07 M0 30.07 C1.44 10.11, 9.87 -1.46, 30.07 0 M0 30.07 C1.56 9.8, 10.21 -1.69, 30.07 0" stroke="#1e1e1e" stroke-width="2" fill="none"></path></g><g transform="translate(672.0533411026277 961.7705429216558) rotate(0 11.25 22.5)"><text x="11.25" y="0" font-family="Virgil, Segoe UI Emoji" font-size="36px" fill="#1e1e1e" text-anchor="middle" style="white-space: pre;" direction="ltr" dominant-baseline="text-before-edge">+</text></g><g stroke-linecap="round"><g transform="translate(681.3635949400364 1021.1257200108939) rotate(0 -120.26426208067198 -349.15430926646684)"><path d="M0.89 0.55 C-39.4 -115.88, -201.13 -582.91, -241.5 -699.29 M-0.1 -0.2 C-40.04 -116.46, -199.5 -581.68, -239.29 -698.27" stroke="#1e1e1e" stroke-width="2" fill="none"></path></g><g transform="translate(681.3635949400364 1021.1257200108939) rotate(0 -120.26426208067198 -349.15430926646684)"><path d="M-223.6 -678.81 C-227.6 -686.55, -235.19 -692.48, -239.29 -698.27 M-223.6 -678.81 C-228.4 -685.57, -234.41 -691.6, -239.29 -698.27" stroke="#1e1e1e" stroke-width="2" fill="none"></path></g><g transform="translate(681.3635949400364 1021.1257200108939) rotate(0 -120.26426208067198 -349.15430926646684)"><path d="M-239.78 -673.27 C-238.56 -682.91, -240.96 -690.61, -239.29 -698.27 M-239.78 -673.27 C-238.96 -681.99, -239.33 -689.95, -239.29 -698.27" stroke="#1e1e1e" stroke-width="2" fill="none"></path></g></g><mask></mask><g stroke-linecap="round" transform="translate(10 10) rotate(0 236.64903183616082 151.30020068213548)"><path d="M32 0 C171.39 1.81, 313.21 0.88, 441.3 0 M32 0 C166.25 1.85, 299.88 2.02, 441.3 0 M441.3 0 C461.89 -0.23, 473.77 11.72, 473.3 32 M441.3 0 C461.37 1.62, 475.54 12.79, 473.3 32 M473.3 32 C473.21 92.45, 473.91 156.88, 473.3 270.6 M473.3 32 C473.51 97.32, 474.15 162.24, 473.3 270.6 M473.3 270.6 C475.28 290.53, 463.42 301.55, 441.3 302.6 M473.3 270.6 C474.29 290.83, 460.89 302.4, 441.3 302.6 M441.3 302.6 C329.34 304.08, 214.72 305.05, 32 302.6 M441.3 302.6 C338.14 304.6, 234.47 305.24, 32 302.6 M32 302.6 C12.62 303.96, 0.9 292.82, 0 270.6 M32 302.6 C11.38 302.96, -0.67 293.53, 0 270.6 M0 270.6 C-0.33 192.68, 2.06 115.27, 0 32 M0 270.6 C-0.93 212.1, -1.29 152.9, 0 32 M0 32 C-0.68 11.38, 11.6 1.86, 32 0 M0 32 C-1.53 10.86, 12.94 -1.11, 32 0" stroke="#1e1e1e" stroke-width="2" fill="none"></path></g><g transform="translate(170.69238487774442 150.99365406478682) rotate(0 50.74995422363281 12.5)"><text x="0" y="0" font-family="Virgil, Segoe UI Emoji" font-size="20px" fill="#1e1e1e" text-anchor="start" style="white-space: pre;" direction="ltr" dominant-baseline="text-before-edge">ClanListst</text></g><g transform="translate(867.5792265488185 679.7303953947917) rotate(0 65.06993865966797 12.5)"><text x="0" y="0" font-family="Virgil, Segoe UI Emoji" font-size="20px" fill="#1e1e1e" text-anchor="start" style="white-space: pre;" direction="ltr" dominant-baseline="text-before-edge">ServerLayout</text></g><g stroke-linecap="round" transform="translate(863.6997342236355 732.1035417847618) rotate(0 135.7822313814038 363.7024054859029)"><path d="M32 0 C96.39 -0.87, 161.93 -0.03, 239.56 0 M32 0 C101.82 1.64, 172.58 1.72, 239.56 0 M239.56 0 C259.3 -0.4, 271.76 12.55, 271.56 32 M239.56 0 C262.93 -2.17, 269.42 10.93, 271.56 32 M271.56 32 C270.41 177.83, 269.92 322.45, 271.56 695.4 M271.56 32 C269.79 218.37, 270.03 405.47, 271.56 695.4 M271.56 695.4 C272.95 717.32, 260.7 728.88, 239.56 727.4 M271.56 695.4 C270.5 714.57, 262.91 729.45, 239.56 727.4 M239.56 727.4 C179.4 729.75, 120.64 728.19, 32 727.4 M239.56 727.4 C174.29 726.32, 109.85 726.58, 32 727.4 M32 727.4 C12.02 727.61, -1.22 714.76, 0 695.4 M32 727.4 C8.93 725.13, -0.38 716.32, 0 695.4 M0 695.4 C-2.77 552.64, -3.31 409.16, 0 32 M0 695.4 C2.03 526.76, 2.1 357.6, 0 32 M0 32 C0.9 12.04, 12 1.15, 32 0 M0 32 C-2.08 10.39, 11.16 1.92, 32 0" stroke="#1e1e1e" stroke-width="2" fill="none"></path></g><g transform="translate(902.4946574754649 774.7779573617745) rotate(0 66.3299331665039 12.5)"><text x="0" y="0" font-family="Virgil, Segoe UI Emoji" font-size="20px" fill="#1e1e1e" text-anchor="start" style="white-space: pre;" direction="ltr" dominant-baseline="text-before-edge">ServerSidebar</text></g><g stroke-linecap="round" transform="translate(888.9164343373245 856.2472961906165) rotate(0 114.44502359289754 288.05230514483515)"><path d="M32 0 C68.13 -0.42, 104.72 -0.38, 196.89 0 M32 0 C90.22 1.12, 149.18 1.5, 196.89 0 M196.89 0 C217.55 -0.18, 227.46 10.04, 228.89 32 M196.89 0 C219.94 -0.48, 227.6 9.71, 228.89 32 M228.89 32 C230.47 236.62, 229.33 440.78, 228.89 544.1 M228.89 32 C229.18 185.97, 228.94 341.03, 228.89 544.1 M228.89 544.1 C228.52 564.67, 220.02 578.06, 196.89 576.1 M228.89 544.1 C230.32 566.57, 217.54 576.73, 196.89 576.1 M196.89 576.1 C141.78 575.9, 84.69 576.06, 32 576.1 M196.89 576.1 C135.31 576.7, 73.68 577.64, 32 576.1 M32 576.1 C9.04 574.68, 0.88 566.47, 0 544.1 M32 576.1 C10.66 578.16, 0.79 565.1, 0 544.1 M0 544.1 C-1 346.69, -0.45 150.24, 0 32 M0 544.1 C1.63 404.06, 2.21 264.79, 0 32 M0 32 C-1.68 9.14, 12.34 0.86, 32 0 M0 32 C0.35 8.65, 10.2 1.46, 32 0" stroke="#1e1e1e" stroke-width="2" fill="none"></path></g><g transform="translate(921.8921191013801 881.463996304306) rotate(0 54.74995422363281 12.5)"><text x="0" y="0" font-family="Virgil, Segoe UI Emoji" font-size="20px" fill="#1e1e1e" text-anchor="start" style="white-space: pre;" direction="ltr" dominant-baseline="text-before-edge">ChannelList</text></g><g stroke-linecap="round" transform="translate(910.253642125831 962.9333351331481) rotate(0 94.07768888568694 22.307080869802007)"><path d="M11.15 0 C43.52 -2.82, 81.57 0.81, 177 0 M11.15 0 C56.14 -0.39, 99.18 -1.71, 177 0 M177 0 C184.04 -1.58, 187.3 1.99, 188.16 11.15 M177 0 C185.33 -1.6, 185.91 4.66, 188.16 11.15 M188.16 11.15 C186.58 21.47, 186.54 28.94, 188.16 33.46 M188.16 11.15 C188.97 19.27, 187.62 26.82, 188.16 33.46 M188.16 33.46 C189.75 39.57, 186.33 45.8, 177 44.61 M188.16 33.46 C189.37 40.5, 182.72 42.74, 177 44.61 M177 44.61 C142.62 44.02, 106.64 44.15, 11.15 44.61 M177 44.61 C137.28 43.93, 98.65 43.3, 11.15 44.61 M11.15 44.61 C3.9 43.04, -1.3 40.21, 0 33.46 M11.15 44.61 C2.9 44.72, 0.49 41.88, 0 33.46 M0 33.46 C-0.99 25.69, 0.63 20.92, 0 11.15 M0 33.46 C0.12 29.31, 0.16 23.22, 0 11.15 M0 11.15 C0.49 4.61, 3.36 1.19, 11.15 0 M0 11.15 C-1.21 3.05, 4.87 0.37, 11.15 0" stroke="#1e1e1e" stroke-width="2" fill="none"></path></g><g stroke-linecap="round" transform="translate(911.2235152071262 1037.6135623929201) rotate(0 94.07768888568694 22.307080869802007)"><path d="M11.15 0 C61.77 0.37, 113.85 1.51, 177 0 M11.15 0 C67.96 -0.63, 124.53 0.18, 177 0 M177 0 C186.41 -1.63, 186.98 3.27, 188.16 11.15 M177 0 C184.41 1.66, 188.21 2.58, 188.16 11.15 M188.16 11.15 C189.44 17.33, 187.67 26.62, 188.16 33.46 M188.16 11.15 C187.36 17.55, 188.2 24.66, 188.16 33.46 M188.16 33.46 C189.5 39.57, 182.9 44.03, 177 44.61 M188.16 33.46 C190.26 39.38, 186.56 42.91, 177 44.61 M177 44.61 C135.97 42.53, 93.41 44.61, 11.15 44.61 M177 44.61 C140.87 44.31, 103.89 45.42, 11.15 44.61 M11.15 44.61 C2.46 43.89, 1.8 41.13, 0 33.46 M11.15 44.61 C3.9 43.93, 1.26 39.45, 0 33.46 M0 33.46 C0.08 25.55, -0.23 16.43, 0 11.15 M0 33.46 C0.64 27.23, -0.49 22.39, 0 11.15 M0 11.15 C0.18 5.25, 2.44 -0.18, 11.15 0 M0 11.15 C1.22 3.13, 4.31 -0.85, 11.15 0" stroke="#1e1e1e" stroke-width="2" fill="none"></path></g><g stroke-linecap="round" transform="translate(918.9824998574927 1121.022647384354) rotate(0 94.07768888568694 22.307080869802007)"><path d="M11.15 0 C51.75 -0.83, 90.53 -0.99, 177 0 M11.15 0 C53.91 0.9, 95.91 1.94, 177 0 M177 0 C182.82 -0.76, 188.17 4.13, 188.16 11.15 M177 0 C183.7 -1, 189.98 2.27, 188.16 11.15 M188.16 11.15 C188.51 16.45, 189.45 21.67, 188.16 33.46 M188.16 11.15 C188.04 19.68, 187.88 27.6, 188.16 33.46 M188.16 33.46 C187 40.6, 185.07 45.82, 177 44.61 M188.16 33.46 C186.26 39.68, 183.85 44.82, 177 44.61 M177 44.61 C115.63 43.95, 52.65 43.73, 11.15 44.61 M177 44.61 C133.64 44.28, 89.02 44.04, 11.15 44.61 M11.15 44.61 C4.06 45.15, -1.93 40.02, 0 33.46 M11.15 44.61 C3.23 45.9, -0.58 39.5, 0 33.46 M0 33.46 C-1.78 26.41, -1.48 17.22, 0 11.15 M0 33.46 C0.56 27.14, 0.53 19.08, 0 11.15 M0 11.15 C0.93 5, 3.83 0.71, 11.15 0 M0 11.15 C-2.17 3.19, 5.59 0.22, 11.15 0" stroke="#1e1e1e" stroke-width="2" fill="none"></path></g><g stroke-linecap="round" transform="translate(904.4344036380567 1333.4248521881211) rotate(0 102.80654661734843 44.61416173960413)"><path d="M22.31 0 C62.88 2.81, 105.13 1.17, 183.31 0 M22.31 0 C66.56 0.55, 110.24 1, 183.31 0 M183.31 0 C198.59 -0.34, 205.22 6.29, 205.61 22.31 M183.31 0 C197.83 0.73, 207 5.54, 205.61 22.31 M205.61 22.31 C207.03 32.06, 205.32 45.44, 205.61 66.92 M205.61 22.31 C205.39 34.25, 205.12 47.55, 205.61 66.92 M205.61 66.92 C206.98 82.29, 199.05 89.57, 183.31 89.23 M205.61 66.92 C206.23 79.58, 197.17 88.74, 183.31 89.23 M183.31 89.23 C127.09 86.58, 68.86 86.29, 22.31 89.23 M183.31 89.23 C128.01 89.35, 71.82 89.56, 22.31 89.23 M22.31 89.23 C8.19 90.49, -1.97 82.72, 0 66.92 M22.31 89.23 C8.91 89.35, 0.82 79.62, 0 66.92 M0 66.92 C0.24 52.95, -0.27 43.51, 0 22.31 M0 66.92 C-0.45 53.49, -1.33 38.93, 0 22.31 M0 22.31 C-1.48 5.59, 8.79 -1.27, 22.31 0 M0 22.31 C-1.17 7.94, 5.26 1, 22.31 0" stroke="#1e1e1e" stroke-width="2" fill="none"></path></g><g transform="translate(958.7472961906183 1362.5210446269934) rotate(0 29.919960021972656 12.5)"><text x="0" y="0" font-family="Virgil, Segoe UI Emoji" font-size="20px" fill="#1e1e1e" text-anchor="start" style="white-space: pre;" direction="ltr" dominant-baseline="text-before-edge">profile</text></g><g stroke-linecap="round" transform="translate(1181.8181048886386 798.0549113128718) rotate(0 412.19605955069005 320.05811682759474)"><path d="M32 0 C284.63 0.49, 536.93 1.39, 792.39 0 M32 0 C270.47 -2.59, 508.65 -2.65, 792.39 0 M792.39 0 C814.55 -1.24, 823.67 12.26, 824.39 32 M792.39 0 C815.4 -1.88, 826.04 10.14, 824.39 32 M824.39 32 C822.72 240.67, 821.75 448.46, 824.39 608.12 M824.39 32 C824.09 161.74, 824.34 291.26, 824.39 608.12 M824.39 608.12 C825.02 628.72, 814.83 638.82, 792.39 640.12 M824.39 608.12 C823.51 629.71, 815.18 638.95, 792.39 640.12 M792.39 640.12 C536.27 640.75, 280.81 641.54, 32 640.12 M792.39 640.12 C497.32 641.04, 201.58 641.45, 32 640.12 M32 640.12 C9.68 639.64, -0.31 628.61, 0 608.12 M32 640.12 C9.72 641.01, 1.12 630.65, 0 608.12 M0 608.12 C-0.9 456.15, -0.43 303.93, 0 32 M0 608.12 C1.82 468.77, 2.07 328.62, 0 32 M0 32 C-1.66 11.03, 9.29 0.88, 32 0 M0 32 C-1.77 11.37, 10.39 -1.55, 32 0" stroke="#1e1e1e" stroke-width="2" fill="none"></path></g><g transform="translate(1234.191251278608 823.2716114265613) rotate(0 69.70994567871094 12.5)"><text x="0" y="0" font-family="Virgil, Segoe UI Emoji" font-size="20px" fill="#1e1e1e" text-anchor="start" style="white-space: pre;" direction="ltr" dominant-baseline="text-before-edge">ChannelLayout</text></g><g stroke-linecap="round" transform="translate(1232.2515051160171 873.7050116539401) rotate(0 270.59458968151193 174.57715463323348)"><path d="M32 0 C176.59 -0.71, 321.04 -0.68, 509.19 0 M32 0 C205 -0.83, 378.5 -0.72, 509.19 0 M509.19 0 C530.76 1.66, 540.5 10.85, 541.19 32 M509.19 0 C529.02 0.66, 541.85 11.72, 541.19 32 M541.19 32 C542.46 110.66, 542.65 192.3, 541.19 317.15 M541.19 32 C543.91 109.78, 542.81 187.15, 541.19 317.15 M541.19 317.15 C539.55 340.45, 528.99 351.06, 509.19 349.15 M541.19 317.15 C542.94 338.97, 529.8 347.73, 509.19 349.15 M509.19 349.15 C373.61 350.01, 238.06 349.78, 32 349.15 M509.19 349.15 C383.58 350.66, 258.13 351.06, 32 349.15 M32 349.15 C9.02 350.83, -0.1 336.66, 0 317.15 M32 349.15 C9.23 350.48, 1.76 338.43, 0 317.15 M0 317.15 C-0.3 259.83, 1.22 202.6, 0 32 M0 317.15 C0.43 250.5, -0.13 183.62, 0 32 M0 32 C-1.37 11.48, 11.43 0.55, 32 0 M0 32 C-1.55 10.16, 9.29 0.08, 32 0" stroke="#1e1e1e" stroke-width="2" fill="none"></path></g><g transform="translate(1271.046428367847 873.7050116539401) rotate(0 82.05992889404297 25)"><text x="0" y="0" font-family="Virgil, Segoe UI Emoji" font-size="20px" fill="#1e1e1e" text-anchor="start" style="white-space: pre;" direction="ltr" dominant-baseline="text-before-edge">ChannelMessages</text><text x="0" y="25" font-family="Virgil, Segoe UI Emoji" font-size="20px" fill="#1e1e1e" text-anchor="start" style="white-space: pre;" direction="ltr" dominant-baseline="text-before-edge"></text></g><g stroke-linecap="round" transform="translate(1282.6849053433957 935.7768888568673) rotate(0 198.8239816656269 33.945557845351004)"><path d="M16.97 0 C110.61 -1.64, 204.95 -3.17, 380.68 0 M16.97 0 C95.8 2.13, 174.07 2.16, 380.68 0 M380.68 0 C392.98 -0.3, 398.11 5.38, 397.65 16.97 M380.68 0 C390.07 1.76, 398.04 3.4, 397.65 16.97 M397.65 16.97 C397.69 30.49, 396.76 43.87, 397.65 50.92 M397.65 16.97 C397.42 28.25, 397.03 37.39, 397.65 50.92 M397.65 50.92 C396.63 62.35, 390.25 67.84, 380.68 67.89 M397.65 50.92 C398.43 63.52, 393.78 69.26, 380.68 67.89 M380.68 67.89 C271.93 65.76, 164.7 66.28, 16.97 67.89 M380.68 67.89 C297.7 66.8, 215.31 66.71, 16.97 67.89 M16.97 67.89 C6.91 69.75, -1.36 63.12, 0 50.92 M16.97 67.89 C7.13 69.64, -1.27 61.18, 0 50.92 M0 50.92 C1.17 43.09, -2.03 33.97, 0 16.97 M0 50.92 C-0.38 40.93, 0.86 30.52, 0 16.97 M0 16.97 C-0.3 4.68, 6.12 -1.64, 16.97 0 M0 16.97 C-0.52 6.41, 7.93 0.14, 16.97 0" stroke="#1e1e1e" stroke-width="2" fill="none"></path></g><g transform="translate(1404.948950485585 957.2224467022183) rotate(0 76.5599365234375 12.5)"><text x="76.5599365234375" y="0" font-family="Virgil, Segoe UI Emoji" font-size="20px" fill="#1e1e1e" text-anchor="middle" style="white-space: pre;" direction="ltr" dominant-baseline="text-before-edge">ChannelMessahe</text></g><g stroke-linecap="round" transform="translate(1295.29325540024 1035.6738162303286) rotate(0 198.8239816656269 33.945557845351004)"><path d="M16.97 0 C132.31 -0.72, 248.58 0.1, 380.68 0 M16.97 0 C157.64 1.73, 296.53 1.75, 380.68 0 M380.68 0 C392.92 1.43, 396.93 3.95, 397.65 16.97 M380.68 0 C393.76 1.78, 398.57 4.01, 397.65 16.97 M397.65 16.97 C395.46 27.74, 399.15 43.56, 397.65 50.92 M397.65 16.97 C398.34 29.56, 397.46 41.84, 397.65 50.92 M397.65 50.92 C397.91 62.12, 392.73 66.6, 380.68 67.89 M397.65 50.92 C397.91 62.48, 390.11 67.98, 380.68 67.89 M380.68 67.89 C250.26 66.14, 119.16 67.15, 16.97 67.89 M380.68 67.89 C239.26 67.54, 97.19 68.63, 16.97 67.89 M16.97 67.89 C5.45 66.61, 0.12 62.22, 0 50.92 M16.97 67.89 C5.56 67.7, -1.77 61.2, 0 50.92 M0 50.92 C-0.01 38.56, 0.13 29.33, 0 16.97 M0 50.92 C-0.77 40.46, -0.13 29.59, 0 16.97 M0 16.97 C1.88 7.22, 6.06 1.46, 16.97 0 M0 16.97 C0.65 6.88, 3.84 -0.88, 16.97 0" stroke="#1e1e1e" stroke-width="2" fill="none"></path></g><g stroke-linecap="round" transform="translate(1295.2932554002405 1128.7816320347197) rotate(0 198.8239816656269 33.945557845351004)"><path d="M16.97 0 C98.72 -1.96, 179.83 -1.47, 380.68 0 M16.97 0 C133.51 -0.28, 250.11 -0.64, 380.68 0 M380.68 0 C392.22 0.22, 396.01 5.73, 397.65 16.97 M380.68 0 C393.39 2.24, 396.98 7.25, 397.65 16.97 M397.65 16.97 C399.72 25.55, 398.05 32.17, 397.65 50.92 M397.65 16.97 C397.43 23.93, 397.6 32.16, 397.65 50.92 M397.65 50.92 C397.57 62.07, 390.45 66.99, 380.68 67.89 M397.65 50.92 C398.62 63.65, 392.09 68.11, 380.68 67.89 M380.68 67.89 C285.17 70.26, 189.76 68.97, 16.97 67.89 M380.68 67.89 C265.84 68.21, 149.95 68.18, 16.97 67.89 M16.97 67.89 C6.23 68.96, -1.58 61.47, 0 50.92 M16.97 67.89 C4.73 68.01, -0.65 63.3, 0 50.92 M0 50.92 C0.37 39.44, -1.98 27.43, 0 16.97 M0 50.92 C0.33 37.35, 0.23 24.88, 0 16.97 M0 16.97 C1.77 4.02, 4.98 -0.22, 16.97 0 M0 16.97 C-0.91 6.02, 4.09 1.6, 16.97 0" stroke="#1e1e1e" stroke-width="2" fill="none"></path></g><g stroke-linecap="round" transform="translate(1236.1309974412002 1255.8350056844622) rotate(0 262.83560503114586 67.89111569070178)"><path d="M32 0 C155.59 -0.79, 279.18 -2.09, 493.67 0 M32 0 C197.86 -1.44, 364.7 -1.54, 493.67 0 M493.67 0 C513.06 1.52, 526.81 8.9, 525.67 32 M493.67 0 C513.84 1.23, 524.41 9.44, 525.67 32 M525.67 32 C526.39 51.43, 525.04 69.85, 525.67 103.78 M525.67 32 C525.47 47.41, 525.48 61.95, 525.67 103.78 M525.67 103.78 C526.74 125.73, 514.51 137.03, 493.67 135.78 M525.67 103.78 C527.75 123.25, 516.69 134.58, 493.67 135.78 M493.67 135.78 C318.57 134.15, 143.25 135.39, 32 135.78 M493.67 135.78 C366.16 136.13, 238.44 136.34, 32 135.78 M32 135.78 C8.69 136.63, 0.4 124.67, 0 103.78 M32 135.78 C10.64 136.93, 1.48 124.23, 0 103.78 M0 103.78 C-2.15 78.23, 0.66 53.44, 0 32 M0 103.78 C0.07 78.31, 1.03 52.47, 0 32 M0 32 C0.07 9.41, 12.22 1.79, 32 0 M0 32 C-0.67 8.38, 8.51 1.99, 32 0" stroke="#1e1e1e" stroke-width="2" fill="none"></path></g><g transform="translate(1271.8175992093747 1274.2928794300171) rotate(0 90.38992309570312 12.5)"><text x="0" y="0" font-family="Virgil, Segoe UI Emoji" font-size="20px" fill="#1e1e1e" text-anchor="start" style="white-space: pre;" direction="ltr" dominant-baseline="text-before-edge">ChanelMessageBox</text></g><g stroke-linecap="round" transform="translate(1251.6489667419319 1315.967136724798) rotate(0 233.73941259227377 32.005811682759486)"><path d="M16 0 C160.77 1.72, 305.97 1.11, 451.48 0 M16 0 C131.89 1.77, 247.76 1.27, 451.48 0 M451.48 0 C460.26 1.49, 468.5 4.05, 467.48 16 M451.48 0 C463.7 -0.08, 465.67 6.39, 467.48 16 M467.48 16 C465.38 23.01, 468.19 31.09, 467.48 48.01 M467.48 16 C467.54 26.91, 467.84 37.81, 467.48 48.01 M467.48 48.01 C466.79 60.58, 461.91 64.86, 451.48 64.01 M467.48 48.01 C467.98 58.82, 463.92 62.62, 451.48 64.01 M451.48 64.01 C294.83 63.81, 138.48 62.22, 16 64.01 M451.48 64.01 C293.84 65.14, 136.58 65.49, 16 64.01 M16 64.01 C5.38 65.35, 0.22 57.16, 0 48.01 M16 64.01 C7.46 66.18, -1.2 57.54, 0 48.01 M0 48.01 C-1.54 39.69, 0.7 36.64, 0 16 M0 48.01 C-0.12 36.86, 0.22 27.7, 0 16 M0 16 C0.36 3.42, 7.05 1.27, 16 0 M0 16 C2.15 3.73, 7.08 -1.07, 16 0" stroke="#1e1e1e" stroke-width="2" fill="none"></path></g><g transform="translate(1404.8889135866593 1335.3645983507126) rotate(0 54.52995300292969 12.5)"><text x="0" y="0" font-family="Virgil, Segoe UI Emoji" font-size="20px" fill="#1e1e1e" text-anchor="start" style="white-space: pre;" direction="ltr" dominant-baseline="text-before-edge">MesageMox</text></g><g stroke-linecap="round" transform="translate(1856.8497694704743 863.3488570684724) rotate(0 61.10200412163181 264.77535119373727)"><path d="M30.55 0 C50.84 1.48, 69.85 -1.04, 91.65 0 M30.55 0 C52.31 0.68, 74.41 1.05, 91.65 0 M91.65 0 C112.42 -0.78, 122.92 8.76, 122.2 30.55 M91.65 0 C111.06 -1.23, 120.95 8.03, 122.2 30.55 M122.2 30.55 C122.69 198.54, 121.75 364.91, 122.2 499 M122.2 30.55 C120.31 188.51, 120.66 346.18, 122.2 499 M122.2 499 C120.26 521.35, 111.96 530.35, 91.65 529.55 M122.2 499 C120.4 518.28, 112.24 531.74, 91.65 529.55 M91.65 529.55 C68.04 528.03, 46.47 530.09, 30.55 529.55 M91.65 529.55 C79.11 530.21, 65.73 529.82, 30.55 529.55 M30.55 529.55 C9.03 528.72, -0.18 518.01, 0 499 M30.55 529.55 C10.41 530.26, -0.81 517.51, 0 499 M0 499 C-0.69 329.12, -0.4 161.15, 0 30.55 M0 499 C1.5 313.82, 1.15 129.24, 0 30.55 M0 30.55 C-0.27 11.49, 9.11 1.35, 30.55 0 M0 30.55 C1.19 11.52, 9.2 -1.05, 30.55 0" stroke="#1e1e1e" stroke-width="2" fill="none"></path></g><g stroke-linecap="round" transform="translate(1185.6975972138225 706.2294178985624) rotate(0 382.1299940305221 27.156446276280803)"><path d="M13.58 0 C282.93 -0.35, 552.33 0, 750.68 0 M13.58 0 C224.69 0.96, 435.69 0.86, 750.68 0 M750.68 0 C760.46 -0.52, 762.34 4.84, 764.26 13.58 M750.68 0 C758.23 -1.85, 765.73 4.46, 764.26 13.58 M764.26 13.58 C763.88 17.37, 762.51 25.11, 764.26 40.73 M764.26 13.58 C764.96 24.04, 764.89 32.71, 764.26 40.73 M764.26 40.73 C765.41 51.21, 759.65 55.31, 750.68 54.31 M764.26 40.73 C762.16 51.28, 760.13 53.26, 750.68 54.31 M750.68 54.31 C567.95 52.04, 384.14 51.48, 13.58 54.31 M750.68 54.31 C599.41 52.16, 448.38 51.69, 13.58 54.31 M13.58 54.31 C4.91 53.25, 0.19 48.89, 0 40.73 M13.58 54.31 C2.77 55.25, -2.09 50.36, 0 40.73 M0 40.73 C-1.51 31.15, -0.8 21.76, 0 13.58 M0 40.73 C-0.4 33.16, -0.42 26.75, 0 13.58 M0 13.58 C0.59 4.28, 3.69 -1.02, 13.58 0 M0 13.58 C-0.54 2.57, 4.6 -1.26, 13.58 0" stroke="#1e1e1e" stroke-width="2" fill="none"></path></g><g transform="translate(1862.6690079582486 1099.997888904633) rotate(0 53.5699462890625 12.5)"><text x="0" y="0" font-family="Virgil, Segoe UI Emoji" font-size="20px" fill="#1e1e1e" text-anchor="start" style="white-space: pre;" direction="ltr" dominant-baseline="text-before-edge">MemberList</text></g><g transform="translate(1433.9851060255314 717.867894874111) rotate(0 67.59993743896484 12.5)"><text x="0" y="0" font-family="Virgil, Segoe UI Emoji" font-size="20px" fill="#1e1e1e" text-anchor="start" style="white-space: pre;" direction="ltr" dominant-baseline="text-before-edge">ServerTopBar</text></g><g stroke-linecap="round" transform="translate(623.2850208833843 919.075934543117) rotate(0 62.5 148.75)"><path d="M31.25 0 C44.84 0.4, 55.85 -1.57, 93.75 0 M31.25 0 C45.91 0.11, 61.14 0.45, 93.75 0 M93.75 0 C113.22 0.25, 126.07 8.91, 125 31.25 M93.75 0 C113.02 -0.88, 126.1 12.7, 125 31.25 M125 31.25 C122.77 116.68, 122.41 204.74, 125 266.25 M125 31.25 C125.54 89.6, 125.42 147.58, 125 266.25 M125 266.25 C124.67 287.72, 116.51 295.9, 93.75 297.5 M125 266.25 C126.09 286.33, 115.84 296.38, 93.75 297.5 M93.75 297.5 C70.07 297.89, 42.59 297.66, 31.25 297.5 M93.75 297.5 C75.51 297.6, 58.65 297.67, 31.25 297.5 M31.25 297.5 C8.53 295.93, -0.89 285.76, 0 266.25 M31.25 297.5 C8.77 297.06, 0.84 289.09, 0 266.25 M0 266.25 C1.19 191.81, 0.1 115.21, 0 31.25 M0 266.25 C0.35 209.91, -0.08 154.74, 0 31.25 M0 31.25 C0.41 11.51, 12.32 0.21, 31.25 0 M0 31.25 C0.01 10.44, 10.43 -1.37, 31.25 0" stroke="#1e1e1e" stroke-width="2" fill="none"></path></g></svg>