<svg version="1.1" xmlns="http://www.w3.org/2000/svg" viewBox="0 0 659 563" width="659" height="563">
  <!-- svg-source:excalidraw -->
  
  <defs>
    <style class="style-fonts">
      @font-face {
        font-family: "Virgil";
        src: url("https://excalidraw.com/Virgil.woff2");
      }
      @font-face {
        font-family: "Cascadia";
        src: url("https://excalidraw.com/Cascadia.woff2");
      }
      @font-face {
        font-family: "Assistant";
        src: url("https://excalidraw.com/Assistant-Regular.woff2");
      }
    </style>
    
  </defs>
  <rect x="0" y="0" width="659" height="563" fill="#ffffff"></rect><g stroke-linecap="round" transform="translate(10 10) rotate(0 319.5 271.5)"><path d="M32 0 C257.74 0, 483.48 0, 607 0 M32 0 C231.68 0, 431.36 0, 607 0 M607 0 C628.33 0, 639 10.67, 639 32 M607 0 C628.33 0, 639 10.67, 639 32 M639 32 C639 129.23, 639 226.46, 639 511 M639 32 C639 199.46, 639 366.93, 639 511 M639 511 C639 532.33, 628.33 543, 607 543 M639 511 C639 532.33, 628.33 543, 607 543 M607 543 C470.45 543, 333.89 543, 32 543 M607 543 C491.44 543, 375.87 543, 32 543 M32 543 C10.67 543, 0 532.33, 0 511 M32 543 C10.67 543, 0 532.33, 0 511 M0 511 C0 343.74, 0 176.48, 0 32 M0 511 C0 396.48, 0 281.96, 0 32 M0 32 C0 10.67, 10.67 0, 32 0 M0 32 C0 10.67, 10.67 0, 32 0" stroke="#1e1e1e" stroke-width="2" fill="none"></path></g><g transform="translate(67 30) rotate(0 95.05992126464844 12.5)"><text x="0" y="17.52" font-family="Virgil, Segoe UI Emoji" font-size="20px" fill="#1e1e1e" text-anchor="start" style="white-space: pre;" direction="ltr" dominant-baseline="alphabetic">ChannelMessageBox</text></g><g stroke-linecap="round" transform="translate(64 75) rotate(0 260.5 221.5)"><path d="M32 0 C193.89 0, 355.78 0, 489 0 M32 0 C210.25 0, 388.5 0, 489 0 M489 0 C510.33 0, 521 10.67, 521 32 M489 0 C510.33 0, 521 10.67, 521 32 M521 32 C521 135.56, 521 239.11, 521 411 M521 32 C521 176.95, 521 321.91, 521 411 M521 411 C521 432.33, 510.33 443, 489 443 M521 411 C521 432.33, 510.33 443, 489 443 M489 443 C396.11 443, 303.22 443, 32 443 M489 443 C356.72 443, 224.45 443, 32 443 M32 443 C10.67 443, 0 432.33, 0 411 M32 443 C10.67 443, 0 432.33, 0 411 M0 411 C0 276.87, 0 142.73, 0 32 M0 411 C0 313.42, 0 215.85, 0 32 M0 32 C0 10.67, 10.67 0, 32 0 M0 32 C0 10.67, 10.67 0, 32 0" stroke="#1e1e1e" stroke-width="2" fill="none"></path></g><g transform="translate(106 98) rotate(0 59.5699462890625 12.5)"><text x="0" y="17.52" font-family="Virgil, Segoe UI Emoji" font-size="20px" fill="#1e1e1e" text-anchor="start" style="white-space: pre;" direction="ltr" dominant-baseline="alphabetic">MessageBox</text></g><g stroke-linecap="round" transform="translate(107 140) rotate(0 221 33.5)"><path d="M16.75 0 C118.42 0, 220.09 0, 425.25 0 M16.75 0 C109.79 0, 202.83 0, 425.25 0 M425.25 0 C436.42 0, 442 5.58, 442 16.75 M425.25 0 C436.42 0, 442 5.58, 442 16.75 M442 16.75 C442 26.4, 442 36.05, 442 50.25 M442 16.75 C442 23.8, 442 30.84, 442 50.25 M442 50.25 C442 61.42, 436.42 67, 425.25 67 M442 50.25 C442 61.42, 436.42 67, 425.25 67 M425.25 67 C302.61 67, 179.97 67, 16.75 67 M425.25 67 C317.35 67, 209.45 67, 16.75 67 M16.75 67 C5.58 67, 0 61.42, 0 50.25 M16.75 67 C5.58 67, 0 61.42, 0 50.25 M0 50.25 C0 43.24, 0 36.22, 0 16.75 M0 50.25 C0 40.54, 0 30.83, 0 16.75 M0 16.75 C0 5.58, 5.58 0, 16.75 0 M0 16.75 C0 5.58, 5.58 0, 16.75 0" stroke="#1e1e1e" stroke-width="2" fill="none"></path></g><g transform="translate(149 164) rotate(0 84.0699234008789 12.5)"><text x="0" y="17.52" font-family="Virgil, Segoe UI Emoji" font-size="20px" fill="#1e1e1e" text-anchor="start" style="white-space: pre;" direction="ltr" dominant-baseline="alphabetic">MessageBoxReply</text></g><g stroke-linecap="round" transform="translate(106 238.5) rotate(0 221 33.5)"><path d="M16.75 0 C118.48 0, 220.22 0, 425.25 0 M16.75 0 C176.69 0, 336.63 0, 425.25 0 M425.25 0 C436.42 0, 442 5.58, 442 16.75 M425.25 0 C436.42 0, 442 5.58, 442 16.75 M442 16.75 C442 27.55, 442 38.35, 442 50.25 M442 16.75 C442 25.28, 442 33.81, 442 50.25 M442 50.25 C442 61.42, 436.42 67, 425.25 67 M442 50.25 C442 61.42, 436.42 67, 425.25 67 M425.25 67 C300.31 67, 175.37 67, 16.75 67 M425.25 67 C262.28 67, 99.31 67, 16.75 67 M16.75 67 C5.58 67, 0 61.42, 0 50.25 M16.75 67 C5.58 67, 0 61.42, 0 50.25 M0 50.25 C0 38.43, 0 26.62, 0 16.75 M0 50.25 C0 39.29, 0 28.33, 0 16.75 M0 16.75 C0 5.58, 5.58 0, 16.75 0 M0 16.75 C0 5.58, 5.58 0, 16.75 0" stroke="#1e1e1e" stroke-width="2" fill="none"></path></g><g transform="translate(150 262) rotate(0 121.17990112304688 12.5)"><text x="0" y="17.52" font-family="Virgil, Segoe UI Emoji" font-size="20px" fill="#1e1e1e" text-anchor="start" style="white-space: pre;" direction="ltr" dominant-baseline="alphabetic">MessageBox Attachment</text></g><g stroke-linecap="round" transform="translate(108 328.5) rotate(0 221 33.5)"><path d="M16.75 0 C153.57 0, 290.38 0, 425.25 0 M16.75 0 C136.63 0, 256.52 0, 425.25 0 M425.25 0 C436.42 0, 442 5.58, 442 16.75 M425.25 0 C436.42 0, 442 5.58, 442 16.75 M442 16.75 C442 24.92, 442 33.08, 442 50.25 M442 16.75 C442 25.74, 442 34.72, 442 50.25 M442 50.25 C442 61.42, 436.42 67, 425.25 67 M442 50.25 C442 61.42, 436.42 67, 425.25 67 M425.25 67 C270.34 67, 115.43 67, 16.75 67 M425.25 67 C320.97 67, 216.7 67, 16.75 67 M16.75 67 C5.58 67, 0 61.42, 0 50.25 M16.75 67 C5.58 67, 0 61.42, 0 50.25 M0 50.25 C0 42.95, 0 35.64, 0 16.75 M0 50.25 C0 41.58, 0 32.91, 0 16.75 M0 16.75 C0 5.58, 5.58 0, 16.75 0 M0 16.75 C0 5.58, 5.58 0, 16.75 0" stroke="#1e1e1e" stroke-width="2" fill="none"></path></g><g transform="translate(151 344) rotate(0 82.28993225097656 12.5)"><text x="0" y="17.52" font-family="Virgil, Segoe UI Emoji" font-size="20px" fill="#1e1e1e" text-anchor="start" style="white-space: pre;" direction="ltr" dominant-baseline="alphabetic">MessageBox Link</text></g><g stroke-linecap="round" transform="translate(107 416.5) rotate(0 221 33.5)"><path d="M16.75 0 C107.01 0, 197.28 0, 425.25 0 M16.75 0 C100.78 0, 184.82 0, 425.25 0 M425.25 0 C436.42 0, 442 5.58, 442 16.75 M425.25 0 C436.42 0, 442 5.58, 442 16.75 M442 16.75 C442 25.95, 442 35.15, 442 50.25 M442 16.75 C442 27.81, 442 38.87, 442 50.25 M442 50.25 C442 61.42, 436.42 67, 425.25 67 M442 50.25 C442 61.42, 436.42 67, 425.25 67 M425.25 67 C269.1 67, 112.95 67, 16.75 67 M425.25 67 C281.11 67, 136.96 67, 16.75 67 M16.75 67 C5.58 67, 0 61.42, 0 50.25 M16.75 67 C5.58 67, 0 61.42, 0 50.25 M0 50.25 C0 37.32, 0 24.38, 0 16.75 M0 50.25 C0 37.88, 0 25.52, 0 16.75 M0 16.75 C0 5.58, 5.58 0, 16.75 0 M0 16.75 C0 5.58, 5.58 0, 16.75 0" stroke="#1e1e1e" stroke-width="2" fill="none"></path></g><g transform="translate(157 424) rotate(0 8.219993591308594 12.5)"><text x="0" y="17.52" font-family="Virgil, Segoe UI Emoji" font-size="20px" fill="#1e1e1e" text-anchor="start" style="white-space: pre;" direction="ltr" dominant-baseline="alphabetic">...</text></g></svg>