<svg version="1.1" xmlns="http://www.w3.org/2000/svg" viewBox="0 0 625 610" width="625" height="610">
  <!-- svg-source:excalidraw -->
  
  <defs>
    <style class="style-fonts">
      @font-face {
        font-family: "Virgil";
        src: url("https://excalidraw.com/Virgil.woff2");
      }
      @font-face {
        font-family: "Cascadia";
        src: url("https://excalidraw.com/Cascadia.woff2");
      }
      @font-face {
        font-family: "Assistant";
        src: url("https://excalidraw.com/Assistant-Regular.woff2");
      }
    </style>
    
  </defs>
  <rect x="0" y="0" width="625" height="610" fill="#ffffff"></rect><g stroke-linecap="round" transform="translate(10 10) rotate(0 302.5 295)"><path d="M32 0 C201.58 0, 371.16 0, 573 0 M32 0 C174.35 0, 316.7 0, 573 0 M573 0 C594.33 0, 605 10.67, 605 32 M573 0 C594.33 0, 605 10.67, 605 32 M605 32 C605 238.68, 605 445.35, 605 558 M605 32 C605 225.72, 605 419.45, 605 558 M605 558 C605 579.33, 594.33 590, 573 590 M605 558 C605 579.33, 594.33 590, 573 590 M573 590 C394.91 590, 216.81 590, 32 590 M573 590 C406.96 590, 240.92 590, 32 590 M32 590 C10.67 590, 0 579.33, 0 558 M32 590 C10.67 590, 0 579.33, 0 558 M0 558 C0 355.3, 0 152.59, 0 32 M0 558 C0 444.55, 0 331.09, 0 32 M0 32 C0 10.67, 10.67 0, 32 0 M0 32 C0 10.67, 10.67 0, 32 0" stroke="#1e1e1e" stroke-width="2" fill="none"></path></g><g transform="translate(36 39) rotate(0 82.05992889404297 12.5)"><text x="0" y="17.52" font-family="Virgil, Segoe UI Emoji" font-size="20px" fill="#1e1e1e" text-anchor="start" style="white-space: pre;" direction="ltr" dominant-baseline="alphabetic">ChannelMessages</text></g><g stroke-linecap="round" transform="translate(41 74) rotate(0 266.5 255)"><path d="M32 0 C153.91 0, 275.82 0, 501 0 M32 0 C146.83 0, 261.66 0, 501 0 M501 0 C522.33 0, 533 10.67, 533 32 M501 0 C522.33 0, 533 10.67, 533 32 M533 32 C533 205.52, 533 379.05, 533 478 M533 32 C533 148.32, 533 264.63, 533 478 M533 478 C533 499.33, 522.33 510, 501 510 M533 478 C533 499.33, 522.33 510, 501 510 M501 510 C360.91 510, 220.83 510, 32 510 M501 510 C334.84 510, 168.68 510, 32 510 M32 510 C10.67 510, 0 499.33, 0 478 M32 510 C10.67 510, 0 499.33, 0 478 M0 478 C0 355.72, 0 233.43, 0 32 M0 478 C0 306.96, 0 135.93, 0 32 M0 32 C0 10.67, 10.67 0, 32 0 M0 32 C0 10.67, 10.67 0, 32 0" stroke="#1e1e1e" stroke-width="2" fill="none"></path></g><g transform="translate(70 114) rotate(0 76.62993621826172 12.5)"><text x="0" y="17.52" font-family="Virgil, Segoe UI Emoji" font-size="20px" fill="#1e1e1e" text-anchor="start" style="white-space: pre;" direction="ltr" dominant-baseline="alphabetic">ChannelMessage</text></g><g stroke-linecap="round" transform="translate(70 174) rotate(0 240 194.5)"><path d="M32 0 C186.23 0, 340.47 0, 448 0 M32 0 C147.88 0, 263.76 0, 448 0 M448 0 C469.33 0, 480 10.67, 480 32 M448 0 C469.33 0, 480 10.67, 480 32 M480 32 C480 129.43, 480 226.86, 480 357 M480 32 C480 143.24, 480 254.48, 480 357 M480 357 C480 378.33, 469.33 389, 448 389 M480 357 C480 378.33, 469.33 389, 448 389 M448 389 C318.13 389, 188.26 389, 32 389 M448 389 C359.34 389, 270.67 389, 32 389 M32 389 C10.67 389, 0 378.33, 0 357 M32 389 C10.67 389, 0 378.33, 0 357 M0 357 C0 231.15, 0 105.3, 0 32 M0 357 C0 232.22, 0 107.45, 0 32 M0 32 C0 10.67, 10.67 0, 32 0 M0 32 C0 10.67, 10.67 0, 32 0" stroke="#1e1e1e" stroke-width="2" fill="none"></path></g><g transform="translate(98 174) rotate(0 83.71992492675781 12.5)"><text x="0" y="17.52" font-family="Virgil, Segoe UI Emoji" font-size="20px" fill="#1e1e1e" text-anchor="start" style="white-space: pre;" direction="ltr" dominant-baseline="alphabetic">MessageWithUser</text></g><g stroke-linecap="round" transform="translate(105 214) rotate(0 207.5 24.5)"><path d="M12.25 0 C130.15 0, 248.05 0, 402.75 0 M12.25 0 C151.12 0, 289.99 0, 402.75 0 M402.75 0 C410.92 0, 415 4.08, 415 12.25 M402.75 0 C410.92 0, 415 4.08, 415 12.25 M415 12.25 C415 17.59, 415 22.93, 415 36.75 M415 12.25 C415 20.97, 415 29.69, 415 36.75 M415 36.75 C415 44.92, 410.92 49, 402.75 49 M415 36.75 C415 44.92, 410.92 49, 402.75 49 M402.75 49 C282.3 49, 161.85 49, 12.25 49 M402.75 49 C260.1 49, 117.44 49, 12.25 49 M12.25 49 C4.08 49, 0 44.92, 0 36.75 M12.25 49 C4.08 49, 0 44.92, 0 36.75 M0 36.75 C0 28.8, 0 20.84, 0 12.25 M0 36.75 C0 30.67, 0 24.6, 0 12.25 M0 12.25 C0 4.08, 4.08 0, 12.25 0 M0 12.25 C0 4.08, 4.08 0, 12.25 0" stroke="#1e1e1e" stroke-width="2" fill="none"></path></g><g stroke-linecap="round" transform="translate(105 329) rotate(0 208 109)"><path d="M32 0 C114.96 0, 197.93 0, 384 0 M32 0 C149.89 0, 267.78 0, 384 0 M384 0 C405.33 0, 416 10.67, 416 32 M384 0 C405.33 0, 416 10.67, 416 32 M416 32 C416 74.2, 416 116.41, 416 186 M416 32 C416 66.63, 416 101.27, 416 186 M416 186 C416 207.33, 405.33 218, 384 218 M416 186 C416 207.33, 405.33 218, 384 218 M384 218 C265.5 218, 147.01 218, 32 218 M384 218 C258.83 218, 133.66 218, 32 218 M32 218 C10.67 218, 0 207.33, 0 186 M32 218 C10.67 218, 0 207.33, 0 186 M0 186 C0 130.78, 0 75.56, 0 32 M0 186 C0 144.4, 0 102.79, 0 32 M0 32 C0 10.67, 10.67 0, 32 0 M0 32 C0 10.67, 10.67 0, 32 0" stroke="#1e1e1e" stroke-width="2" fill="none"></path></g><g transform="translate(132 224) rotate(0 76.21994018554688 12.5)"><text x="0" y="17.52" font-family="Virgil, Segoe UI Emoji" font-size="20px" fill="#1e1e1e" text-anchor="start" style="white-space: pre;" direction="ltr" dominant-baseline="alphabetic">MessageAvatar</text></g><g stroke-linecap="round" transform="translate(105.5 270.5) rotate(0 208 24.5)"><path d="M12.25 0 C125.07 0, 237.88 0, 403.75 0 M12.25 0 C93.07 0, 173.9 0, 403.75 0 M403.75 0 C411.92 0, 416 4.08, 416 12.25 M403.75 0 C411.92 0, 416 4.08, 416 12.25 M416 12.25 C416 20.87, 416 29.49, 416 36.75 M416 12.25 C416 18.71, 416 25.18, 416 36.75 M416 36.75 C416 44.92, 411.92 49, 403.75 49 M416 36.75 C416 44.92, 411.92 49, 403.75 49 M403.75 49 C316.98 49, 230.21 49, 12.25 49 M403.75 49 C324.98 49, 246.2 49, 12.25 49 M12.25 49 C4.08 49, 0 44.92, 0 36.75 M12.25 49 C4.08 49, 0 44.92, 0 36.75 M0 36.75 C0 26.95, 0 17.15, 0 12.25 M0 36.75 C0 29.61, 0 22.47, 0 12.25 M0 12.25 C0 4.08, 4.08 0, 12.25 0 M0 12.25 C0 4.08, 4.08 0, 12.25 0" stroke="#1e1e1e" stroke-width="2" fill="none"></path></g><g transform="translate(131 285) rotate(0 64.47994232177734 12.5)"><text x="0" y="17.52" font-family="Virgil, Segoe UI Emoji" font-size="20px" fill="#1e1e1e" text-anchor="start" style="white-space: pre;" direction="ltr" dominant-baseline="alphabetic">MessageHead</text></g><g transform="translate(128 345) rotate(0 79.22992706298828 12.5)"><text x="0" y="17.52" font-family="Virgil, Segoe UI Emoji" font-size="20px" fill="#1e1e1e" text-anchor="start" style="white-space: pre;" direction="ltr" dominant-baseline="alphabetic">MessageContent</text></g><g stroke-linecap="round" transform="translate(121.5 372.5) rotate(0 193 24.5)"><path d="M12.25 0 C88.81 0, 165.36 0, 373.75 0 M12.25 0 C128.53 0, 244.81 0, 373.75 0 M373.75 0 C381.92 0, 386 4.08, 386 12.25 M373.75 0 C381.92 0, 386 4.08, 386 12.25 M386 12.25 C386 19.81, 386 27.37, 386 36.75 M386 12.25 C386 21.63, 386 31.01, 386 36.75 M386 36.75 C386 44.92, 381.92 49, 373.75 49 M386 36.75 C386 44.92, 381.92 49, 373.75 49 M373.75 49 C296.69 49, 219.63 49, 12.25 49 M373.75 49 C283.91 49, 194.08 49, 12.25 49 M12.25 49 C4.08 49, 0 44.92, 0 36.75 M12.25 49 C4.08 49, 0 44.92, 0 36.75 M0 36.75 C0 30.18, 0 23.61, 0 12.25 M0 36.75 C0 31.68, 0 26.6, 0 12.25 M0 12.25 C0 4.08, 4.08 0, 12.25 0 M0 12.25 C0 4.08, 4.08 0, 12.25 0" stroke="#1e1e1e" stroke-width="2" fill="none"></path></g><g transform="translate(137 383) rotate(0 135.20989990234375 12.5)"><text x="0" y="17.52" font-family="Virgil, Segoe UI Emoji" font-size="20px" fill="#1e1e1e" text-anchor="start" style="white-space: pre;" direction="ltr" dominant-baseline="alphabetic">MessageLink, Image, Video...</text></g><g stroke-linecap="round" transform="translate(122 431.5) rotate(0 193.5 24.5)"><path d="M12.25 0 C142.3 0, 272.35 0, 374.75 0 M12.25 0 C105.41 0, 198.57 0, 374.75 0 M374.75 0 C382.92 0, 387 4.08, 387 12.25 M374.75 0 C382.92 0, 387 4.08, 387 12.25 M387 12.25 C387 21.87, 387 31.48, 387 36.75 M387 12.25 C387 19.04, 387 25.82, 387 36.75 M387 36.75 C387 44.92, 382.92 49, 374.75 49 M387 36.75 C387 44.92, 382.92 49, 374.75 49 M374.75 49 C291 49, 207.25 49, 12.25 49 M374.75 49 C281.49 49, 188.23 49, 12.25 49 M12.25 49 C4.08 49, 0 44.92, 0 36.75 M12.25 49 C4.08 49, 0 44.92, 0 36.75 M0 36.75 C0 29.21, 0 21.67, 0 12.25 M0 36.75 C0 27.58, 0 18.42, 0 12.25 M0 12.25 C0 4.08, 4.08 0, 12.25 0 M0 12.25 C0 4.08, 4.08 0, 12.25 0" stroke="#1e1e1e" stroke-width="2" fill="none"></path></g><g transform="translate(140 444) rotate(0 179.37985229492188 12.5)"><text x="0" y="17.52" font-family="Virgil, Segoe UI Emoji" font-size="20px" fill="#1e1e1e" text-anchor="start" style="white-space: pre;" direction="ltr" dominant-baseline="alphabetic">MessageReply, Reaction, Attachment</text></g><g transform="translate(133 489) rotate(0 8.219993591308594 12.5)"><text x="0" y="17.52" font-family="Virgil, Segoe UI Emoji" font-size="20px" fill="#1e1e1e" text-anchor="start" style="white-space: pre;" direction="ltr" dominant-baseline="alphabetic">...</text></g><g stroke-linecap="round" transform="translate(121.5 491.5) rotate(0 194.5 20)"><path d="M10 0 C111.01 0, 212.02 0, 379 0 M10 0 C87.69 0, 165.38 0, 379 0 M379 0 C385.67 0, 389 3.33, 389 10 M379 0 C385.67 0, 389 3.33, 389 10 M389 10 C389 17.67, 389 25.34, 389 30 M389 10 C389 14.01, 389 18.03, 389 30 M389 30 C389 36.67, 385.67 40, 379 40 M389 30 C389 36.67, 385.67 40, 379 40 M379 40 C239.11 40, 99.22 40, 10 40 M379 40 C273.91 40, 168.82 40, 10 40 M10 40 C3.33 40, 0 36.67, 0 30 M10 40 C3.33 40, 0 36.67, 0 30 M0 30 C0 23.02, 0 16.05, 0 10 M0 30 C0 24.07, 0 18.15, 0 10 M0 10 C0 3.33, 3.33 0, 10 0 M0 10 C0 3.33, 3.33 0, 10 0" stroke="#1e1e1e" stroke-width="2" fill="none"></path></g></svg>