<svg version="1.1" xmlns="http://www.w3.org/2000/svg" viewBox="0 0 947.0000305175781 412.79998779296875" width="947.0000305175781" height="412.79998779296875">
  <!-- svg-source:excalidraw -->
  
  <defs>
    <style>
      @font-face {
        font-family: "Virgil";
        src: url("libs//dist/excalidraw-assets/Virgil.woff2");
      }
      @font-face {
        font-family: "Cascadia";
        src: url("libs//dist/excalidraw-assets/Cascadia.woff2");
      }
    </style>
  </defs>
  <rect x="0" y="0" width="947.0000305175781" height="412.79998779296875" fill="#ffffff"></rect><g strokeLinecap="round" transform="translate(684.4000549316406 28.399993896484375) rotate(0 75.60000610351562 102.4000244140625)"><path d="M-1.38 1.99 C33.6 1.66, 69.01 0.96, 149.91 1.28 M0.22 -0.79 C60.04 -0.62, 118.3 -0.76, 151.67 -0.19 M150.07 0.55 C152.38 70.5, 149.8 141.67, 151.17 203.4 M151.09 0.36 C150.79 72.77, 151.92 145.04, 152 205.08 M152.66 205.81 C99.71 207.53, 46.47 205.53, 0.85 205.91 M151.08 204.43 C99.42 205.37, 46.77 205.26, -0.7 204.79 M1.62 203.87 C-2.61 156.1, -1.25 107.45, 1.3 0.87 M0.06 204.07 C0.46 160.01, 1.04 115.29, -0.34 -0.87" stroke="#000000" strokeWidth="1" fill="none"></path></g><g transform="translate(710.8000183105469 71.39999389648438) rotate(0 54.5 11.5)"><text x="0" y="18" font-family="Helvetica, Segoe UI Emoji" font-size="20px" fill="#000000" text-anchor="start" style="white-space: pre;" direction="ltr">voice server</text></g><g strokeLinecap="round" transform="translate(10 111.59996032714844) rotate(0 72.40000915527344 106.00000762939453)"><path d="M1.29 0.72 C35.09 -0.18, 64.94 1.54, 144.72 1.43 M-0.38 0.29 C54.07 0.33, 107.75 1.55, 145.18 0.88 M144.41 1.55 C142.36 56.49, 142.65 111.13, 143.33 210.72 M144.98 -0.55 C143.51 50.43, 143.91 100.18, 144.66 212.35 M145.08 210.78 C89.6 210.21, 34.73 212.79, -1.17 210.78 M143.87 211.04 C100.99 210.75, 59.26 209.84, 0.89 212.95 M0.08 211.95 C-2.86 128.56, -0.48 45.23, -0.74 -1.61 M0.2 212.34 C0.02 149.17, -0.93 86.56, -0.32 -0.4" stroke="#000000" strokeWidth="1" fill="none"></path></g><g transform="translate(31.600006103515625 145) rotate(0 50 11.5)"><text x="0" y="18" font-family="Helvetica, Segoe UI Emoji" font-size="20px" fill="#000000" text-anchor="start" style="white-space: pre;" direction="ltr">chat server</text></g><g strokeLinecap="round" transform="translate(352.4000549316406 10) rotate(0 107.99996948242188 196.39999389648438)"><path d="M1.14 0.36 C57.1 0.45, 115.55 -1.35, 215.99 -0.19 M0.86 -0.71 C85.3 0.69, 170.35 1.82, 215.17 0.45 M215.65 0.39 C215.66 85.76, 216.51 174.03, 215.71 392.92 M216.01 0.56 C218.49 116.29, 218.43 232.04, 216.02 392.59 M214.3 392.52 C152.09 393.34, 86.34 392.77, -0.94 394.32 M215.53 392.63 C133.49 393.43, 50.29 392.67, 0.47 392.34 M0.02 393.33 C0.7 279.61, 0.58 163.57, -0.87 0.77 M-0.19 392.92 C-0.29 265, -0.17 136.78, -0.1 0.38" stroke="#000000" strokeWidth="1" fill="none"></path></g><g transform="translate(433.0000305175781 39.99998474121094) rotate(0 24 11.5)"><text x="0" y="18" font-family="Helvetica, Segoe UI Emoji" font-size="20px" fill="#000000" text-anchor="start" style="white-space: pre;" direction="ltr">client</text></g><g strokeLinecap="round"><g transform="translate(529.1769174260926 280.43093575333245) rotate(0 75.08527814634147 -70.4547234404832)"><path d="M-0.11 -0.64 C25.03 -24.36, 126.26 -118.72, 151.79 -142.54 M-1.62 1.63 C23.25 -21.87, 124.97 -116.97, 150.73 -141.06" stroke="#000000" strokeWidth="1" fill="none"></path></g><g transform="translate(529.1769174260926 280.43093575333245) rotate(0 75.08527814634147 -70.4547234404832)"><path d="M136.07 -114.69 C142.2 -122.67, 145.62 -134.63, 151.8 -142.13 M137.16 -113.86 C141.68 -121.35, 145.52 -130.81, 149.97 -140.39" stroke="#000000" strokeWidth="1" fill="none"></path></g><g transform="translate(529.1769174260926 280.43093575333245) rotate(0 75.08527814634147 -70.4547234404832)"><path d="M122.05 -129.68 C133.5 -131.93, 142.27 -138.16, 151.8 -142.13 M123.14 -128.84 C131.73 -132.02, 139.64 -137.13, 149.97 -140.39" stroke="#000000" strokeWidth="1" fill="none"></path></g></g><g strokeLinecap="round"><g transform="translate(686.8000183105469 199.5999755859375) rotate(0 -78.99681687509195 70.60382830836468)"><path d="M1.17 -0.35 C-25.05 23.38, -131.45 117.71, -158.04 141.63 M0.33 -1.58 C-26.02 22.36, -132.52 118.98, -159.17 142.79" stroke="#000000" strokeWidth="1" fill="none"></path></g><g transform="translate(686.8000183105469 199.5999755859375) rotate(0 -78.99681687509195 70.60382830836468)"><path d="M-145.69 115.74 C-149.85 121.67, -150.67 129.87, -158.02 143.22 M-145.07 115.99 C-149.77 126.85, -155.7 136.47, -159.84 141.89" stroke="#000000" strokeWidth="1" fill="none"></path></g><g transform="translate(686.8000183105469 199.5999755859375) rotate(0 -78.99681687509195 70.60382830836468)"><path d="M-131.95 130.98 C-139.33 133.37, -143.46 137.9, -158.02 143.22 M-131.33 131.23 C-141.06 136.34, -152.11 140.27, -159.84 141.89" stroke="#000000" strokeWidth="1" fill="none"></path></g></g><g transform="translate(594.0000305175781 264.7999572753906) rotate(0 171.5 11.5)"><text x="0" y="18" font-family="Helvetica, Segoe UI Emoji" font-size="20px" fill="#000000" text-anchor="start" style="white-space: pre;" direction="ltr">callback onUserJoined, onUserLeaved</text></g><g strokeLinecap="round" transform="translate(428.6000061035156 285.9999694824219) rotate(0 47.5 51)"><path d="M0.1 -1.42 C21.37 1.38, 41.64 -1.29, 95.03 -1.99 M-0.64 0.5 C21.17 -0.99, 41.6 0.5, 94.77 0.23 M96.61 0.08 C93.75 36.47, 94.72 73.28, 95.94 102.29 M95.56 -0.56 C94.87 22.59, 93.82 43.52, 95.08 102.69 M94.78 102.85 C59.98 101.71, 28.85 101.09, -0.09 101.32 M95.14 102.16 C61.63 102.58, 29.39 103.14, -0.7 101.57 M0.5 103.6 C-1.4 80.22, -1.85 55.81, -1.22 -0.08 M0.82 102.88 C-0.29 68.68, -1.27 36.02, -0.98 -0.29" stroke="#000000" strokeWidth="1" fill="none"></path></g><g strokeLinecap="round"><g transform="translate(421.65378657764086 333.08604794436394) rotate(0 -131.94021959236534 -64.03658107347482)"><path d="M-0.41 0.49 C-44.43 -20.67, -220.56 -105.63, -264.58 -127.05 M1.58 -0.29 C-42.56 -21.76, -221 -107.52, -265.46 -128.57" stroke="#000000" strokeWidth="1" fill="none"></path></g><g transform="translate(421.65378657764086 333.08604794436394) rotate(0 -131.94021959236534 -64.03658107347482)"><path d="M-234.78 -125.48 C-241.64 -126.27, -251.22 -129.23, -266.14 -130.12 M-236.41 -125.28 C-246.06 -126.49, -254.02 -128.16, -265.17 -129.29" stroke="#000000" strokeWidth="1" fill="none"></path></g><g transform="translate(421.65378657764086 333.08604794436394) rotate(0 -131.94021959236534 -64.03658107347482)"><path d="M-243.62 -106.96 C-248.12 -112.66, -255.34 -120.56, -266.14 -130.12 M-245.26 -106.76 C-251.93 -113.9, -257.04 -121.54, -265.17 -129.29" stroke="#000000" strokeWidth="1" fill="none"></path></g></g><g transform="translate(433.6000061035156 313.9999694824219) rotate(0 42.5 23)"><text x="42.5" y="18" font-family="Helvetica, Segoe UI Emoji" font-size="20px" fill="#000000" text-anchor="middle" style="white-space: pre;" direction="ltr">voicecont</text><text x="42.5" y="41" font-family="Helvetica, Segoe UI Emoji" font-size="20px" fill="#000000" text-anchor="middle" style="white-space: pre;" direction="ltr">ext</text></g><g strokeLinecap="round" transform="translate(437.2000427246094 204.40000915527344) rotate(0 44.5 33.199989318847656)"><path d="M-1.1 0.69 C29.36 2.23, 57.69 1.19, 89.41 -1.33 M-0.17 0.27 C31.77 0.44, 62.65 -0.21, 88.45 0.36 M89.53 -0.11 C90.63 14.75, 88.37 25.71, 90.15 66.42 M88.68 -0.63 C88 18.61, 88.84 38.38, 89.29 65.99 M88.71 65.12 C60.03 65.31, 30.98 67.9, -1.63 65.45 M89.85 66.25 C65.1 66.67, 40.69 65.98, -0.35 66.55 M-0.35 67.86 C-1.18 47.06, 1.41 26.17, 1.25 1 M0.36 67.34 C1.06 45.68, 0.07 23.83, -0.78 -0.35" stroke="#000000" strokeWidth="1" fill="none"></path></g><g transform="translate(442.2000427246094 226.0999984741211) rotate(0 39.5 11.5)"><text x="39.5" y="18" font-family="Helvetica, Segoe UI Emoji" font-size="20px" fill="#000000" text-anchor="middle" style="white-space: pre;" direction="ltr">context</text></g><g strokeLinecap="round"><g transform="translate(159.62922884653324 123.53025134093707) rotate(0 136.16724523815242 44.8255748570821)"><path d="M-0.07 -0.13 C45.71 14.67, 228.4 74.76, 273.91 89.93 M-1.57 -1.25 C44.1 14.18, 226.73 75.34, 272.86 90.9" stroke="#000000" strokeWidth="1" fill="none"></path></g><g transform="translate(159.62922884653324 123.53025134093707) rotate(0 136.16724523815242 44.8255748570821)"><path d="M242.65 91.34 C248.12 89.57, 256.74 91.1, 271.66 91.38 M243.36 91.31 C254.42 91.09, 264.24 90.34, 272.21 91.83" stroke="#000000" strokeWidth="1" fill="none"></path></g><g transform="translate(159.62922884653324 123.53025134093707) rotate(0 136.16724523815242 44.8255748570821)"><path d="M249.18 71.89 C253.3 74.69, 260.38 80.78, 271.66 91.38 M249.9 71.85 C258.73 78.49, 266.26 84.6, 272.21 91.83" stroke="#000000" strokeWidth="1" fill="none"></path></g></g><g transform="translate(172.60003662109375 123.79997253417969) rotate(0 67.5 35)"><text x="0" y="18.333333333333332" font-family="Helvetica, Segoe UI Emoji" font-size="20px" fill="#000000" text-anchor="start" style="white-space: pre;" direction="ltr">notify to all</text><text x="0" y="41.666666666666664" font-family="Helvetica, Segoe UI Emoji" font-size="20px" fill="#000000" text-anchor="start" style="white-space: pre;" direction="ltr">onUserJoined, </text><text x="0" y="65" font-family="Helvetica, Segoe UI Emoji" font-size="20px" fill="#000000" text-anchor="start" style="white-space: pre;" direction="ltr">onUserLeaved</text></g><g transform="translate(461.2000427246094 226.79998779296875) rotate(0 20.800018310546875 -62.00000762939453)" stroke="none"><path fill="#000000" d="M -4.03,-22.50 Q -4.03,-22.50 -6.00,-23.98 -7.96,-25.46 -10.17,-29.30 -12.39,-33.14 -14.45,-38.07 -16.50,-43.01 -17.96,-46.84 -19.41,-50.68 -20.44,-54.84 -21.46,-58.99 -21.90,-64.15 -22.34,-69.31 -22.32,-71.87 -22.29,-74.43 -22.20,-75.79 -22.10,-77.16 -21.63,-78.63 -21.15,-80.10 -16.90,-83.51 -12.64,-86.93 -8.67,-89.33 -4.69,-91.73 -0.55,-93.46 3.58,-95.20 7.98,-96.29 12.38,-97.38 15.26,-97.83 18.13,-98.28 20.78,-98.47 23.42,-98.66 25.68,-98.90 27.95,-99.15 29.60,-99.64 31.26,-100.14 33.02,-100.57 34.78,-101.00 36.39,-101.24 38.00,-101.48 39.49,-101.63 40.98,-101.77 42.54,-101.67 44.10,-101.58 46.30,-100.68 48.50,-99.77 50.02,-99.11 51.54,-98.45 52.59,-97.76 53.64,-97.08 54.93,-95.36 56.22,-93.65 57.16,-90.61 58.10,-87.57 58.79,-85.55 59.49,-83.53 60.07,-81.95 60.65,-80.37 60.98,-78.88 61.31,-77.39 61.34,-73.89 61.36,-70.38 61.39,-68.41 61.41,-66.45 61.52,-65.26 61.63,-64.07 61.97,-62.36 62.31,-60.64 63.01,-58.80 63.71,-56.95 64.07,-54.63 64.42,-52.32 64.52,-50.12 64.63,-47.91 64.78,-46.47 64.93,-45.03 65.04,-43.88 65.16,-42.74 64.83,-39.95 64.51,-37.16 63.66,-35.45 62.81,-33.75 62.33,-32.71 61.85,-31.68 61.15,-30.69 60.46,-29.71 59.84,-28.84 59.22,-27.97 58.21,-27.02 57.20,-26.06 55.10,-24.76 53.01,-23.46 52.59,-23.28 52.18,-23.10 51.72,-23.06 51.27,-23.02 50.83,-23.12 50.39,-23.23 50.00,-23.47 49.62,-23.71 49.33,-24.06 49.04,-24.41 48.88,-24.84 48.72,-25.26 48.70,-25.72 48.69,-26.17 48.82,-26.61 48.95,-27.05 49.21,-27.42 49.47,-27.79 49.84,-28.06 50.20,-28.33 50.64,-28.46 51.07,-28.60 51.52,-28.59 51.98,-28.58 52.41,-28.43 52.84,-28.28 53.19,-28.00 53.55,-27.71 53.80,-27.33 54.05,-26.95 54.16,-26.51 54.27,-26.07 54.24,-25.62 54.21,-25.17 54.03,-24.75 53.86,-24.33 53.56,-23.99 53.25,-23.64 52.86,-23.42 52.47,-23.19 52.02,-23.10 51.58,-23.01 51.12,-23.07 50.67,-23.13 50.26,-23.32 49.86,-23.52 49.53,-23.84 49.21,-24.16 49.00,-24.56 48.80,-24.97 48.73,-25.42 48.66,-25.87 48.75,-26.32 48.83,-26.76 49.05,-27.16 49.27,-27.56 49.60,-27.87 49.94,-28.17 49.94,-28.17 49.94,-28.17 51.49,-29.04 53.05,-29.90 54.19,-30.47 55.33,-31.05 56.57,-32.44 57.81,-33.82 58.38,-34.77 58.94,-35.71 59.61,-37.00 60.28,-38.30 60.71,-40.47 61.15,-42.64 61.21,-43.75 61.26,-44.86 61.28,-46.26 61.29,-47.66 61.08,-49.67 60.87,-51.69 60.47,-53.54 60.08,-55.40 59.02,-57.60 57.97,-59.80 57.89,-61.91 57.82,-64.02 57.89,-65.20 57.97,-66.38 57.91,-68.33 57.85,-70.28 57.69,-73.53 57.52,-76.78 57.40,-78.01 57.29,-79.25 56.82,-80.80 56.35,-82.35 55.50,-84.40 54.66,-86.46 53.84,-88.88 53.02,-91.30 51.47,-93.16 49.91,-95.02 48.56,-95.71 47.20,-96.39 45.43,-97.01 43.66,-97.63 42.40,-97.83 41.15,-98.03 39.75,-98.03 38.35,-98.04 36.90,-97.97 35.44,-97.90 33.72,-97.59 32.00,-97.28 30.13,-96.86 28.26,-96.43 25.94,-96.16 23.63,-95.89 21.11,-95.69 18.59,-95.49 15.84,-95.03 13.09,-94.56 8.92,-93.50 4.75,-92.43 0.84,-90.74 -3.05,-89.05 -6.81,-86.68 -10.58,-84.31 -14.26,-81.44 -17.95,-78.58 -18.44,-77.60 -18.93,-76.62 -19.25,-75.51 -19.56,-74.41 -19.56,-71.98 -19.57,-69.55 -19.14,-64.61 -18.71,-59.67 -17.70,-55.70 -16.69,-51.73 -15.20,-47.96 -13.72,-44.19 -11.68,-39.45 -9.63,-34.71 -7.78,-31.41 -5.93,-28.12 -3.93,-26.80 -1.93,-25.49 -1.77,-25.34 -1.60,-25.19 -1.48,-25.01 -1.36,-24.83 -1.28,-24.62 -1.20,-24.41 -1.18,-24.19 -1.16,-23.98 -1.18,-23.76 -1.21,-23.54 -1.29,-23.34 -1.37,-23.13 -1.50,-22.95 -1.63,-22.77 -1.79,-22.63 -1.96,-22.48 -2.16,-22.38 -2.35,-22.28 -2.57,-22.23 -2.78,-22.18 -3.00,-22.18 -3.22,-22.19 -3.43,-22.24 -3.65,-22.30 -3.84,-22.40 -4.03,-22.50 -4.03,-22.50 L -4.03,-22.50 Z"></path></g><g transform="translate(512.4000549316406 189.19998168945312) rotate(0 5.199981689453125 8)" stroke="none"><path fill="#000000" d="M 2.52,0 Q 2.52,0 2.51,1.41 2.51,2.82 2.19,5.08 1.86,7.34 1.54,9.08 1.21,10.83 0.85,11.98 0.48,13.14 -0.99,12.98 -2.46,12.83 -0.92,12.58 0.61,12.33 1.80,12.27 2.99,12.21 4.85,12.18 6.70,12.16 7.76,11.45 8.81,10.74 9.72,9.52 10.62,8.30 10.91,7.86 11.19,7.42 11.60,7.10 12.01,6.77 12.51,6.59 13.00,6.41 13.52,6.40 14.05,6.39 14.55,6.54 15.05,6.70 15.47,7.01 15.89,7.31 16.20,7.74 16.50,8.17 16.65,8.67 16.81,9.17 16.79,9.69 16.77,10.22 16.59,10.71 16.41,11.20 16.08,11.61 15.75,12.01 15.31,12.30 14.86,12.58 14.35,12.70 13.84,12.82 13.32,12.78 12.80,12.73 12.32,12.53 11.84,12.32 11.45,11.97 11.06,11.61 10.81,11.16 10.55,10.70 10.45,10.18 10.36,9.67 10.43,9.15 10.50,8.63 10.74,8.16 10.97,7.69 11.34,7.33 11.72,6.96 12.19,6.73 12.66,6.49 13.18,6.43 13.70,6.36 14.21,6.46 14.73,6.56 15.18,6.82 15.64,7.08 15.98,7.47 16.33,7.86 16.54,8.34 16.74,8.83 16.78,9.35 16.82,9.87 16.69,10.38 16.56,10.89 16.56,10.89 16.57,10.89 14.73,13.28 12.89,15.67 12.16,16.50 11.43,17.33 10.24,17.80 9.04,18.27 7.87,18.25 6.70,18.23 4.85,18.21 3.00,18.19 1.84,18.13 0.67,18.08 -0.93,17.94 -2.53,17.80 -3.82,15.75 -5.10,13.69 -4.35,11.84 -3.61,10.00 -3.39,8.51 -3.17,7.03 -2.84,4.86 -2.51,2.69 -2.51,1.34 -2.52,0 -2.48,-0.30 -2.44,-0.60 -2.34,-0.88 -2.23,-1.17 -2.05,-1.42 -1.88,-1.67 -1.65,-1.87 -1.43,-2.07 -1.16,-2.21 -0.89,-2.35 -0.59,-2.42 -0.30,-2.50 0.00,-2.50 0.30,-2.50 0.59,-2.42 0.89,-2.35 1.16,-2.21 1.43,-2.07 1.65,-1.87 1.88,-1.67 2.05,-1.42 2.23,-1.17 2.34,-0.88 2.44,-0.60 2.48,-0.30 2.52,0.00 2.52,0.00 L 2.52,0 Z"></path></g><g transform="translate(429.4000549316406 101.79997253417969) rotate(0 41 11.5)"><text x="0" y="18" font-family="Helvetica, Segoe UI Emoji" font-size="20px" fill="#000000" text-anchor="start" style="white-space: pre;" direction="ltr">re render</text></g><g transform="translate(581.1999816894531 172.5999755859375) rotate(0 28 35)"><text x="0" y="18.333333333333332" font-family="Helvetica, Segoe UI Emoji" font-size="20px" fill="#000000" text-anchor="start" style="white-space: pre;" direction="ltr">create</text><text x="0" y="41.666666666666664" font-family="Helvetica, Segoe UI Emoji" font-size="20px" fill="#000000" text-anchor="start" style="white-space: pre;" direction="ltr">voice </text><text x="0" y="65" font-family="Helvetica, Segoe UI Emoji" font-size="20px" fill="#000000" text-anchor="start" style="white-space: pre;" direction="ltr">room</text></g><g transform="translate(212.80001831054688 241.5999755859375) rotate(0 50 23)"><text x="0" y="19" font-family="Helvetica, Segoe UI Emoji" font-size="20px" fill="#000000" text-anchor="start" style="white-space: pre;" direction="ltr">notify to</text><text x="0" y="42" font-family="Helvetica, Segoe UI Emoji" font-size="20px" fill="#000000" text-anchor="start" style="white-space: pre;" direction="ltr">chat server</text></g></svg>